G04 #@! TF.GenerationSoftware,KiCad,Pcbnew,5.1.4+dfsg1-2*
G04 #@! TF.CreationDate,2019-12-05T18:27:04+01:00*
G04 #@! TF.ProjectId,sensor_pcb,73656e73-6f72-45f7-9063-622e6b696361,1*
G04 #@! TF.SameCoordinates,Original*
G04 #@! TF.FileFunction,Legend,Bot*
G04 #@! TF.FilePolarity,Positive*
%FSLAX46Y46*%
G04 Gerber Fmt 4.6, Leading zero omitted, Abs format (unit mm)*
G04 Created by KiCad (PCBNEW 5.1.4+dfsg1-2) date 2019-12-05 18:27:04*
%MOMM*%
%LPD*%
G04 APERTURE LIST*
%ADD10C,0.100000*%
%ADD11C,0.200000*%
G04 APERTURE END LIST*
D10*
G36*
X164000000Y-68500000D02*
G01*
X114500000Y-68500000D01*
X114500000Y-63500000D01*
X164000000Y-63500000D01*
X164000000Y-68500000D01*
G37*
X164000000Y-68500000D02*
X114500000Y-68500000D01*
X114500000Y-63500000D01*
X164000000Y-63500000D01*
X164000000Y-68500000D01*
D11*
X174619047Y-66604761D02*
X174619047Y-64604761D01*
X174619047Y-65557142D02*
X173476190Y-65557142D01*
X173476190Y-66604761D02*
X173476190Y-64604761D01*
X172714285Y-64604761D02*
X172238095Y-66604761D01*
X171857142Y-65176190D01*
X171476190Y-66604761D01*
X171000000Y-64604761D01*
X170238095Y-65557142D02*
X169571428Y-65557142D01*
X169285714Y-66604761D02*
X170238095Y-66604761D01*
X170238095Y-64604761D01*
X169285714Y-64604761D01*
X168428571Y-64604761D02*
X168428571Y-66223809D01*
X168333333Y-66414285D01*
X168238095Y-66509523D01*
X168047619Y-66604761D01*
X167666666Y-66604761D01*
X167476190Y-66509523D01*
X167380952Y-66414285D01*
X167285714Y-66223809D01*
X167285714Y-64604761D01*
X166333333Y-66604761D02*
X166333333Y-64604761D01*
X165380952Y-66414285D02*
X165285714Y-66509523D01*
X165380952Y-66604761D01*
X165476190Y-66509523D01*
X165380952Y-66414285D01*
X165380952Y-66604761D01*
X165380952Y-65366666D02*
X165285714Y-65461904D01*
X165380952Y-65557142D01*
X165476190Y-65461904D01*
X165380952Y-65366666D01*
X165380952Y-65557142D01*
M02*
