G04 #@! TF.GenerationSoftware,KiCad,Pcbnew,5.1.4+dfsg1-2*
G04 #@! TF.CreationDate,2019-12-05T18:27:04+01:00*
G04 #@! TF.ProjectId,sensor_pcb,73656e73-6f72-45f7-9063-622e6b696361,1*
G04 #@! TF.SameCoordinates,Original*
G04 #@! TF.FileFunction,Soldermask,Top*
G04 #@! TF.FilePolarity,Negative*
%FSLAX46Y46*%
G04 Gerber Fmt 4.6, Leading zero omitted, Abs format (unit mm)*
G04 Created by KiCad (PCBNEW 5.1.4+dfsg1-2) date 2019-12-05 18:27:04*
%MOMM*%
%LPD*%
G04 APERTURE LIST*
%ADD10C,0.100000*%
G04 APERTURE END LIST*
D10*
G36*
X162166162Y-130405368D02*
G01*
X162475724Y-130533593D01*
X162475725Y-130533594D01*
X162754324Y-130719747D01*
X162991253Y-130956676D01*
X163115637Y-131142830D01*
X163177407Y-131235276D01*
X163305632Y-131544838D01*
X163371000Y-131873465D01*
X163371000Y-132208535D01*
X163305632Y-132537162D01*
X163177407Y-132846724D01*
X163177406Y-132846725D01*
X162991253Y-133125324D01*
X162754324Y-133362253D01*
X162568170Y-133486637D01*
X162475724Y-133548407D01*
X162166162Y-133676632D01*
X161837535Y-133742000D01*
X161502465Y-133742000D01*
X161173838Y-133676632D01*
X160864276Y-133548407D01*
X160771830Y-133486637D01*
X160585676Y-133362253D01*
X160348747Y-133125324D01*
X160162594Y-132846725D01*
X160162593Y-132846724D01*
X160034368Y-132537162D01*
X159969000Y-132208535D01*
X159969000Y-131873465D01*
X160034368Y-131544838D01*
X160162593Y-131235276D01*
X160224363Y-131142830D01*
X160348747Y-130956676D01*
X160585676Y-130719747D01*
X160864275Y-130533594D01*
X160864276Y-130533593D01*
X161173838Y-130405368D01*
X161502465Y-130340000D01*
X161837535Y-130340000D01*
X162166162Y-130405368D01*
X162166162Y-130405368D01*
G37*
G36*
X127626162Y-130405368D02*
G01*
X127935724Y-130533593D01*
X127935725Y-130533594D01*
X128214324Y-130719747D01*
X128451253Y-130956676D01*
X128575637Y-131142830D01*
X128637407Y-131235276D01*
X128765632Y-131544838D01*
X128831000Y-131873465D01*
X128831000Y-132208535D01*
X128765632Y-132537162D01*
X128637407Y-132846724D01*
X128637406Y-132846725D01*
X128451253Y-133125324D01*
X128214324Y-133362253D01*
X128028170Y-133486637D01*
X127935724Y-133548407D01*
X127626162Y-133676632D01*
X127297535Y-133742000D01*
X126962465Y-133742000D01*
X126633838Y-133676632D01*
X126324276Y-133548407D01*
X126231830Y-133486637D01*
X126045676Y-133362253D01*
X125808747Y-133125324D01*
X125622594Y-132846725D01*
X125622593Y-132846724D01*
X125494368Y-132537162D01*
X125429000Y-132208535D01*
X125429000Y-131873465D01*
X125494368Y-131544838D01*
X125622593Y-131235276D01*
X125684363Y-131142830D01*
X125808747Y-130956676D01*
X126045676Y-130719747D01*
X126324275Y-130533594D01*
X126324276Y-130533593D01*
X126633838Y-130405368D01*
X126962465Y-130340000D01*
X127297535Y-130340000D01*
X127626162Y-130405368D01*
X127626162Y-130405368D01*
G37*
G36*
X172304168Y-130436435D02*
G01*
X172462204Y-130467870D01*
X172759937Y-130591196D01*
X173027889Y-130770236D01*
X173255764Y-130998111D01*
X173434804Y-131266063D01*
X173550277Y-131544837D01*
X173558130Y-131563797D01*
X173621000Y-131879867D01*
X173621000Y-132202133D01*
X173589565Y-132360168D01*
X173558130Y-132518204D01*
X173434804Y-132815937D01*
X173255764Y-133083889D01*
X173027889Y-133311764D01*
X172759937Y-133490804D01*
X172462204Y-133614130D01*
X172304168Y-133645565D01*
X172146133Y-133677000D01*
X171823867Y-133677000D01*
X171665832Y-133645565D01*
X171507796Y-133614130D01*
X171210063Y-133490804D01*
X170942111Y-133311764D01*
X170714236Y-133083889D01*
X170535196Y-132815937D01*
X170411870Y-132518204D01*
X170380435Y-132360168D01*
X170349000Y-132202133D01*
X170349000Y-131879867D01*
X170411870Y-131563797D01*
X170419724Y-131544837D01*
X170535196Y-131266063D01*
X170714236Y-130998111D01*
X170942111Y-130770236D01*
X171210063Y-130591196D01*
X171507796Y-130467870D01*
X171665832Y-130436435D01*
X171823867Y-130405000D01*
X172146133Y-130405000D01*
X172304168Y-130436435D01*
X172304168Y-130436435D01*
G37*
G36*
X118451000Y-133677000D02*
G01*
X115179000Y-133677000D01*
X115179000Y-130405000D01*
X118451000Y-130405000D01*
X118451000Y-133677000D01*
X118451000Y-133677000D01*
G37*
G36*
X129658499Y-113582445D02*
G01*
X129695995Y-113593820D01*
X129730554Y-113612292D01*
X129760847Y-113637153D01*
X129785708Y-113667446D01*
X129804180Y-113702005D01*
X129815555Y-113739501D01*
X129820000Y-113784638D01*
X129820000Y-114523362D01*
X129815555Y-114568499D01*
X129804180Y-114605995D01*
X129785708Y-114640554D01*
X129760847Y-114670847D01*
X129730554Y-114695708D01*
X129695995Y-114714180D01*
X129658499Y-114725555D01*
X129613362Y-114730000D01*
X128974638Y-114730000D01*
X128929501Y-114725555D01*
X128892005Y-114714180D01*
X128857446Y-114695708D01*
X128827153Y-114670847D01*
X128802292Y-114640554D01*
X128783820Y-114605995D01*
X128772445Y-114568499D01*
X128768000Y-114523362D01*
X128768000Y-113784638D01*
X128772445Y-113739501D01*
X128783820Y-113702005D01*
X128802292Y-113667446D01*
X128827153Y-113637153D01*
X128857446Y-113612292D01*
X128892005Y-113593820D01*
X128929501Y-113582445D01*
X128974638Y-113578000D01*
X129613362Y-113578000D01*
X129658499Y-113582445D01*
X129658499Y-113582445D01*
G37*
G36*
X171775256Y-110591298D02*
G01*
X171881579Y-110612447D01*
X172182042Y-110736903D01*
X172452451Y-110917585D01*
X172682415Y-111147549D01*
X172682416Y-111147551D01*
X172863098Y-111417960D01*
X172987553Y-111718422D01*
X173051000Y-112037389D01*
X173051000Y-112362611D01*
X172987553Y-112681578D01*
X172872236Y-112959980D01*
X172863097Y-112982042D01*
X172682415Y-113252451D01*
X172452451Y-113482415D01*
X172182042Y-113663097D01*
X171881579Y-113787553D01*
X171775256Y-113808702D01*
X171562611Y-113851000D01*
X171237389Y-113851000D01*
X171024744Y-113808702D01*
X170918421Y-113787553D01*
X170617958Y-113663097D01*
X170347549Y-113482415D01*
X170117585Y-113252451D01*
X169936903Y-112982042D01*
X169927765Y-112959980D01*
X169812447Y-112681578D01*
X169749000Y-112362611D01*
X169749000Y-112037389D01*
X169812447Y-111718422D01*
X169936902Y-111417960D01*
X170117584Y-111147551D01*
X170117585Y-111147549D01*
X170347549Y-110917585D01*
X170617958Y-110736903D01*
X170918421Y-110612447D01*
X171024744Y-110591298D01*
X171237389Y-110549000D01*
X171562611Y-110549000D01*
X171775256Y-110591298D01*
X171775256Y-110591298D01*
G37*
G36*
X117775256Y-110591298D02*
G01*
X117881579Y-110612447D01*
X118182042Y-110736903D01*
X118452451Y-110917585D01*
X118682415Y-111147549D01*
X118682416Y-111147551D01*
X118863098Y-111417960D01*
X118987553Y-111718422D01*
X119051000Y-112037389D01*
X119051000Y-112362611D01*
X118987553Y-112681578D01*
X118872236Y-112959980D01*
X118863097Y-112982042D01*
X118682415Y-113252451D01*
X118452451Y-113482415D01*
X118182042Y-113663097D01*
X117881579Y-113787553D01*
X117775256Y-113808702D01*
X117562611Y-113851000D01*
X117237389Y-113851000D01*
X117024744Y-113808702D01*
X116918421Y-113787553D01*
X116617958Y-113663097D01*
X116347549Y-113482415D01*
X116117585Y-113252451D01*
X115936903Y-112982042D01*
X115927765Y-112959980D01*
X115812447Y-112681578D01*
X115749000Y-112362611D01*
X115749000Y-112037389D01*
X115812447Y-111718422D01*
X115936902Y-111417960D01*
X116117584Y-111147551D01*
X116117585Y-111147549D01*
X116347549Y-110917585D01*
X116617958Y-110736903D01*
X116918421Y-110612447D01*
X117024744Y-110591298D01*
X117237389Y-110549000D01*
X117562611Y-110549000D01*
X117775256Y-110591298D01*
X117775256Y-110591298D01*
G37*
G36*
X129658499Y-111832445D02*
G01*
X129695995Y-111843820D01*
X129730554Y-111862292D01*
X129760847Y-111887153D01*
X129785708Y-111917446D01*
X129804180Y-111952005D01*
X129815555Y-111989501D01*
X129820000Y-112034638D01*
X129820000Y-112773362D01*
X129815555Y-112818499D01*
X129804180Y-112855995D01*
X129785708Y-112890554D01*
X129760847Y-112920847D01*
X129730554Y-112945708D01*
X129695995Y-112964180D01*
X129658499Y-112975555D01*
X129613362Y-112980000D01*
X128974638Y-112980000D01*
X128929501Y-112975555D01*
X128892005Y-112964180D01*
X128857446Y-112945708D01*
X128827153Y-112920847D01*
X128802292Y-112890554D01*
X128783820Y-112855995D01*
X128772445Y-112818499D01*
X128768000Y-112773362D01*
X128768000Y-112034638D01*
X128772445Y-111989501D01*
X128783820Y-111952005D01*
X128802292Y-111917446D01*
X128827153Y-111887153D01*
X128857446Y-111862292D01*
X128892005Y-111843820D01*
X128929501Y-111832445D01*
X128974638Y-111828000D01*
X129613362Y-111828000D01*
X129658499Y-111832445D01*
X129658499Y-111832445D01*
G37*
G36*
X128206500Y-112708000D02*
G01*
X126766500Y-112708000D01*
X126766500Y-111968000D01*
X128206500Y-111968000D01*
X128206500Y-112708000D01*
X128206500Y-112708000D01*
G37*
G36*
X126106500Y-111758000D02*
G01*
X124666500Y-111758000D01*
X124666500Y-111018000D01*
X126106500Y-111018000D01*
X126106500Y-111758000D01*
X126106500Y-111758000D01*
G37*
G36*
X130259500Y-111186500D02*
G01*
X128857500Y-111186500D01*
X128857500Y-109684500D01*
X130259500Y-109684500D01*
X130259500Y-111186500D01*
X130259500Y-111186500D01*
G37*
G36*
X133159500Y-111186500D02*
G01*
X131757500Y-111186500D01*
X131757500Y-109684500D01*
X133159500Y-109684500D01*
X133159500Y-111186500D01*
X133159500Y-111186500D01*
G37*
G36*
X147216794Y-109359133D02*
G01*
X147389195Y-109411431D01*
X147548083Y-109496358D01*
X147687349Y-109610651D01*
X147801642Y-109749917D01*
X147886569Y-109908805D01*
X147938867Y-110081206D01*
X147956525Y-110260500D01*
X147938867Y-110439794D01*
X147886569Y-110612195D01*
X147801642Y-110771083D01*
X147687349Y-110910349D01*
X147548083Y-111024642D01*
X147389195Y-111109569D01*
X147216794Y-111161867D01*
X147082431Y-111175100D01*
X146992569Y-111175100D01*
X146858206Y-111161867D01*
X146685805Y-111109569D01*
X146526917Y-111024642D01*
X146387651Y-110910349D01*
X146273358Y-110771083D01*
X146188431Y-110612195D01*
X146136133Y-110439794D01*
X146118475Y-110260500D01*
X146136133Y-110081206D01*
X146188431Y-109908805D01*
X146273358Y-109749917D01*
X146387651Y-109610651D01*
X146526917Y-109496358D01*
X146685805Y-109411431D01*
X146858206Y-109359133D01*
X146992569Y-109345900D01*
X147082431Y-109345900D01*
X147216794Y-109359133D01*
X147216794Y-109359133D01*
G37*
G36*
X144676794Y-109359133D02*
G01*
X144849195Y-109411431D01*
X145008083Y-109496358D01*
X145147349Y-109610651D01*
X145261642Y-109749917D01*
X145346569Y-109908805D01*
X145398867Y-110081206D01*
X145416525Y-110260500D01*
X145398867Y-110439794D01*
X145346569Y-110612195D01*
X145261642Y-110771083D01*
X145147349Y-110910349D01*
X145008083Y-111024642D01*
X144849195Y-111109569D01*
X144676794Y-111161867D01*
X144542431Y-111175100D01*
X144452569Y-111175100D01*
X144318206Y-111161867D01*
X144145805Y-111109569D01*
X143986917Y-111024642D01*
X143847651Y-110910349D01*
X143733358Y-110771083D01*
X143648431Y-110612195D01*
X143596133Y-110439794D01*
X143578475Y-110260500D01*
X143596133Y-110081206D01*
X143648431Y-109908805D01*
X143733358Y-109749917D01*
X143847651Y-109610651D01*
X143986917Y-109496358D01*
X144145805Y-109411431D01*
X144318206Y-109359133D01*
X144452569Y-109345900D01*
X144542431Y-109345900D01*
X144676794Y-109359133D01*
X144676794Y-109359133D01*
G37*
G36*
X142872100Y-111175100D02*
G01*
X141042900Y-111175100D01*
X141042900Y-109345900D01*
X142872100Y-109345900D01*
X142872100Y-111175100D01*
X142872100Y-111175100D01*
G37*
G36*
X128206500Y-110808000D02*
G01*
X126766500Y-110808000D01*
X126766500Y-110068000D01*
X128206500Y-110068000D01*
X128206500Y-110808000D01*
X128206500Y-110808000D01*
G37*
G36*
X144676794Y-106819133D02*
G01*
X144849195Y-106871431D01*
X145008083Y-106956358D01*
X145147349Y-107070651D01*
X145261642Y-107209917D01*
X145346569Y-107368805D01*
X145398867Y-107541206D01*
X145416525Y-107720500D01*
X145398867Y-107899794D01*
X145346569Y-108072195D01*
X145261642Y-108231083D01*
X145147349Y-108370349D01*
X145008083Y-108484642D01*
X144849195Y-108569569D01*
X144676794Y-108621867D01*
X144542431Y-108635100D01*
X144452569Y-108635100D01*
X144318206Y-108621867D01*
X144145805Y-108569569D01*
X143986917Y-108484642D01*
X143847651Y-108370349D01*
X143733358Y-108231083D01*
X143648431Y-108072195D01*
X143596133Y-107899794D01*
X143578475Y-107720500D01*
X143596133Y-107541206D01*
X143648431Y-107368805D01*
X143733358Y-107209917D01*
X143847651Y-107070651D01*
X143986917Y-106956358D01*
X144145805Y-106871431D01*
X144318206Y-106819133D01*
X144452569Y-106805900D01*
X144542431Y-106805900D01*
X144676794Y-106819133D01*
X144676794Y-106819133D01*
G37*
G36*
X147216794Y-106819133D02*
G01*
X147389195Y-106871431D01*
X147548083Y-106956358D01*
X147687349Y-107070651D01*
X147801642Y-107209917D01*
X147886569Y-107368805D01*
X147938867Y-107541206D01*
X147956525Y-107720500D01*
X147938867Y-107899794D01*
X147886569Y-108072195D01*
X147801642Y-108231083D01*
X147687349Y-108370349D01*
X147548083Y-108484642D01*
X147389195Y-108569569D01*
X147216794Y-108621867D01*
X147082431Y-108635100D01*
X146992569Y-108635100D01*
X146858206Y-108621867D01*
X146685805Y-108569569D01*
X146526917Y-108484642D01*
X146387651Y-108370349D01*
X146273358Y-108231083D01*
X146188431Y-108072195D01*
X146136133Y-107899794D01*
X146118475Y-107720500D01*
X146136133Y-107541206D01*
X146188431Y-107368805D01*
X146273358Y-107209917D01*
X146387651Y-107070651D01*
X146526917Y-106956358D01*
X146685805Y-106871431D01*
X146858206Y-106819133D01*
X146992569Y-106805900D01*
X147082431Y-106805900D01*
X147216794Y-106819133D01*
X147216794Y-106819133D01*
G37*
G36*
X142136794Y-106819133D02*
G01*
X142309195Y-106871431D01*
X142468083Y-106956358D01*
X142607349Y-107070651D01*
X142721642Y-107209917D01*
X142806569Y-107368805D01*
X142858867Y-107541206D01*
X142876525Y-107720500D01*
X142858867Y-107899794D01*
X142806569Y-108072195D01*
X142721642Y-108231083D01*
X142607349Y-108370349D01*
X142468083Y-108484642D01*
X142309195Y-108569569D01*
X142136794Y-108621867D01*
X142002431Y-108635100D01*
X141912569Y-108635100D01*
X141778206Y-108621867D01*
X141605805Y-108569569D01*
X141446917Y-108484642D01*
X141307651Y-108370349D01*
X141193358Y-108231083D01*
X141108431Y-108072195D01*
X141056133Y-107899794D01*
X141038475Y-107720500D01*
X141056133Y-107541206D01*
X141108431Y-107368805D01*
X141193358Y-107209917D01*
X141307651Y-107070651D01*
X141446917Y-106956358D01*
X141605805Y-106871431D01*
X141778206Y-106819133D01*
X141912569Y-106805900D01*
X142002431Y-106805900D01*
X142136794Y-106819133D01*
X142136794Y-106819133D01*
G37*
G36*
X130526499Y-105420945D02*
G01*
X130563995Y-105432320D01*
X130598554Y-105450792D01*
X130628847Y-105475653D01*
X130653708Y-105505946D01*
X130672180Y-105540505D01*
X130683555Y-105578001D01*
X130688000Y-105623138D01*
X130688000Y-106361862D01*
X130683555Y-106406999D01*
X130672180Y-106444495D01*
X130653708Y-106479054D01*
X130628847Y-106509347D01*
X130598554Y-106534208D01*
X130563995Y-106552680D01*
X130526499Y-106564055D01*
X130481362Y-106568500D01*
X129842638Y-106568500D01*
X129797501Y-106564055D01*
X129760005Y-106552680D01*
X129725446Y-106534208D01*
X129695153Y-106509347D01*
X129670292Y-106479054D01*
X129651820Y-106444495D01*
X129640445Y-106406999D01*
X129636000Y-106361862D01*
X129636000Y-105623138D01*
X129640445Y-105578001D01*
X129651820Y-105540505D01*
X129670292Y-105505946D01*
X129695153Y-105475653D01*
X129725446Y-105450792D01*
X129760005Y-105432320D01*
X129797501Y-105420945D01*
X129842638Y-105416500D01*
X130481362Y-105416500D01*
X130526499Y-105420945D01*
X130526499Y-105420945D01*
G37*
G36*
X127946000Y-106491500D02*
G01*
X127044000Y-106491500D01*
X127044000Y-105489500D01*
X127946000Y-105489500D01*
X127946000Y-106491500D01*
X127946000Y-106491500D01*
G37*
G36*
X159529499Y-105247945D02*
G01*
X159566995Y-105259320D01*
X159601554Y-105277792D01*
X159631847Y-105302653D01*
X159656708Y-105332946D01*
X159675180Y-105367505D01*
X159686555Y-105405001D01*
X159691000Y-105450138D01*
X159691000Y-106188862D01*
X159686555Y-106233999D01*
X159675180Y-106271495D01*
X159656708Y-106306054D01*
X159631847Y-106336347D01*
X159601554Y-106361208D01*
X159566995Y-106379680D01*
X159529499Y-106391055D01*
X159484362Y-106395500D01*
X158845638Y-106395500D01*
X158800501Y-106391055D01*
X158763005Y-106379680D01*
X158728446Y-106361208D01*
X158698153Y-106336347D01*
X158673292Y-106306054D01*
X158654820Y-106271495D01*
X158643445Y-106233999D01*
X158639000Y-106188862D01*
X158639000Y-105450138D01*
X158643445Y-105405001D01*
X158654820Y-105367505D01*
X158673292Y-105332946D01*
X158698153Y-105302653D01*
X158728446Y-105277792D01*
X158763005Y-105259320D01*
X158800501Y-105247945D01*
X158845638Y-105243500D01*
X159484362Y-105243500D01*
X159529499Y-105247945D01*
X159529499Y-105247945D01*
G37*
G36*
X124964499Y-105166445D02*
G01*
X125001995Y-105177820D01*
X125036554Y-105196292D01*
X125066847Y-105221153D01*
X125091708Y-105251446D01*
X125110180Y-105286005D01*
X125121555Y-105323501D01*
X125126000Y-105368638D01*
X125126000Y-106107362D01*
X125121555Y-106152499D01*
X125110180Y-106189995D01*
X125091708Y-106224554D01*
X125066847Y-106254847D01*
X125036554Y-106279708D01*
X125001995Y-106298180D01*
X124964499Y-106309555D01*
X124919362Y-106314000D01*
X124280638Y-106314000D01*
X124235501Y-106309555D01*
X124198005Y-106298180D01*
X124163446Y-106279708D01*
X124133153Y-106254847D01*
X124108292Y-106224554D01*
X124089820Y-106189995D01*
X124078445Y-106152499D01*
X124074000Y-106107362D01*
X124074000Y-105368638D01*
X124078445Y-105323501D01*
X124089820Y-105286005D01*
X124108292Y-105251446D01*
X124133153Y-105221153D01*
X124163446Y-105196292D01*
X124198005Y-105177820D01*
X124235501Y-105166445D01*
X124280638Y-105162000D01*
X124919362Y-105162000D01*
X124964499Y-105166445D01*
X124964499Y-105166445D01*
G37*
G36*
X161692500Y-106264500D02*
G01*
X160252500Y-106264500D01*
X160252500Y-105524500D01*
X161692500Y-105524500D01*
X161692500Y-106264500D01*
X161692500Y-106264500D01*
G37*
G36*
X165244499Y-104358945D02*
G01*
X165281995Y-104370320D01*
X165316554Y-104388792D01*
X165346847Y-104413653D01*
X165371708Y-104443946D01*
X165390180Y-104478505D01*
X165401555Y-104516001D01*
X165406000Y-104561138D01*
X165406000Y-105299862D01*
X165401555Y-105344999D01*
X165390180Y-105382495D01*
X165371708Y-105417054D01*
X165346847Y-105447347D01*
X165316554Y-105472208D01*
X165281995Y-105490680D01*
X165244499Y-105502055D01*
X165199362Y-105506500D01*
X164560638Y-105506500D01*
X164515501Y-105502055D01*
X164478005Y-105490680D01*
X164443446Y-105472208D01*
X164413153Y-105447347D01*
X164388292Y-105417054D01*
X164369820Y-105382495D01*
X164358445Y-105344999D01*
X164354000Y-105299862D01*
X164354000Y-104561138D01*
X164358445Y-104516001D01*
X164369820Y-104478505D01*
X164388292Y-104443946D01*
X164413153Y-104413653D01*
X164443446Y-104388792D01*
X164478005Y-104370320D01*
X164515501Y-104358945D01*
X164560638Y-104354500D01*
X165199362Y-104354500D01*
X165244499Y-104358945D01*
X165244499Y-104358945D01*
G37*
G36*
X166895499Y-104358945D02*
G01*
X166932995Y-104370320D01*
X166967554Y-104388792D01*
X166997847Y-104413653D01*
X167022708Y-104443946D01*
X167041180Y-104478505D01*
X167052555Y-104516001D01*
X167057000Y-104561138D01*
X167057000Y-105299862D01*
X167052555Y-105344999D01*
X167041180Y-105382495D01*
X167022708Y-105417054D01*
X166997847Y-105447347D01*
X166967554Y-105472208D01*
X166932995Y-105490680D01*
X166895499Y-105502055D01*
X166850362Y-105506500D01*
X166211638Y-105506500D01*
X166166501Y-105502055D01*
X166129005Y-105490680D01*
X166094446Y-105472208D01*
X166064153Y-105447347D01*
X166039292Y-105417054D01*
X166020820Y-105382495D01*
X166009445Y-105344999D01*
X166005000Y-105299862D01*
X166005000Y-104561138D01*
X166009445Y-104516001D01*
X166020820Y-104478505D01*
X166039292Y-104443946D01*
X166064153Y-104413653D01*
X166094446Y-104388792D01*
X166129005Y-104370320D01*
X166166501Y-104358945D01*
X166211638Y-104354500D01*
X166850362Y-104354500D01*
X166895499Y-104358945D01*
X166895499Y-104358945D01*
G37*
G36*
X163792500Y-105314500D02*
G01*
X162352500Y-105314500D01*
X162352500Y-104574500D01*
X163792500Y-104574500D01*
X163792500Y-105314500D01*
X163792500Y-105314500D01*
G37*
G36*
X120506564Y-102963389D02*
G01*
X120697833Y-103042615D01*
X120697835Y-103042616D01*
X120869973Y-103157635D01*
X121016365Y-103304027D01*
X121091887Y-103417053D01*
X121131385Y-103476167D01*
X121210611Y-103667436D01*
X121251000Y-103870484D01*
X121251000Y-104077516D01*
X121210611Y-104280564D01*
X121131385Y-104471833D01*
X121131384Y-104471835D01*
X121016365Y-104643973D01*
X120869973Y-104790365D01*
X120697835Y-104905384D01*
X120697834Y-104905385D01*
X120697833Y-104905385D01*
X120506564Y-104984611D01*
X120303516Y-105025000D01*
X120096484Y-105025000D01*
X119893436Y-104984611D01*
X119702167Y-104905385D01*
X119702166Y-104905385D01*
X119702165Y-104905384D01*
X119530027Y-104790365D01*
X119383635Y-104643973D01*
X119268616Y-104471835D01*
X119268615Y-104471833D01*
X119189389Y-104280564D01*
X119149000Y-104077516D01*
X119149000Y-103870484D01*
X119189389Y-103667436D01*
X119268615Y-103476167D01*
X119308114Y-103417053D01*
X119383635Y-103304027D01*
X119530027Y-103157635D01*
X119702165Y-103042616D01*
X119702167Y-103042615D01*
X119893436Y-102963389D01*
X120096484Y-102923000D01*
X120303516Y-102923000D01*
X120506564Y-102963389D01*
X120506564Y-102963389D01*
G37*
G36*
X115906564Y-102963389D02*
G01*
X116097833Y-103042615D01*
X116097835Y-103042616D01*
X116269973Y-103157635D01*
X116416365Y-103304027D01*
X116491887Y-103417053D01*
X116531385Y-103476167D01*
X116610611Y-103667436D01*
X116651000Y-103870484D01*
X116651000Y-104077516D01*
X116610611Y-104280564D01*
X116531385Y-104471833D01*
X116531384Y-104471835D01*
X116416365Y-104643973D01*
X116269973Y-104790365D01*
X116097835Y-104905384D01*
X116097834Y-104905385D01*
X116097833Y-104905385D01*
X115906564Y-104984611D01*
X115703516Y-105025000D01*
X115496484Y-105025000D01*
X115293436Y-104984611D01*
X115102167Y-104905385D01*
X115102166Y-104905385D01*
X115102165Y-104905384D01*
X114930027Y-104790365D01*
X114783635Y-104643973D01*
X114668616Y-104471835D01*
X114668615Y-104471833D01*
X114589389Y-104280564D01*
X114549000Y-104077516D01*
X114549000Y-103870484D01*
X114589389Y-103667436D01*
X114668615Y-103476167D01*
X114708114Y-103417053D01*
X114783635Y-103304027D01*
X114930027Y-103157635D01*
X115102165Y-103042616D01*
X115102167Y-103042615D01*
X115293436Y-102963389D01*
X115496484Y-102923000D01*
X115703516Y-102923000D01*
X115906564Y-102963389D01*
X115906564Y-102963389D01*
G37*
G36*
X130526499Y-103670945D02*
G01*
X130563995Y-103682320D01*
X130598554Y-103700792D01*
X130628847Y-103725653D01*
X130653708Y-103755946D01*
X130672180Y-103790505D01*
X130683555Y-103828001D01*
X130688000Y-103873138D01*
X130688000Y-104611862D01*
X130683555Y-104656999D01*
X130672180Y-104694495D01*
X130653708Y-104729054D01*
X130628847Y-104759347D01*
X130598554Y-104784208D01*
X130563995Y-104802680D01*
X130526499Y-104814055D01*
X130481362Y-104818500D01*
X129842638Y-104818500D01*
X129797501Y-104814055D01*
X129760005Y-104802680D01*
X129725446Y-104784208D01*
X129695153Y-104759347D01*
X129670292Y-104729054D01*
X129651820Y-104694495D01*
X129640445Y-104656999D01*
X129636000Y-104611862D01*
X129636000Y-103873138D01*
X129640445Y-103828001D01*
X129651820Y-103790505D01*
X129670292Y-103755946D01*
X129695153Y-103725653D01*
X129725446Y-103700792D01*
X129760005Y-103682320D01*
X129797501Y-103670945D01*
X129842638Y-103666500D01*
X130481362Y-103666500D01*
X130526499Y-103670945D01*
X130526499Y-103670945D01*
G37*
G36*
X159529499Y-103497945D02*
G01*
X159566995Y-103509320D01*
X159601554Y-103527792D01*
X159631847Y-103552653D01*
X159656708Y-103582946D01*
X159675180Y-103617505D01*
X159686555Y-103655001D01*
X159691000Y-103700138D01*
X159691000Y-104438862D01*
X159686555Y-104483999D01*
X159675180Y-104521495D01*
X159656708Y-104556054D01*
X159631847Y-104586347D01*
X159601554Y-104611208D01*
X159566995Y-104629680D01*
X159529499Y-104641055D01*
X159484362Y-104645500D01*
X158845638Y-104645500D01*
X158800501Y-104641055D01*
X158763005Y-104629680D01*
X158728446Y-104611208D01*
X158698153Y-104586347D01*
X158673292Y-104556054D01*
X158654820Y-104521495D01*
X158643445Y-104483999D01*
X158639000Y-104438862D01*
X158639000Y-103700138D01*
X158643445Y-103655001D01*
X158654820Y-103617505D01*
X158673292Y-103582946D01*
X158698153Y-103552653D01*
X158728446Y-103527792D01*
X158763005Y-103509320D01*
X158800501Y-103497945D01*
X158845638Y-103493500D01*
X159484362Y-103493500D01*
X159529499Y-103497945D01*
X159529499Y-103497945D01*
G37*
G36*
X124964499Y-103416445D02*
G01*
X125001995Y-103427820D01*
X125036554Y-103446292D01*
X125066847Y-103471153D01*
X125091708Y-103501446D01*
X125110180Y-103536005D01*
X125121555Y-103573501D01*
X125126000Y-103618638D01*
X125126000Y-104357362D01*
X125121555Y-104402499D01*
X125110180Y-104439995D01*
X125091708Y-104474554D01*
X125066847Y-104504847D01*
X125036554Y-104529708D01*
X125001995Y-104548180D01*
X124964499Y-104559555D01*
X124919362Y-104564000D01*
X124280638Y-104564000D01*
X124235501Y-104559555D01*
X124198005Y-104548180D01*
X124163446Y-104529708D01*
X124133153Y-104504847D01*
X124108292Y-104474554D01*
X124089820Y-104439995D01*
X124078445Y-104402499D01*
X124074000Y-104357362D01*
X124074000Y-103618638D01*
X124078445Y-103573501D01*
X124089820Y-103536005D01*
X124108292Y-103501446D01*
X124133153Y-103471153D01*
X124163446Y-103446292D01*
X124198005Y-103427820D01*
X124235501Y-103416445D01*
X124280638Y-103412000D01*
X124919362Y-103412000D01*
X124964499Y-103416445D01*
X124964499Y-103416445D01*
G37*
G36*
X128896000Y-104491500D02*
G01*
X127994000Y-104491500D01*
X127994000Y-103489500D01*
X128896000Y-103489500D01*
X128896000Y-104491500D01*
X128896000Y-104491500D01*
G37*
G36*
X126996000Y-104491500D02*
G01*
X126094000Y-104491500D01*
X126094000Y-103489500D01*
X126996000Y-103489500D01*
X126996000Y-104491500D01*
X126996000Y-104491500D01*
G37*
G36*
X161692500Y-104364500D02*
G01*
X160252500Y-104364500D01*
X160252500Y-103624500D01*
X161692500Y-103624500D01*
X161692500Y-104364500D01*
X161692500Y-104364500D01*
G37*
G36*
X165244499Y-102608945D02*
G01*
X165281995Y-102620320D01*
X165316554Y-102638792D01*
X165346847Y-102663653D01*
X165371708Y-102693946D01*
X165390180Y-102728505D01*
X165401555Y-102766001D01*
X165406000Y-102811138D01*
X165406000Y-103549862D01*
X165401555Y-103594999D01*
X165390180Y-103632495D01*
X165371708Y-103667054D01*
X165346847Y-103697347D01*
X165316554Y-103722208D01*
X165281995Y-103740680D01*
X165244499Y-103752055D01*
X165199362Y-103756500D01*
X164560638Y-103756500D01*
X164515501Y-103752055D01*
X164478005Y-103740680D01*
X164443446Y-103722208D01*
X164413153Y-103697347D01*
X164388292Y-103667054D01*
X164369820Y-103632495D01*
X164358445Y-103594999D01*
X164354000Y-103549862D01*
X164354000Y-102811138D01*
X164358445Y-102766001D01*
X164369820Y-102728505D01*
X164388292Y-102693946D01*
X164413153Y-102663653D01*
X164443446Y-102638792D01*
X164478005Y-102620320D01*
X164515501Y-102608945D01*
X164560638Y-102604500D01*
X165199362Y-102604500D01*
X165244499Y-102608945D01*
X165244499Y-102608945D01*
G37*
G36*
X166895499Y-102608945D02*
G01*
X166932995Y-102620320D01*
X166967554Y-102638792D01*
X166997847Y-102663653D01*
X167022708Y-102693946D01*
X167041180Y-102728505D01*
X167052555Y-102766001D01*
X167057000Y-102811138D01*
X167057000Y-103549862D01*
X167052555Y-103594999D01*
X167041180Y-103632495D01*
X167022708Y-103667054D01*
X166997847Y-103697347D01*
X166967554Y-103722208D01*
X166932995Y-103740680D01*
X166895499Y-103752055D01*
X166850362Y-103756500D01*
X166211638Y-103756500D01*
X166166501Y-103752055D01*
X166129005Y-103740680D01*
X166094446Y-103722208D01*
X166064153Y-103697347D01*
X166039292Y-103667054D01*
X166020820Y-103632495D01*
X166009445Y-103594999D01*
X166005000Y-103549862D01*
X166005000Y-102811138D01*
X166009445Y-102766001D01*
X166020820Y-102728505D01*
X166039292Y-102693946D01*
X166064153Y-102663653D01*
X166094446Y-102638792D01*
X166129005Y-102620320D01*
X166166501Y-102608945D01*
X166211638Y-102604500D01*
X166850362Y-102604500D01*
X166895499Y-102608945D01*
X166895499Y-102608945D01*
G37*
G36*
X147382136Y-101805481D02*
G01*
X147419632Y-101816856D01*
X147454191Y-101835328D01*
X147489255Y-101864104D01*
X147940896Y-102315745D01*
X147969672Y-102350809D01*
X147988144Y-102385368D01*
X147999519Y-102422864D01*
X148003359Y-102461863D01*
X147999519Y-102500862D01*
X147988144Y-102538358D01*
X147969672Y-102572917D01*
X147940896Y-102607981D01*
X147418545Y-103130332D01*
X147383481Y-103159108D01*
X147348922Y-103177580D01*
X147311426Y-103188955D01*
X147272427Y-103192795D01*
X147233428Y-103188955D01*
X147195932Y-103177580D01*
X147161373Y-103159108D01*
X147126309Y-103130332D01*
X146674668Y-102678691D01*
X146645892Y-102643627D01*
X146627420Y-102609068D01*
X146616045Y-102571572D01*
X146612205Y-102532573D01*
X146616045Y-102493574D01*
X146627420Y-102456078D01*
X146645892Y-102421519D01*
X146674668Y-102386455D01*
X147197019Y-101864104D01*
X147232083Y-101835328D01*
X147266642Y-101816856D01*
X147304138Y-101805481D01*
X147343137Y-101801641D01*
X147382136Y-101805481D01*
X147382136Y-101805481D01*
G37*
G36*
X159566499Y-101801445D02*
G01*
X159603995Y-101812820D01*
X159638554Y-101831292D01*
X159668847Y-101856153D01*
X159693708Y-101886446D01*
X159712180Y-101921005D01*
X159723555Y-101958501D01*
X159728000Y-102003638D01*
X159728000Y-102642362D01*
X159723555Y-102687499D01*
X159712180Y-102724995D01*
X159693708Y-102759554D01*
X159668847Y-102789847D01*
X159638554Y-102814708D01*
X159603995Y-102833180D01*
X159566499Y-102844555D01*
X159521362Y-102849000D01*
X158782638Y-102849000D01*
X158737501Y-102844555D01*
X158700005Y-102833180D01*
X158665446Y-102814708D01*
X158635153Y-102789847D01*
X158610292Y-102759554D01*
X158591820Y-102724995D01*
X158580445Y-102687499D01*
X158576000Y-102642362D01*
X158576000Y-102003638D01*
X158580445Y-101958501D01*
X158591820Y-101921005D01*
X158610292Y-101886446D01*
X158635153Y-101856153D01*
X158665446Y-101831292D01*
X158700005Y-101812820D01*
X158737501Y-101801445D01*
X158782638Y-101797000D01*
X159521362Y-101797000D01*
X159566499Y-101801445D01*
X159566499Y-101801445D01*
G37*
G36*
X157816499Y-101801445D02*
G01*
X157853995Y-101812820D01*
X157888554Y-101831292D01*
X157918847Y-101856153D01*
X157943708Y-101886446D01*
X157962180Y-101921005D01*
X157973555Y-101958501D01*
X157978000Y-102003638D01*
X157978000Y-102642362D01*
X157973555Y-102687499D01*
X157962180Y-102724995D01*
X157943708Y-102759554D01*
X157918847Y-102789847D01*
X157888554Y-102814708D01*
X157853995Y-102833180D01*
X157816499Y-102844555D01*
X157771362Y-102849000D01*
X157032638Y-102849000D01*
X156987501Y-102844555D01*
X156950005Y-102833180D01*
X156915446Y-102814708D01*
X156885153Y-102789847D01*
X156860292Y-102759554D01*
X156841820Y-102724995D01*
X156830445Y-102687499D01*
X156826000Y-102642362D01*
X156826000Y-102003638D01*
X156830445Y-101958501D01*
X156841820Y-101921005D01*
X156860292Y-101886446D01*
X156885153Y-101856153D01*
X156915446Y-101831292D01*
X156950005Y-101812820D01*
X156987501Y-101801445D01*
X157032638Y-101797000D01*
X157771362Y-101797000D01*
X157816499Y-101801445D01*
X157816499Y-101801445D01*
G37*
G36*
X148619572Y-100568045D02*
G01*
X148657068Y-100579420D01*
X148691627Y-100597892D01*
X148726691Y-100626668D01*
X149178332Y-101078309D01*
X149207108Y-101113373D01*
X149225580Y-101147932D01*
X149236955Y-101185428D01*
X149240795Y-101224427D01*
X149236955Y-101263426D01*
X149225580Y-101300922D01*
X149207108Y-101335481D01*
X149178332Y-101370545D01*
X148655981Y-101892896D01*
X148620917Y-101921672D01*
X148586358Y-101940144D01*
X148548862Y-101951519D01*
X148509863Y-101955359D01*
X148470864Y-101951519D01*
X148433368Y-101940144D01*
X148398809Y-101921672D01*
X148363745Y-101892896D01*
X147912104Y-101441255D01*
X147883328Y-101406191D01*
X147864856Y-101371632D01*
X147853481Y-101334136D01*
X147849641Y-101295137D01*
X147853481Y-101256138D01*
X147864856Y-101218642D01*
X147883328Y-101184083D01*
X147912104Y-101149019D01*
X148434455Y-100626668D01*
X148469519Y-100597892D01*
X148504078Y-100579420D01*
X148541574Y-100568045D01*
X148580573Y-100564205D01*
X148619572Y-100568045D01*
X148619572Y-100568045D01*
G37*
G36*
X147089023Y-98860036D02*
G01*
X147126716Y-98871470D01*
X147161452Y-98890037D01*
X147196665Y-98918935D01*
X147965065Y-99687335D01*
X147993963Y-99722548D01*
X148012530Y-99757284D01*
X148023964Y-99794977D01*
X148027824Y-99834172D01*
X148023964Y-99873367D01*
X148012530Y-99911060D01*
X147993963Y-99945796D01*
X147965065Y-99981009D01*
X147373441Y-100572633D01*
X147338228Y-100601531D01*
X147303492Y-100620098D01*
X147265799Y-100631532D01*
X147226604Y-100635392D01*
X147187409Y-100631532D01*
X147149716Y-100620098D01*
X147114980Y-100601531D01*
X147079767Y-100572633D01*
X146311367Y-99804233D01*
X146282469Y-99769020D01*
X146263902Y-99734284D01*
X146252468Y-99696591D01*
X146248608Y-99657396D01*
X146252468Y-99618201D01*
X146263902Y-99580508D01*
X146282469Y-99545772D01*
X146311367Y-99510559D01*
X146902991Y-98918935D01*
X146938204Y-98890037D01*
X146972940Y-98871470D01*
X147010633Y-98860036D01*
X147049828Y-98856176D01*
X147089023Y-98860036D01*
X147089023Y-98860036D01*
G37*
G36*
X148538591Y-97410468D02*
G01*
X148576284Y-97421902D01*
X148611020Y-97440469D01*
X148646233Y-97469367D01*
X149414633Y-98237767D01*
X149443531Y-98272980D01*
X149462098Y-98307716D01*
X149473532Y-98345409D01*
X149477392Y-98384604D01*
X149473532Y-98423799D01*
X149462098Y-98461492D01*
X149443531Y-98496228D01*
X149414633Y-98531441D01*
X148823009Y-99123065D01*
X148787796Y-99151963D01*
X148753060Y-99170530D01*
X148715367Y-99181964D01*
X148676172Y-99185824D01*
X148636977Y-99181964D01*
X148599284Y-99170530D01*
X148564548Y-99151963D01*
X148529335Y-99123065D01*
X147760935Y-98354665D01*
X147732037Y-98319452D01*
X147713470Y-98284716D01*
X147702036Y-98247023D01*
X147698176Y-98207828D01*
X147702036Y-98168633D01*
X147713470Y-98130940D01*
X147732037Y-98096204D01*
X147760935Y-98060991D01*
X148352559Y-97469367D01*
X148387772Y-97440469D01*
X148422508Y-97421902D01*
X148460201Y-97410468D01*
X148499396Y-97406608D01*
X148538591Y-97410468D01*
X148538591Y-97410468D01*
G37*
G36*
X146302636Y-97550981D02*
G01*
X146340132Y-97562356D01*
X146374691Y-97580828D01*
X146409755Y-97609604D01*
X146861396Y-98061245D01*
X146890172Y-98096309D01*
X146908644Y-98130868D01*
X146920019Y-98168364D01*
X146923859Y-98207363D01*
X146920019Y-98246362D01*
X146908644Y-98283858D01*
X146890172Y-98318417D01*
X146861396Y-98353481D01*
X146339045Y-98875832D01*
X146303981Y-98904608D01*
X146269422Y-98923080D01*
X146231926Y-98934455D01*
X146192927Y-98938295D01*
X146153928Y-98934455D01*
X146116432Y-98923080D01*
X146081873Y-98904608D01*
X146046809Y-98875832D01*
X145595168Y-98424191D01*
X145566392Y-98389127D01*
X145547920Y-98354568D01*
X145536545Y-98317072D01*
X145532705Y-98278073D01*
X145536545Y-98239074D01*
X145547920Y-98201578D01*
X145566392Y-98167019D01*
X145595168Y-98131955D01*
X146117519Y-97609604D01*
X146152583Y-97580828D01*
X146187142Y-97562356D01*
X146224638Y-97550981D01*
X146263637Y-97547141D01*
X146302636Y-97550981D01*
X146302636Y-97550981D01*
G37*
G36*
X133690523Y-96828036D02*
G01*
X133728216Y-96839470D01*
X133762952Y-96858037D01*
X133798165Y-96886935D01*
X134566565Y-97655335D01*
X134595463Y-97690548D01*
X134614030Y-97725284D01*
X134625464Y-97762977D01*
X134629324Y-97802172D01*
X134625464Y-97841367D01*
X134614030Y-97879060D01*
X134595463Y-97913796D01*
X134566565Y-97949009D01*
X133974941Y-98540633D01*
X133939728Y-98569531D01*
X133904992Y-98588098D01*
X133867299Y-98599532D01*
X133828104Y-98603392D01*
X133788909Y-98599532D01*
X133751216Y-98588098D01*
X133716480Y-98569531D01*
X133681267Y-98540633D01*
X132912867Y-97772233D01*
X132883969Y-97737020D01*
X132865402Y-97702284D01*
X132853968Y-97664591D01*
X132850108Y-97625396D01*
X132853968Y-97586201D01*
X132865402Y-97548508D01*
X132883969Y-97513772D01*
X132912867Y-97478559D01*
X133504491Y-96886935D01*
X133539704Y-96858037D01*
X133574440Y-96839470D01*
X133612133Y-96828036D01*
X133651328Y-96824176D01*
X133690523Y-96828036D01*
X133690523Y-96828036D01*
G37*
G36*
X149882362Y-96407981D02*
G01*
X149919858Y-96419356D01*
X149954417Y-96437828D01*
X149989481Y-96466604D01*
X150511832Y-96988955D01*
X150540608Y-97024019D01*
X150559080Y-97058578D01*
X150570455Y-97096074D01*
X150574295Y-97135073D01*
X150570455Y-97174072D01*
X150559080Y-97211568D01*
X150540608Y-97246127D01*
X150511832Y-97281191D01*
X150060191Y-97732832D01*
X150025127Y-97761608D01*
X149990568Y-97780080D01*
X149953072Y-97791455D01*
X149914073Y-97795295D01*
X149875074Y-97791455D01*
X149837578Y-97780080D01*
X149803019Y-97761608D01*
X149767955Y-97732832D01*
X149245604Y-97210481D01*
X149216828Y-97175417D01*
X149198356Y-97140858D01*
X149186981Y-97103362D01*
X149183141Y-97064363D01*
X149186981Y-97025364D01*
X149198356Y-96987868D01*
X149216828Y-96953309D01*
X149245604Y-96918245D01*
X149697245Y-96466604D01*
X149732309Y-96437828D01*
X149766868Y-96419356D01*
X149804364Y-96407981D01*
X149843363Y-96404141D01*
X149882362Y-96407981D01*
X149882362Y-96407981D01*
G37*
G36*
X154392564Y-95724389D02*
G01*
X154545961Y-95787928D01*
X154583835Y-95803616D01*
X154755973Y-95918635D01*
X154902365Y-96065027D01*
X154996405Y-96205767D01*
X155017385Y-96237167D01*
X155096611Y-96428436D01*
X155137000Y-96631484D01*
X155137000Y-96838516D01*
X155096611Y-97041564D01*
X155026643Y-97210481D01*
X155017384Y-97232835D01*
X154902365Y-97404973D01*
X154755973Y-97551365D01*
X154583835Y-97666384D01*
X154583834Y-97666385D01*
X154583833Y-97666385D01*
X154392564Y-97745611D01*
X154189516Y-97786000D01*
X153982484Y-97786000D01*
X153779436Y-97745611D01*
X153588167Y-97666385D01*
X153588166Y-97666385D01*
X153588165Y-97666384D01*
X153416027Y-97551365D01*
X153269635Y-97404973D01*
X153154616Y-97232835D01*
X153145357Y-97210481D01*
X153075389Y-97041564D01*
X153035000Y-96838516D01*
X153035000Y-96631484D01*
X153075389Y-96428436D01*
X153154615Y-96237167D01*
X153175596Y-96205767D01*
X153269635Y-96065027D01*
X153416027Y-95918635D01*
X153588165Y-95803616D01*
X153626039Y-95787928D01*
X153779436Y-95724389D01*
X153982484Y-95684000D01*
X154189516Y-95684000D01*
X154392564Y-95724389D01*
X154392564Y-95724389D01*
G37*
G36*
X147540072Y-96313545D02*
G01*
X147577568Y-96324920D01*
X147612127Y-96343392D01*
X147647191Y-96372168D01*
X148098832Y-96823809D01*
X148127608Y-96858873D01*
X148146080Y-96893432D01*
X148157455Y-96930928D01*
X148161295Y-96969927D01*
X148157455Y-97008926D01*
X148146080Y-97046422D01*
X148127608Y-97080981D01*
X148098832Y-97116045D01*
X147576481Y-97638396D01*
X147541417Y-97667172D01*
X147506858Y-97685644D01*
X147469362Y-97697019D01*
X147430363Y-97700859D01*
X147391364Y-97697019D01*
X147353868Y-97685644D01*
X147319309Y-97667172D01*
X147284245Y-97638396D01*
X146832604Y-97186755D01*
X146803828Y-97151691D01*
X146785356Y-97117132D01*
X146773981Y-97079636D01*
X146770141Y-97040637D01*
X146773981Y-97001638D01*
X146785356Y-96964142D01*
X146803828Y-96929583D01*
X146832604Y-96894519D01*
X147354955Y-96372168D01*
X147390019Y-96343392D01*
X147424578Y-96324920D01*
X147462074Y-96313545D01*
X147501073Y-96309705D01*
X147540072Y-96313545D01*
X147540072Y-96313545D01*
G37*
G36*
X135140091Y-95378468D02*
G01*
X135177784Y-95389902D01*
X135212520Y-95408469D01*
X135247733Y-95437367D01*
X136016133Y-96205767D01*
X136045031Y-96240980D01*
X136063598Y-96275716D01*
X136075032Y-96313409D01*
X136078892Y-96352604D01*
X136075032Y-96391799D01*
X136063598Y-96429492D01*
X136045031Y-96464228D01*
X136016133Y-96499441D01*
X135424509Y-97091065D01*
X135389296Y-97119963D01*
X135354560Y-97138530D01*
X135316867Y-97149964D01*
X135277672Y-97153824D01*
X135238477Y-97149964D01*
X135200784Y-97138530D01*
X135166048Y-97119963D01*
X135130835Y-97091065D01*
X134362435Y-96322665D01*
X134333537Y-96287452D01*
X134314970Y-96252716D01*
X134303536Y-96215023D01*
X134299676Y-96175828D01*
X134303536Y-96136633D01*
X134314970Y-96098940D01*
X134333537Y-96064204D01*
X134362435Y-96028991D01*
X134954059Y-95437367D01*
X134989272Y-95408469D01*
X135024008Y-95389902D01*
X135061701Y-95378468D01*
X135100896Y-95374608D01*
X135140091Y-95378468D01*
X135140091Y-95378468D01*
G37*
G36*
X140247162Y-91674074D02*
G01*
X140247162Y-91674075D01*
X140263426Y-91690339D01*
X140263432Y-91690344D01*
X140351814Y-91778726D01*
X140351814Y-91778725D01*
X140812848Y-92239759D01*
X140812848Y-92239760D01*
X140901230Y-92328142D01*
X140901235Y-92328148D01*
X140917499Y-92344412D01*
X140917499Y-92344411D01*
X141378533Y-92805445D01*
X141378533Y-92805446D01*
X141483184Y-92910097D01*
X141483184Y-92910096D01*
X141944218Y-93371130D01*
X141944218Y-93371131D01*
X142048870Y-93475783D01*
X142048870Y-93475782D01*
X142509904Y-93936816D01*
X142509904Y-93936817D01*
X142614555Y-94041468D01*
X142614555Y-94041467D01*
X143075589Y-94502501D01*
X143075589Y-94502502D01*
X143091853Y-94518766D01*
X143091859Y-94518771D01*
X143180241Y-94607153D01*
X143180241Y-94607152D01*
X143641275Y-95068186D01*
X143641275Y-95068187D01*
X143729657Y-95156569D01*
X143729662Y-95156575D01*
X143745926Y-95172839D01*
X143745926Y-95172838D01*
X144206960Y-95633872D01*
X143003464Y-96837368D01*
X142542430Y-96376334D01*
X142542431Y-96376334D01*
X142454049Y-96287952D01*
X142454044Y-96287946D01*
X142437780Y-96271682D01*
X142437779Y-96271682D01*
X141976745Y-95810648D01*
X141976746Y-95810648D01*
X141960482Y-95794384D01*
X141960476Y-95794379D01*
X141872094Y-95705997D01*
X141872093Y-95705997D01*
X141411059Y-95244963D01*
X141411060Y-95244963D01*
X141306409Y-95140312D01*
X141306408Y-95140312D01*
X140845374Y-94679278D01*
X140845375Y-94679278D01*
X140740723Y-94574626D01*
X140740722Y-94574626D01*
X140279688Y-94113592D01*
X140279689Y-94113592D01*
X140175038Y-94008941D01*
X140175037Y-94008941D01*
X139714003Y-93547907D01*
X139714004Y-93547907D01*
X139625622Y-93459525D01*
X139625617Y-93459519D01*
X139609353Y-93443255D01*
X139609352Y-93443255D01*
X139148318Y-92982221D01*
X139148319Y-92982221D01*
X139132055Y-92965957D01*
X139132049Y-92965952D01*
X139043667Y-92877570D01*
X139043666Y-92877570D01*
X138582632Y-92416536D01*
X139786128Y-91213040D01*
X140247162Y-91674074D01*
X140247162Y-91674074D01*
G37*
G36*
X150217368Y-92416536D02*
G01*
X149756334Y-92877570D01*
X149651682Y-92982221D01*
X149190648Y-93443255D01*
X149085997Y-93547907D01*
X146927907Y-95705997D01*
X146823255Y-95810648D01*
X146362221Y-96271682D01*
X146257570Y-96376334D01*
X145796536Y-96837368D01*
X144593040Y-95633872D01*
X145054074Y-95172838D01*
X145054075Y-95172839D01*
X145070339Y-95156575D01*
X145070348Y-95156564D01*
X145158726Y-95068187D01*
X145158725Y-95068186D01*
X145619759Y-94607152D01*
X145619760Y-94607153D01*
X145708137Y-94518775D01*
X145708148Y-94518766D01*
X145724412Y-94502502D01*
X145724411Y-94502501D01*
X146185445Y-94041467D01*
X146185446Y-94041468D01*
X146273833Y-93953080D01*
X146290097Y-93936817D01*
X146290096Y-93936816D01*
X146751130Y-93475782D01*
X146751131Y-93475783D01*
X146855783Y-93371131D01*
X146855782Y-93371130D01*
X147316816Y-92910096D01*
X147316817Y-92910097D01*
X147405204Y-92821709D01*
X147421468Y-92805446D01*
X147421467Y-92805445D01*
X147882501Y-92344411D01*
X147882502Y-92344412D01*
X147898766Y-92328148D01*
X147898775Y-92328137D01*
X147987153Y-92239760D01*
X147987152Y-92239759D01*
X148448186Y-91778725D01*
X148448187Y-91778726D01*
X148536564Y-91690348D01*
X148536575Y-91690339D01*
X148552839Y-91674075D01*
X148552838Y-91674074D01*
X149013872Y-91213040D01*
X150217368Y-92416536D01*
X150217368Y-92416536D01*
G37*
G36*
X148644926Y-95170545D02*
G01*
X148682422Y-95181920D01*
X148716981Y-95200392D01*
X148752045Y-95229168D01*
X149274396Y-95751519D01*
X149303172Y-95786583D01*
X149321644Y-95821142D01*
X149333019Y-95858638D01*
X149336859Y-95897637D01*
X149333019Y-95936636D01*
X149321644Y-95974132D01*
X149303172Y-96008691D01*
X149274396Y-96043755D01*
X148822755Y-96495396D01*
X148787691Y-96524172D01*
X148753132Y-96542644D01*
X148715636Y-96554019D01*
X148676637Y-96557859D01*
X148637638Y-96554019D01*
X148600142Y-96542644D01*
X148565583Y-96524172D01*
X148530519Y-96495396D01*
X148008168Y-95973045D01*
X147979392Y-95937981D01*
X147960920Y-95903422D01*
X147949545Y-95865926D01*
X147945705Y-95826927D01*
X147949545Y-95787928D01*
X147960920Y-95750432D01*
X147979392Y-95715873D01*
X148008168Y-95680809D01*
X148459809Y-95229168D01*
X148494873Y-95200392D01*
X148529432Y-95181920D01*
X148566928Y-95170545D01*
X148605927Y-95166705D01*
X148644926Y-95170545D01*
X148644926Y-95170545D01*
G37*
G36*
X136650636Y-94121981D02*
G01*
X136688132Y-94133356D01*
X136722691Y-94151828D01*
X136757755Y-94180604D01*
X137209396Y-94632245D01*
X137238172Y-94667309D01*
X137256644Y-94701868D01*
X137268019Y-94739364D01*
X137271859Y-94778363D01*
X137268019Y-94817362D01*
X137256644Y-94854858D01*
X137238172Y-94889417D01*
X137209396Y-94924481D01*
X136687045Y-95446832D01*
X136651981Y-95475608D01*
X136617422Y-95494080D01*
X136579926Y-95505455D01*
X136540927Y-95509295D01*
X136501928Y-95505455D01*
X136464432Y-95494080D01*
X136429873Y-95475608D01*
X136394809Y-95446832D01*
X135943168Y-94995191D01*
X135914392Y-94960127D01*
X135895920Y-94925568D01*
X135884545Y-94888072D01*
X135880705Y-94849073D01*
X135884545Y-94810074D01*
X135895920Y-94772578D01*
X135914392Y-94738019D01*
X135943168Y-94702955D01*
X136465519Y-94180604D01*
X136500583Y-94151828D01*
X136535142Y-94133356D01*
X136572638Y-94121981D01*
X136611637Y-94118141D01*
X136650636Y-94121981D01*
X136650636Y-94121981D01*
G37*
G36*
X158435499Y-94244445D02*
G01*
X158472995Y-94255820D01*
X158507554Y-94274292D01*
X158537847Y-94299153D01*
X158562708Y-94329446D01*
X158581180Y-94364005D01*
X158592555Y-94401501D01*
X158597000Y-94446638D01*
X158597000Y-95085362D01*
X158592555Y-95130499D01*
X158581180Y-95167995D01*
X158562708Y-95202554D01*
X158537847Y-95232847D01*
X158507554Y-95257708D01*
X158472995Y-95276180D01*
X158435499Y-95287555D01*
X158390362Y-95292000D01*
X157651638Y-95292000D01*
X157606501Y-95287555D01*
X157569005Y-95276180D01*
X157534446Y-95257708D01*
X157504153Y-95232847D01*
X157479292Y-95202554D01*
X157460820Y-95167995D01*
X157449445Y-95130499D01*
X157445000Y-95085362D01*
X157445000Y-94446638D01*
X157449445Y-94401501D01*
X157460820Y-94364005D01*
X157479292Y-94329446D01*
X157504153Y-94299153D01*
X157534446Y-94274292D01*
X157569005Y-94255820D01*
X157606501Y-94244445D01*
X157651638Y-94240000D01*
X158390362Y-94240000D01*
X158435499Y-94244445D01*
X158435499Y-94244445D01*
G37*
G36*
X160185499Y-94244445D02*
G01*
X160222995Y-94255820D01*
X160257554Y-94274292D01*
X160287847Y-94299153D01*
X160312708Y-94329446D01*
X160331180Y-94364005D01*
X160342555Y-94401501D01*
X160347000Y-94446638D01*
X160347000Y-95085362D01*
X160342555Y-95130499D01*
X160331180Y-95167995D01*
X160312708Y-95202554D01*
X160287847Y-95232847D01*
X160257554Y-95257708D01*
X160222995Y-95276180D01*
X160185499Y-95287555D01*
X160140362Y-95292000D01*
X159401638Y-95292000D01*
X159356501Y-95287555D01*
X159319005Y-95276180D01*
X159284446Y-95257708D01*
X159254153Y-95232847D01*
X159229292Y-95202554D01*
X159210820Y-95167995D01*
X159199445Y-95130499D01*
X159195000Y-95085362D01*
X159195000Y-94446638D01*
X159199445Y-94401501D01*
X159210820Y-94364005D01*
X159229292Y-94329446D01*
X159254153Y-94299153D01*
X159284446Y-94274292D01*
X159319005Y-94255820D01*
X159356501Y-94244445D01*
X159401638Y-94240000D01*
X160140362Y-94240000D01*
X160185499Y-94244445D01*
X160185499Y-94244445D01*
G37*
G36*
X161927499Y-94116945D02*
G01*
X161964995Y-94128320D01*
X161999554Y-94146792D01*
X162029847Y-94171653D01*
X162054708Y-94201946D01*
X162073180Y-94236505D01*
X162084555Y-94274001D01*
X162089000Y-94319138D01*
X162089000Y-95057862D01*
X162084555Y-95102999D01*
X162073180Y-95140495D01*
X162054708Y-95175054D01*
X162029847Y-95205347D01*
X161999554Y-95230208D01*
X161964995Y-95248680D01*
X161927499Y-95260055D01*
X161882362Y-95264500D01*
X161243638Y-95264500D01*
X161198501Y-95260055D01*
X161161005Y-95248680D01*
X161126446Y-95230208D01*
X161096153Y-95205347D01*
X161071292Y-95175054D01*
X161052820Y-95140495D01*
X161041445Y-95102999D01*
X161037000Y-95057862D01*
X161037000Y-94319138D01*
X161041445Y-94274001D01*
X161052820Y-94236505D01*
X161071292Y-94201946D01*
X161096153Y-94171653D01*
X161126446Y-94146792D01*
X161161005Y-94128320D01*
X161198501Y-94116945D01*
X161243638Y-94112500D01*
X161882362Y-94112500D01*
X161927499Y-94116945D01*
X161927499Y-94116945D01*
G37*
G36*
X137888072Y-92884545D02*
G01*
X137925568Y-92895920D01*
X137960127Y-92914392D01*
X137995191Y-92943168D01*
X138446832Y-93394809D01*
X138475608Y-93429873D01*
X138494080Y-93464432D01*
X138505455Y-93501928D01*
X138509295Y-93540927D01*
X138505455Y-93579926D01*
X138494080Y-93617422D01*
X138475608Y-93651981D01*
X138446832Y-93687045D01*
X137924481Y-94209396D01*
X137889417Y-94238172D01*
X137854858Y-94256644D01*
X137817362Y-94268019D01*
X137778363Y-94271859D01*
X137739364Y-94268019D01*
X137701868Y-94256644D01*
X137667309Y-94238172D01*
X137632245Y-94209396D01*
X137180604Y-93757755D01*
X137151828Y-93722691D01*
X137133356Y-93688132D01*
X137121981Y-93650636D01*
X137118141Y-93611637D01*
X137121981Y-93572638D01*
X137133356Y-93535142D01*
X137151828Y-93500583D01*
X137180604Y-93465519D01*
X137702955Y-92943168D01*
X137738019Y-92914392D01*
X137772578Y-92895920D01*
X137810074Y-92884545D01*
X137849073Y-92880705D01*
X137888072Y-92884545D01*
X137888072Y-92884545D01*
G37*
G36*
X161927499Y-92366945D02*
G01*
X161964995Y-92378320D01*
X161999554Y-92396792D01*
X162029847Y-92421653D01*
X162054708Y-92451946D01*
X162073180Y-92486505D01*
X162084555Y-92524001D01*
X162089000Y-92569138D01*
X162089000Y-93307862D01*
X162084555Y-93352999D01*
X162073180Y-93390495D01*
X162054708Y-93425054D01*
X162029847Y-93455347D01*
X161999554Y-93480208D01*
X161964995Y-93498680D01*
X161927499Y-93510055D01*
X161882362Y-93514500D01*
X161243638Y-93514500D01*
X161198501Y-93510055D01*
X161161005Y-93498680D01*
X161126446Y-93480208D01*
X161096153Y-93455347D01*
X161071292Y-93425054D01*
X161052820Y-93390495D01*
X161041445Y-93352999D01*
X161037000Y-93307862D01*
X161037000Y-92569138D01*
X161041445Y-92524001D01*
X161052820Y-92486505D01*
X161071292Y-92451946D01*
X161096153Y-92421653D01*
X161126446Y-92396792D01*
X161161005Y-92378320D01*
X161198501Y-92366945D01*
X161243638Y-92362500D01*
X161882362Y-92362500D01*
X161927499Y-92366945D01*
X161927499Y-92366945D01*
G37*
G36*
X165068500Y-93280500D02*
G01*
X162936500Y-93280500D01*
X162936500Y-92568500D01*
X165068500Y-92568500D01*
X165068500Y-93280500D01*
X165068500Y-93280500D01*
G37*
G36*
X169968500Y-93280500D02*
G01*
X167836500Y-93280500D01*
X167836500Y-92568500D01*
X169968500Y-92568500D01*
X169968500Y-93280500D01*
X169968500Y-93280500D01*
G37*
G36*
X131721362Y-91073981D02*
G01*
X131758858Y-91085356D01*
X131793417Y-91103828D01*
X131828481Y-91132604D01*
X132350832Y-91654955D01*
X132379608Y-91690019D01*
X132398080Y-91724578D01*
X132409455Y-91762074D01*
X132413295Y-91801073D01*
X132409455Y-91840072D01*
X132398080Y-91877568D01*
X132379608Y-91912127D01*
X132350832Y-91947191D01*
X131899191Y-92398832D01*
X131864127Y-92427608D01*
X131829568Y-92446080D01*
X131792072Y-92457455D01*
X131753073Y-92461295D01*
X131714074Y-92457455D01*
X131676578Y-92446080D01*
X131642019Y-92427608D01*
X131606955Y-92398832D01*
X131084604Y-91876481D01*
X131055828Y-91841417D01*
X131037356Y-91806858D01*
X131025981Y-91769362D01*
X131022141Y-91730363D01*
X131025981Y-91691364D01*
X131037356Y-91653868D01*
X131055828Y-91619309D01*
X131084604Y-91584245D01*
X131536245Y-91132604D01*
X131571309Y-91103828D01*
X131605868Y-91085356D01*
X131643364Y-91073981D01*
X131682363Y-91070141D01*
X131721362Y-91073981D01*
X131721362Y-91073981D01*
G37*
G36*
X169968500Y-92010500D02*
G01*
X167836500Y-92010500D01*
X167836500Y-91298500D01*
X169968500Y-91298500D01*
X169968500Y-92010500D01*
X169968500Y-92010500D01*
G37*
G36*
X165068500Y-92010500D02*
G01*
X162936500Y-92010500D01*
X162936500Y-91298500D01*
X165068500Y-91298500D01*
X165068500Y-92010500D01*
X165068500Y-92010500D01*
G37*
G36*
X161927499Y-90610445D02*
G01*
X161964995Y-90621820D01*
X161999554Y-90640292D01*
X162029847Y-90665153D01*
X162054708Y-90695446D01*
X162073180Y-90730005D01*
X162084555Y-90767501D01*
X162089000Y-90812638D01*
X162089000Y-91551362D01*
X162084555Y-91596499D01*
X162073180Y-91633995D01*
X162054708Y-91668554D01*
X162029847Y-91698847D01*
X161999554Y-91723708D01*
X161964995Y-91742180D01*
X161927499Y-91753555D01*
X161882362Y-91758000D01*
X161243638Y-91758000D01*
X161198501Y-91753555D01*
X161161005Y-91742180D01*
X161126446Y-91723708D01*
X161096153Y-91698847D01*
X161071292Y-91668554D01*
X161052820Y-91633995D01*
X161041445Y-91596499D01*
X161037000Y-91551362D01*
X161037000Y-90812638D01*
X161041445Y-90767501D01*
X161052820Y-90730005D01*
X161071292Y-90695446D01*
X161096153Y-90665153D01*
X161126446Y-90640292D01*
X161161005Y-90621820D01*
X161198501Y-90610445D01*
X161243638Y-90606000D01*
X161882362Y-90606000D01*
X161927499Y-90610445D01*
X161927499Y-90610445D01*
G37*
G36*
X135300719Y-89437386D02*
G01*
X133213340Y-91524765D01*
X131974489Y-90285914D01*
X134061868Y-88198535D01*
X135300719Y-89437386D01*
X135300719Y-89437386D01*
G37*
G36*
X130483926Y-89836545D02*
G01*
X130521422Y-89847920D01*
X130555981Y-89866392D01*
X130591045Y-89895168D01*
X131113396Y-90417519D01*
X131142172Y-90452583D01*
X131160644Y-90487142D01*
X131172019Y-90524638D01*
X131175859Y-90563637D01*
X131172019Y-90602636D01*
X131160644Y-90640132D01*
X131142172Y-90674691D01*
X131113396Y-90709755D01*
X130661755Y-91161396D01*
X130626691Y-91190172D01*
X130592132Y-91208644D01*
X130554636Y-91220019D01*
X130515637Y-91223859D01*
X130476638Y-91220019D01*
X130439142Y-91208644D01*
X130404583Y-91190172D01*
X130369519Y-91161396D01*
X129847168Y-90639045D01*
X129818392Y-90603981D01*
X129799920Y-90569422D01*
X129788545Y-90531926D01*
X129784705Y-90492927D01*
X129788545Y-90453928D01*
X129799920Y-90416432D01*
X129818392Y-90381873D01*
X129847168Y-90346809D01*
X130298809Y-89895168D01*
X130333873Y-89866392D01*
X130368432Y-89847920D01*
X130405928Y-89836545D01*
X130444927Y-89832705D01*
X130483926Y-89836545D01*
X130483926Y-89836545D01*
G37*
G36*
X144206960Y-86406128D02*
G01*
X143729662Y-86883426D01*
X143641275Y-86971814D01*
X143180241Y-87432848D01*
X143091853Y-87521235D01*
X142614555Y-87998533D01*
X142526167Y-88086920D01*
X142509904Y-88103184D01*
X141483184Y-89129904D01*
X141394796Y-89218291D01*
X141378533Y-89234555D01*
X140901235Y-89711853D01*
X140812848Y-89800241D01*
X140351814Y-90261275D01*
X140263426Y-90349662D01*
X139786128Y-90826960D01*
X138582632Y-89623464D01*
X139043666Y-89162430D01*
X139043667Y-89162431D01*
X139132044Y-89074053D01*
X139132055Y-89074044D01*
X139148319Y-89057780D01*
X139148318Y-89057779D01*
X139609352Y-88596745D01*
X139609353Y-88596746D01*
X139625617Y-88580482D01*
X139625626Y-88580471D01*
X139714004Y-88492094D01*
X139714003Y-88492093D01*
X140175037Y-88031059D01*
X140175038Y-88031060D01*
X140279689Y-87926409D01*
X140279688Y-87926408D01*
X140740722Y-87465374D01*
X140740723Y-87465375D01*
X140845375Y-87360723D01*
X140845374Y-87360722D01*
X141306408Y-86899688D01*
X141306409Y-86899689D01*
X141411060Y-86795038D01*
X141411059Y-86795037D01*
X141872093Y-86334003D01*
X141872094Y-86334004D01*
X141960471Y-86245626D01*
X141960482Y-86245617D01*
X141976746Y-86229353D01*
X141976745Y-86229352D01*
X142437779Y-85768318D01*
X142437780Y-85768319D01*
X142454044Y-85752055D01*
X142454053Y-85752044D01*
X142542431Y-85663667D01*
X142542430Y-85663666D01*
X143003464Y-85202632D01*
X144206960Y-86406128D01*
X144206960Y-86406128D01*
G37*
G36*
X146257570Y-85663666D02*
G01*
X146257570Y-85663667D01*
X146345952Y-85752049D01*
X146345957Y-85752055D01*
X146362221Y-85768319D01*
X146362221Y-85768318D01*
X146823255Y-86229352D01*
X146823255Y-86229353D01*
X146839519Y-86245617D01*
X146839525Y-86245622D01*
X146927907Y-86334004D01*
X146927907Y-86334003D01*
X147388941Y-86795037D01*
X147388941Y-86795038D01*
X147493592Y-86899689D01*
X147493592Y-86899688D01*
X147954626Y-87360722D01*
X147954626Y-87360723D01*
X148059278Y-87465375D01*
X148059278Y-87465374D01*
X148520312Y-87926408D01*
X148520312Y-87926409D01*
X148624963Y-88031060D01*
X148624963Y-88031059D01*
X149085997Y-88492093D01*
X149085997Y-88492094D01*
X149174379Y-88580476D01*
X149174384Y-88580482D01*
X149190648Y-88596746D01*
X149190648Y-88596745D01*
X149651682Y-89057779D01*
X149651682Y-89057780D01*
X149667946Y-89074044D01*
X149667952Y-89074049D01*
X149756334Y-89162431D01*
X149756334Y-89162430D01*
X150217368Y-89623464D01*
X149013872Y-90826960D01*
X148552838Y-90365926D01*
X148552839Y-90365926D01*
X148536575Y-90349662D01*
X148536569Y-90349657D01*
X148448187Y-90261275D01*
X148448186Y-90261275D01*
X147987152Y-89800241D01*
X147987153Y-89800241D01*
X147898771Y-89711859D01*
X147898766Y-89711853D01*
X147882502Y-89695589D01*
X147882501Y-89695589D01*
X147421467Y-89234555D01*
X147421468Y-89234555D01*
X147316817Y-89129904D01*
X147316816Y-89129904D01*
X146855782Y-88668870D01*
X146855783Y-88668870D01*
X146751131Y-88564218D01*
X146751130Y-88564218D01*
X146290096Y-88103184D01*
X146290097Y-88103184D01*
X146185446Y-87998533D01*
X146185445Y-87998533D01*
X145724411Y-87537499D01*
X145724412Y-87537499D01*
X145708148Y-87521235D01*
X145708142Y-87521230D01*
X145619760Y-87432848D01*
X145619759Y-87432848D01*
X145158725Y-86971814D01*
X145158726Y-86971814D01*
X145070344Y-86883432D01*
X145070339Y-86883426D01*
X145054075Y-86867162D01*
X145054074Y-86867162D01*
X144593040Y-86406128D01*
X145796536Y-85202632D01*
X146257570Y-85663666D01*
X146257570Y-85663666D01*
G37*
G36*
X165068500Y-90740500D02*
G01*
X162936500Y-90740500D01*
X162936500Y-90028500D01*
X165068500Y-90028500D01*
X165068500Y-90740500D01*
X165068500Y-90740500D01*
G37*
G36*
X169968500Y-90740500D02*
G01*
X167836500Y-90740500D01*
X167836500Y-90028500D01*
X169968500Y-90028500D01*
X169968500Y-90740500D01*
X169968500Y-90740500D01*
G37*
G36*
X161927499Y-88860445D02*
G01*
X161964995Y-88871820D01*
X161999554Y-88890292D01*
X162029847Y-88915153D01*
X162054708Y-88945446D01*
X162073180Y-88980005D01*
X162084555Y-89017501D01*
X162089000Y-89062638D01*
X162089000Y-89801362D01*
X162084555Y-89846499D01*
X162073180Y-89883995D01*
X162054708Y-89918554D01*
X162029847Y-89948847D01*
X161999554Y-89973708D01*
X161964995Y-89992180D01*
X161927499Y-90003555D01*
X161882362Y-90008000D01*
X161243638Y-90008000D01*
X161198501Y-90003555D01*
X161161005Y-89992180D01*
X161126446Y-89973708D01*
X161096153Y-89948847D01*
X161071292Y-89918554D01*
X161052820Y-89883995D01*
X161041445Y-89846499D01*
X161037000Y-89801362D01*
X161037000Y-89062638D01*
X161041445Y-89017501D01*
X161052820Y-88980005D01*
X161071292Y-88945446D01*
X161096153Y-88915153D01*
X161126446Y-88890292D01*
X161161005Y-88871820D01*
X161198501Y-88860445D01*
X161243638Y-88856000D01*
X161882362Y-88856000D01*
X161927499Y-88860445D01*
X161927499Y-88860445D01*
G37*
G36*
X154306564Y-87589389D02*
G01*
X154454845Y-87650809D01*
X154497835Y-87668616D01*
X154669973Y-87783635D01*
X154816365Y-87930027D01*
X154921198Y-88086920D01*
X154931385Y-88102167D01*
X155010611Y-88293436D01*
X155051000Y-88496484D01*
X155051000Y-88703516D01*
X155010611Y-88906564D01*
X154941235Y-89074053D01*
X154931384Y-89097835D01*
X154816365Y-89269973D01*
X154669973Y-89416365D01*
X154497835Y-89531384D01*
X154497834Y-89531385D01*
X154497833Y-89531385D01*
X154306564Y-89610611D01*
X154103516Y-89651000D01*
X153896484Y-89651000D01*
X153693436Y-89610611D01*
X153502167Y-89531385D01*
X153502166Y-89531385D01*
X153502165Y-89531384D01*
X153330027Y-89416365D01*
X153183635Y-89269973D01*
X153068616Y-89097835D01*
X153058765Y-89074053D01*
X152989389Y-88906564D01*
X152949000Y-88703516D01*
X152949000Y-88496484D01*
X152989389Y-88293436D01*
X153068615Y-88102167D01*
X153078803Y-88086920D01*
X153183635Y-87930027D01*
X153330027Y-87783635D01*
X153502165Y-87668616D01*
X153545155Y-87650809D01*
X153693436Y-87589389D01*
X153896484Y-87549000D01*
X154103516Y-87549000D01*
X154306564Y-87589389D01*
X154306564Y-87589389D01*
G37*
G36*
X133285465Y-87422132D02*
G01*
X131198086Y-89509511D01*
X129959235Y-88270660D01*
X132046614Y-86183281D01*
X133285465Y-87422132D01*
X133285465Y-87422132D01*
G37*
G36*
X165068500Y-89470500D02*
G01*
X162936500Y-89470500D01*
X162936500Y-88758500D01*
X165068500Y-88758500D01*
X165068500Y-89470500D01*
X165068500Y-89470500D01*
G37*
G36*
X169968500Y-89470500D02*
G01*
X167836500Y-89470500D01*
X167836500Y-88758500D01*
X169968500Y-88758500D01*
X169968500Y-89470500D01*
X169968500Y-89470500D01*
G37*
G36*
X138588765Y-86149340D02*
G01*
X136501386Y-88236719D01*
X135262535Y-86997868D01*
X137349914Y-84910489D01*
X138588765Y-86149340D01*
X138588765Y-86149340D01*
G37*
G36*
X171107499Y-86814945D02*
G01*
X171144995Y-86826320D01*
X171179554Y-86844792D01*
X171209847Y-86869653D01*
X171234708Y-86899946D01*
X171253180Y-86934505D01*
X171264555Y-86972001D01*
X171269000Y-87017138D01*
X171269000Y-87655862D01*
X171264555Y-87700999D01*
X171253180Y-87738495D01*
X171234708Y-87773054D01*
X171209847Y-87803347D01*
X171179554Y-87828208D01*
X171144995Y-87846680D01*
X171107499Y-87858055D01*
X171062362Y-87862500D01*
X170323638Y-87862500D01*
X170278501Y-87858055D01*
X170241005Y-87846680D01*
X170206446Y-87828208D01*
X170176153Y-87803347D01*
X170151292Y-87773054D01*
X170132820Y-87738495D01*
X170121445Y-87700999D01*
X170117000Y-87655862D01*
X170117000Y-87017138D01*
X170121445Y-86972001D01*
X170132820Y-86934505D01*
X170151292Y-86899946D01*
X170176153Y-86869653D01*
X170206446Y-86844792D01*
X170241005Y-86826320D01*
X170278501Y-86814945D01*
X170323638Y-86810500D01*
X171062362Y-86810500D01*
X171107499Y-86814945D01*
X171107499Y-86814945D01*
G37*
G36*
X162689999Y-86814945D02*
G01*
X162727495Y-86826320D01*
X162762054Y-86844792D01*
X162792347Y-86869653D01*
X162817208Y-86899946D01*
X162835680Y-86934505D01*
X162847055Y-86972001D01*
X162851500Y-87017138D01*
X162851500Y-87655862D01*
X162847055Y-87700999D01*
X162835680Y-87738495D01*
X162817208Y-87773054D01*
X162792347Y-87803347D01*
X162762054Y-87828208D01*
X162727495Y-87846680D01*
X162689999Y-87858055D01*
X162644862Y-87862500D01*
X161906138Y-87862500D01*
X161861001Y-87858055D01*
X161823505Y-87846680D01*
X161788946Y-87828208D01*
X161758653Y-87803347D01*
X161733792Y-87773054D01*
X161715320Y-87738495D01*
X161703945Y-87700999D01*
X161699500Y-87655862D01*
X161699500Y-87017138D01*
X161703945Y-86972001D01*
X161715320Y-86934505D01*
X161733792Y-86899946D01*
X161758653Y-86869653D01*
X161788946Y-86844792D01*
X161823505Y-86826320D01*
X161861001Y-86814945D01*
X161906138Y-86810500D01*
X162644862Y-86810500D01*
X162689999Y-86814945D01*
X162689999Y-86814945D01*
G37*
G36*
X164439999Y-86814945D02*
G01*
X164477495Y-86826320D01*
X164512054Y-86844792D01*
X164542347Y-86869653D01*
X164567208Y-86899946D01*
X164585680Y-86934505D01*
X164597055Y-86972001D01*
X164601500Y-87017138D01*
X164601500Y-87655862D01*
X164597055Y-87700999D01*
X164585680Y-87738495D01*
X164567208Y-87773054D01*
X164542347Y-87803347D01*
X164512054Y-87828208D01*
X164477495Y-87846680D01*
X164439999Y-87858055D01*
X164394862Y-87862500D01*
X163656138Y-87862500D01*
X163611001Y-87858055D01*
X163573505Y-87846680D01*
X163538946Y-87828208D01*
X163508653Y-87803347D01*
X163483792Y-87773054D01*
X163465320Y-87738495D01*
X163453945Y-87700999D01*
X163449500Y-87655862D01*
X163449500Y-87017138D01*
X163453945Y-86972001D01*
X163465320Y-86934505D01*
X163483792Y-86899946D01*
X163508653Y-86869653D01*
X163538946Y-86844792D01*
X163573505Y-86826320D01*
X163611001Y-86814945D01*
X163656138Y-86810500D01*
X164394862Y-86810500D01*
X164439999Y-86814945D01*
X164439999Y-86814945D01*
G37*
G36*
X169357499Y-86814945D02*
G01*
X169394995Y-86826320D01*
X169429554Y-86844792D01*
X169459847Y-86869653D01*
X169484708Y-86899946D01*
X169503180Y-86934505D01*
X169514555Y-86972001D01*
X169519000Y-87017138D01*
X169519000Y-87655862D01*
X169514555Y-87700999D01*
X169503180Y-87738495D01*
X169484708Y-87773054D01*
X169459847Y-87803347D01*
X169429554Y-87828208D01*
X169394995Y-87846680D01*
X169357499Y-87858055D01*
X169312362Y-87862500D01*
X168573638Y-87862500D01*
X168528501Y-87858055D01*
X168491005Y-87846680D01*
X168456446Y-87828208D01*
X168426153Y-87803347D01*
X168401292Y-87773054D01*
X168382820Y-87738495D01*
X168371445Y-87700999D01*
X168367000Y-87655862D01*
X168367000Y-87017138D01*
X168371445Y-86972001D01*
X168382820Y-86934505D01*
X168401292Y-86899946D01*
X168426153Y-86869653D01*
X168456446Y-86844792D01*
X168491005Y-86826320D01*
X168528501Y-86814945D01*
X168573638Y-86810500D01*
X169312362Y-86810500D01*
X169357499Y-86814945D01*
X169357499Y-86814945D01*
G37*
G36*
X140333636Y-85485981D02*
G01*
X140371132Y-85497356D01*
X140405691Y-85515828D01*
X140440755Y-85544604D01*
X140892396Y-85996245D01*
X140921172Y-86031309D01*
X140939644Y-86065868D01*
X140951019Y-86103364D01*
X140954859Y-86142363D01*
X140951019Y-86181362D01*
X140939644Y-86218858D01*
X140921172Y-86253417D01*
X140892396Y-86288481D01*
X140370045Y-86810832D01*
X140334981Y-86839608D01*
X140300422Y-86858080D01*
X140262926Y-86869455D01*
X140223927Y-86873295D01*
X140184928Y-86869455D01*
X140147432Y-86858080D01*
X140112873Y-86839608D01*
X140077809Y-86810832D01*
X139626168Y-86359191D01*
X139597392Y-86324127D01*
X139578920Y-86289568D01*
X139567545Y-86252072D01*
X139563705Y-86213073D01*
X139567545Y-86174074D01*
X139578920Y-86136578D01*
X139597392Y-86102019D01*
X139626168Y-86066955D01*
X140148519Y-85544604D01*
X140183583Y-85515828D01*
X140218142Y-85497356D01*
X140255638Y-85485981D01*
X140294637Y-85482141D01*
X140333636Y-85485981D01*
X140333636Y-85485981D01*
G37*
G36*
X136573511Y-84134086D02*
G01*
X134486132Y-86221465D01*
X133247281Y-84982614D01*
X135334660Y-82895235D01*
X136573511Y-84134086D01*
X136573511Y-84134086D01*
G37*
G36*
X153106564Y-83789389D02*
G01*
X153224940Y-83838422D01*
X153297835Y-83868616D01*
X153416486Y-83947896D01*
X153469973Y-83983635D01*
X153616365Y-84130027D01*
X153731385Y-84302167D01*
X153810611Y-84493436D01*
X153851000Y-84696484D01*
X153851000Y-84903516D01*
X153810611Y-85106564D01*
X153784037Y-85170719D01*
X153731384Y-85297835D01*
X153616365Y-85469973D01*
X153469973Y-85616365D01*
X153297835Y-85731384D01*
X153297834Y-85731385D01*
X153297833Y-85731385D01*
X153106564Y-85810611D01*
X152903516Y-85851000D01*
X152696484Y-85851000D01*
X152493436Y-85810611D01*
X152302167Y-85731385D01*
X152302166Y-85731385D01*
X152302165Y-85731384D01*
X152130027Y-85616365D01*
X151983635Y-85469973D01*
X151868616Y-85297835D01*
X151815963Y-85170719D01*
X151789389Y-85106564D01*
X151749000Y-84903516D01*
X151749000Y-84696484D01*
X151789389Y-84493436D01*
X151868615Y-84302167D01*
X151983635Y-84130027D01*
X152130027Y-83983635D01*
X152183514Y-83947896D01*
X152302165Y-83868616D01*
X152375060Y-83838422D01*
X152493436Y-83789389D01*
X152696484Y-83749000D01*
X152903516Y-83749000D01*
X153106564Y-83789389D01*
X153106564Y-83789389D01*
G37*
G36*
X139190636Y-84342981D02*
G01*
X139228132Y-84354356D01*
X139262691Y-84372828D01*
X139297755Y-84401604D01*
X139749396Y-84853245D01*
X139778172Y-84888309D01*
X139796644Y-84922868D01*
X139808019Y-84960364D01*
X139811859Y-84999363D01*
X139808019Y-85038362D01*
X139796644Y-85075858D01*
X139778172Y-85110417D01*
X139749396Y-85145481D01*
X139227045Y-85667832D01*
X139191981Y-85696608D01*
X139157422Y-85715080D01*
X139119926Y-85726455D01*
X139080927Y-85730295D01*
X139041928Y-85726455D01*
X139004432Y-85715080D01*
X138969873Y-85696608D01*
X138934809Y-85667832D01*
X138483168Y-85216191D01*
X138454392Y-85181127D01*
X138435920Y-85146568D01*
X138424545Y-85109072D01*
X138420705Y-85070073D01*
X138424545Y-85031074D01*
X138435920Y-84993578D01*
X138454392Y-84959019D01*
X138483168Y-84923955D01*
X139005519Y-84401604D01*
X139040583Y-84372828D01*
X139075142Y-84354356D01*
X139112638Y-84342981D01*
X139151637Y-84339141D01*
X139190636Y-84342981D01*
X139190636Y-84342981D01*
G37*
G36*
X141571072Y-84248545D02*
G01*
X141608568Y-84259920D01*
X141643127Y-84278392D01*
X141678191Y-84307168D01*
X142129832Y-84758809D01*
X142158608Y-84793873D01*
X142177080Y-84828432D01*
X142188455Y-84865928D01*
X142192295Y-84904927D01*
X142188455Y-84943926D01*
X142177080Y-84981422D01*
X142158608Y-85015981D01*
X142129832Y-85051045D01*
X141607481Y-85573396D01*
X141572417Y-85602172D01*
X141537858Y-85620644D01*
X141500362Y-85632019D01*
X141461363Y-85635859D01*
X141422364Y-85632019D01*
X141384868Y-85620644D01*
X141350309Y-85602172D01*
X141315245Y-85573396D01*
X140863604Y-85121755D01*
X140834828Y-85086691D01*
X140816356Y-85052132D01*
X140804981Y-85014636D01*
X140801141Y-84975637D01*
X140804981Y-84936638D01*
X140816356Y-84899142D01*
X140834828Y-84864583D01*
X140863604Y-84829519D01*
X141385955Y-84307168D01*
X141421019Y-84278392D01*
X141455578Y-84259920D01*
X141493074Y-84248545D01*
X141532073Y-84244705D01*
X141571072Y-84248545D01*
X141571072Y-84248545D01*
G37*
G36*
X140428072Y-83105545D02*
G01*
X140465568Y-83116920D01*
X140500127Y-83135392D01*
X140535191Y-83164168D01*
X140986832Y-83615809D01*
X141015608Y-83650873D01*
X141034080Y-83685432D01*
X141045455Y-83722928D01*
X141049295Y-83761927D01*
X141045455Y-83800926D01*
X141034080Y-83838422D01*
X141015608Y-83872981D01*
X140986832Y-83908045D01*
X140464481Y-84430396D01*
X140429417Y-84459172D01*
X140394858Y-84477644D01*
X140357362Y-84489019D01*
X140318363Y-84492859D01*
X140279364Y-84489019D01*
X140241868Y-84477644D01*
X140207309Y-84459172D01*
X140172245Y-84430396D01*
X139720604Y-83978755D01*
X139691828Y-83943691D01*
X139673356Y-83909132D01*
X139661981Y-83871636D01*
X139658141Y-83832637D01*
X139661981Y-83793638D01*
X139673356Y-83756142D01*
X139691828Y-83721583D01*
X139720604Y-83686519D01*
X140242955Y-83164168D01*
X140278019Y-83135392D01*
X140312578Y-83116920D01*
X140350074Y-83105545D01*
X140389073Y-83101705D01*
X140428072Y-83105545D01*
X140428072Y-83105545D01*
G37*
G36*
X136904636Y-82056981D02*
G01*
X136942132Y-82068356D01*
X136976691Y-82086828D01*
X137011755Y-82115604D01*
X137463396Y-82567245D01*
X137492172Y-82602309D01*
X137510644Y-82636868D01*
X137522019Y-82674364D01*
X137525859Y-82713363D01*
X137522019Y-82752362D01*
X137510644Y-82789858D01*
X137492172Y-82824417D01*
X137463396Y-82859481D01*
X136941045Y-83381832D01*
X136905981Y-83410608D01*
X136871422Y-83429080D01*
X136833926Y-83440455D01*
X136794927Y-83444295D01*
X136755928Y-83440455D01*
X136718432Y-83429080D01*
X136683873Y-83410608D01*
X136648809Y-83381832D01*
X136197168Y-82930191D01*
X136168392Y-82895127D01*
X136149920Y-82860568D01*
X136138545Y-82823072D01*
X136134705Y-82784073D01*
X136138545Y-82745074D01*
X136149920Y-82707578D01*
X136168392Y-82673019D01*
X136197168Y-82637955D01*
X136719519Y-82115604D01*
X136754583Y-82086828D01*
X136789142Y-82068356D01*
X136826638Y-82056981D01*
X136865637Y-82053141D01*
X136904636Y-82056981D01*
X136904636Y-82056981D01*
G37*
G36*
X138142072Y-80819545D02*
G01*
X138179568Y-80830920D01*
X138214127Y-80849392D01*
X138249191Y-80878168D01*
X138700832Y-81329809D01*
X138729608Y-81364873D01*
X138748080Y-81399432D01*
X138759455Y-81436928D01*
X138763295Y-81475927D01*
X138759455Y-81514926D01*
X138748080Y-81552422D01*
X138729608Y-81586981D01*
X138700832Y-81622045D01*
X138178481Y-82144396D01*
X138143417Y-82173172D01*
X138108858Y-82191644D01*
X138071362Y-82203019D01*
X138032363Y-82206859D01*
X137993364Y-82203019D01*
X137955868Y-82191644D01*
X137921309Y-82173172D01*
X137886245Y-82144396D01*
X137434604Y-81692755D01*
X137405828Y-81657691D01*
X137387356Y-81623132D01*
X137375981Y-81585636D01*
X137372141Y-81546637D01*
X137375981Y-81507638D01*
X137387356Y-81470142D01*
X137405828Y-81435583D01*
X137434604Y-81400519D01*
X137956955Y-80878168D01*
X137992019Y-80849392D01*
X138026578Y-80830920D01*
X138064074Y-80819545D01*
X138103073Y-80815705D01*
X138142072Y-80819545D01*
X138142072Y-80819545D01*
G37*
G36*
X147013000Y-80537000D02*
G01*
X145411000Y-80537000D01*
X145411000Y-78135000D01*
X147013000Y-78135000D01*
X147013000Y-80537000D01*
X147013000Y-80537000D01*
G37*
G36*
X149934000Y-80537000D02*
G01*
X148332000Y-80537000D01*
X148332000Y-78135000D01*
X149934000Y-78135000D01*
X149934000Y-80537000D01*
X149934000Y-80537000D01*
G37*
G36*
X152868564Y-78452389D02*
G01*
X153059833Y-78531615D01*
X153059835Y-78531616D01*
X153231973Y-78646635D01*
X153378365Y-78793027D01*
X153493385Y-78965167D01*
X153572611Y-79156436D01*
X153613000Y-79359484D01*
X153613000Y-79566516D01*
X153572611Y-79769564D01*
X153493385Y-79960833D01*
X153493384Y-79960835D01*
X153378365Y-80132973D01*
X153231973Y-80279365D01*
X153059835Y-80394384D01*
X153059834Y-80394385D01*
X153059833Y-80394385D01*
X152868564Y-80473611D01*
X152665516Y-80514000D01*
X152458484Y-80514000D01*
X152255436Y-80473611D01*
X152064167Y-80394385D01*
X152064166Y-80394385D01*
X152064165Y-80394384D01*
X151892027Y-80279365D01*
X151745635Y-80132973D01*
X151630616Y-79960835D01*
X151630615Y-79960833D01*
X151551389Y-79769564D01*
X151511000Y-79566516D01*
X151511000Y-79359484D01*
X151551389Y-79156436D01*
X151630615Y-78965167D01*
X151745635Y-78793027D01*
X151892027Y-78646635D01*
X152064165Y-78531616D01*
X152064167Y-78531615D01*
X152255436Y-78452389D01*
X152458484Y-78412000D01*
X152665516Y-78412000D01*
X152868564Y-78452389D01*
X152868564Y-78452389D01*
G37*
G36*
X143089564Y-78452389D02*
G01*
X143280833Y-78531615D01*
X143280835Y-78531616D01*
X143452973Y-78646635D01*
X143599365Y-78793027D01*
X143714385Y-78965167D01*
X143793611Y-79156436D01*
X143834000Y-79359484D01*
X143834000Y-79566516D01*
X143793611Y-79769564D01*
X143714385Y-79960833D01*
X143714384Y-79960835D01*
X143599365Y-80132973D01*
X143452973Y-80279365D01*
X143280835Y-80394384D01*
X143280834Y-80394385D01*
X143280833Y-80394385D01*
X143089564Y-80473611D01*
X142886516Y-80514000D01*
X142679484Y-80514000D01*
X142476436Y-80473611D01*
X142285167Y-80394385D01*
X142285166Y-80394385D01*
X142285165Y-80394384D01*
X142113027Y-80279365D01*
X141966635Y-80132973D01*
X141851616Y-79960835D01*
X141851615Y-79960833D01*
X141772389Y-79769564D01*
X141732000Y-79566516D01*
X141732000Y-79359484D01*
X141772389Y-79156436D01*
X141851615Y-78965167D01*
X141966635Y-78793027D01*
X142113027Y-78646635D01*
X142285165Y-78531616D01*
X142285167Y-78531615D01*
X142476436Y-78452389D01*
X142679484Y-78412000D01*
X142886516Y-78412000D01*
X143089564Y-78452389D01*
X143089564Y-78452389D01*
G37*
G36*
X157440564Y-75023389D02*
G01*
X157631833Y-75102615D01*
X157631835Y-75102616D01*
X157771594Y-75196000D01*
X157803973Y-75217635D01*
X157950365Y-75364027D01*
X158065385Y-75536167D01*
X158144611Y-75727436D01*
X158185000Y-75930484D01*
X158185000Y-76137516D01*
X158144611Y-76340564D01*
X158065385Y-76531833D01*
X158065384Y-76531835D01*
X157950365Y-76703973D01*
X157803973Y-76850365D01*
X157631835Y-76965384D01*
X157631834Y-76965385D01*
X157631833Y-76965385D01*
X157440564Y-77044611D01*
X157237516Y-77085000D01*
X157030484Y-77085000D01*
X156827436Y-77044611D01*
X156636167Y-76965385D01*
X156636166Y-76965385D01*
X156636165Y-76965384D01*
X156464027Y-76850365D01*
X156317635Y-76703973D01*
X156202616Y-76531835D01*
X156202615Y-76531833D01*
X156123389Y-76340564D01*
X156083000Y-76137516D01*
X156083000Y-75930484D01*
X156123389Y-75727436D01*
X156202615Y-75536167D01*
X156317635Y-75364027D01*
X156464027Y-75217635D01*
X156496406Y-75196000D01*
X156636165Y-75102616D01*
X156636167Y-75102615D01*
X156827436Y-75023389D01*
X157030484Y-74983000D01*
X157237516Y-74983000D01*
X157440564Y-75023389D01*
X157440564Y-75023389D01*
G37*
G36*
X154103000Y-75196000D02*
G01*
X152477000Y-75196000D01*
X152477000Y-49948000D01*
X154103000Y-49948000D01*
X154103000Y-75196000D01*
X154103000Y-75196000D01*
G37*
G36*
X136323000Y-75196000D02*
G01*
X134697000Y-75196000D01*
X134697000Y-49948000D01*
X136323000Y-49948000D01*
X136323000Y-75196000D01*
X136323000Y-75196000D01*
G37*
G36*
X157440564Y-71086389D02*
G01*
X157631833Y-71165615D01*
X157631835Y-71165616D01*
X157803973Y-71280635D01*
X157950365Y-71427027D01*
X158065385Y-71599167D01*
X158144611Y-71790436D01*
X158185000Y-71993484D01*
X158185000Y-72200516D01*
X158144611Y-72403564D01*
X158065385Y-72594833D01*
X158065384Y-72594835D01*
X157950365Y-72766973D01*
X157803973Y-72913365D01*
X157631835Y-73028384D01*
X157631834Y-73028385D01*
X157631833Y-73028385D01*
X157440564Y-73107611D01*
X157237516Y-73148000D01*
X157030484Y-73148000D01*
X156827436Y-73107611D01*
X156636167Y-73028385D01*
X156636166Y-73028385D01*
X156636165Y-73028384D01*
X156464027Y-72913365D01*
X156317635Y-72766973D01*
X156202616Y-72594835D01*
X156202615Y-72594833D01*
X156123389Y-72403564D01*
X156083000Y-72200516D01*
X156083000Y-71993484D01*
X156123389Y-71790436D01*
X156202615Y-71599167D01*
X156317635Y-71427027D01*
X156464027Y-71280635D01*
X156636165Y-71165616D01*
X156636167Y-71165615D01*
X156827436Y-71086389D01*
X157030484Y-71046000D01*
X157237516Y-71046000D01*
X157440564Y-71086389D01*
X157440564Y-71086389D01*
G37*
G36*
X155720499Y-60081445D02*
G01*
X155757995Y-60092820D01*
X155792554Y-60111292D01*
X155822847Y-60136153D01*
X155847708Y-60166446D01*
X155866180Y-60201005D01*
X155877555Y-60238501D01*
X155882000Y-60283638D01*
X155882000Y-61022362D01*
X155877555Y-61067499D01*
X155866180Y-61104995D01*
X155847708Y-61139554D01*
X155822847Y-61169847D01*
X155792554Y-61194708D01*
X155757995Y-61213180D01*
X155720499Y-61224555D01*
X155675362Y-61229000D01*
X155036638Y-61229000D01*
X154991501Y-61224555D01*
X154954005Y-61213180D01*
X154919446Y-61194708D01*
X154889153Y-61169847D01*
X154864292Y-61139554D01*
X154845820Y-61104995D01*
X154834445Y-61067499D01*
X154830000Y-61022362D01*
X154830000Y-60283638D01*
X154834445Y-60238501D01*
X154845820Y-60201005D01*
X154864292Y-60166446D01*
X154889153Y-60136153D01*
X154919446Y-60111292D01*
X154954005Y-60092820D01*
X154991501Y-60081445D01*
X155036638Y-60077000D01*
X155675362Y-60077000D01*
X155720499Y-60081445D01*
X155720499Y-60081445D01*
G37*
G36*
X157371499Y-60081445D02*
G01*
X157408995Y-60092820D01*
X157443554Y-60111292D01*
X157473847Y-60136153D01*
X157498708Y-60166446D01*
X157517180Y-60201005D01*
X157528555Y-60238501D01*
X157533000Y-60283638D01*
X157533000Y-61022362D01*
X157528555Y-61067499D01*
X157517180Y-61104995D01*
X157498708Y-61139554D01*
X157473847Y-61169847D01*
X157443554Y-61194708D01*
X157408995Y-61213180D01*
X157371499Y-61224555D01*
X157326362Y-61229000D01*
X156687638Y-61229000D01*
X156642501Y-61224555D01*
X156605005Y-61213180D01*
X156570446Y-61194708D01*
X156540153Y-61169847D01*
X156515292Y-61139554D01*
X156496820Y-61104995D01*
X156485445Y-61067499D01*
X156481000Y-61022362D01*
X156481000Y-60283638D01*
X156485445Y-60238501D01*
X156496820Y-60201005D01*
X156515292Y-60166446D01*
X156540153Y-60136153D01*
X156570446Y-60111292D01*
X156605005Y-60092820D01*
X156642501Y-60081445D01*
X156687638Y-60077000D01*
X157326362Y-60077000D01*
X157371499Y-60081445D01*
X157371499Y-60081445D01*
G37*
G36*
X155720499Y-58331445D02*
G01*
X155757995Y-58342820D01*
X155792554Y-58361292D01*
X155822847Y-58386153D01*
X155847708Y-58416446D01*
X155866180Y-58451005D01*
X155877555Y-58488501D01*
X155882000Y-58533638D01*
X155882000Y-59272362D01*
X155877555Y-59317499D01*
X155866180Y-59354995D01*
X155847708Y-59389554D01*
X155822847Y-59419847D01*
X155792554Y-59444708D01*
X155757995Y-59463180D01*
X155720499Y-59474555D01*
X155675362Y-59479000D01*
X155036638Y-59479000D01*
X154991501Y-59474555D01*
X154954005Y-59463180D01*
X154919446Y-59444708D01*
X154889153Y-59419847D01*
X154864292Y-59389554D01*
X154845820Y-59354995D01*
X154834445Y-59317499D01*
X154830000Y-59272362D01*
X154830000Y-58533638D01*
X154834445Y-58488501D01*
X154845820Y-58451005D01*
X154864292Y-58416446D01*
X154889153Y-58386153D01*
X154919446Y-58361292D01*
X154954005Y-58342820D01*
X154991501Y-58331445D01*
X155036638Y-58327000D01*
X155675362Y-58327000D01*
X155720499Y-58331445D01*
X155720499Y-58331445D01*
G37*
G36*
X157371499Y-58331445D02*
G01*
X157408995Y-58342820D01*
X157443554Y-58361292D01*
X157473847Y-58386153D01*
X157498708Y-58416446D01*
X157517180Y-58451005D01*
X157528555Y-58488501D01*
X157533000Y-58533638D01*
X157533000Y-59272362D01*
X157528555Y-59317499D01*
X157517180Y-59354995D01*
X157498708Y-59389554D01*
X157473847Y-59419847D01*
X157443554Y-59444708D01*
X157408995Y-59463180D01*
X157371499Y-59474555D01*
X157326362Y-59479000D01*
X156687638Y-59479000D01*
X156642501Y-59474555D01*
X156605005Y-59463180D01*
X156570446Y-59444708D01*
X156540153Y-59419847D01*
X156515292Y-59389554D01*
X156496820Y-59354995D01*
X156485445Y-59317499D01*
X156481000Y-59272362D01*
X156481000Y-58533638D01*
X156485445Y-58488501D01*
X156496820Y-58451005D01*
X156515292Y-58416446D01*
X156540153Y-58386153D01*
X156570446Y-58361292D01*
X156605005Y-58342820D01*
X156642501Y-58331445D01*
X156687638Y-58327000D01*
X157326362Y-58327000D01*
X157371499Y-58331445D01*
X157371499Y-58331445D01*
G37*
G36*
X134130499Y-57541445D02*
G01*
X134167995Y-57552820D01*
X134202554Y-57571292D01*
X134232847Y-57596153D01*
X134257708Y-57626446D01*
X134276180Y-57661005D01*
X134287555Y-57698501D01*
X134292000Y-57743638D01*
X134292000Y-58482362D01*
X134287555Y-58527499D01*
X134276180Y-58564995D01*
X134257708Y-58599554D01*
X134232847Y-58629847D01*
X134202554Y-58654708D01*
X134167995Y-58673180D01*
X134130499Y-58684555D01*
X134085362Y-58689000D01*
X133446638Y-58689000D01*
X133401501Y-58684555D01*
X133364005Y-58673180D01*
X133329446Y-58654708D01*
X133299153Y-58629847D01*
X133274292Y-58599554D01*
X133255820Y-58564995D01*
X133244445Y-58527499D01*
X133240000Y-58482362D01*
X133240000Y-57743638D01*
X133244445Y-57698501D01*
X133255820Y-57661005D01*
X133274292Y-57626446D01*
X133299153Y-57596153D01*
X133329446Y-57571292D01*
X133364005Y-57552820D01*
X133401501Y-57541445D01*
X133446638Y-57537000D01*
X134085362Y-57537000D01*
X134130499Y-57541445D01*
X134130499Y-57541445D01*
G37*
G36*
X132479499Y-57541445D02*
G01*
X132516995Y-57552820D01*
X132551554Y-57571292D01*
X132581847Y-57596153D01*
X132606708Y-57626446D01*
X132625180Y-57661005D01*
X132636555Y-57698501D01*
X132641000Y-57743638D01*
X132641000Y-58482362D01*
X132636555Y-58527499D01*
X132625180Y-58564995D01*
X132606708Y-58599554D01*
X132581847Y-58629847D01*
X132551554Y-58654708D01*
X132516995Y-58673180D01*
X132479499Y-58684555D01*
X132434362Y-58689000D01*
X131795638Y-58689000D01*
X131750501Y-58684555D01*
X131713005Y-58673180D01*
X131678446Y-58654708D01*
X131648153Y-58629847D01*
X131623292Y-58599554D01*
X131604820Y-58564995D01*
X131593445Y-58527499D01*
X131589000Y-58482362D01*
X131589000Y-57743638D01*
X131593445Y-57698501D01*
X131604820Y-57661005D01*
X131623292Y-57626446D01*
X131648153Y-57596153D01*
X131678446Y-57571292D01*
X131713005Y-57552820D01*
X131750501Y-57541445D01*
X131795638Y-57537000D01*
X132434362Y-57537000D01*
X132479499Y-57541445D01*
X132479499Y-57541445D01*
G37*
G36*
X132479499Y-55791445D02*
G01*
X132516995Y-55802820D01*
X132551554Y-55821292D01*
X132581847Y-55846153D01*
X132606708Y-55876446D01*
X132625180Y-55911005D01*
X132636555Y-55948501D01*
X132641000Y-55993638D01*
X132641000Y-56732362D01*
X132636555Y-56777499D01*
X132625180Y-56814995D01*
X132606708Y-56849554D01*
X132581847Y-56879847D01*
X132551554Y-56904708D01*
X132516995Y-56923180D01*
X132479499Y-56934555D01*
X132434362Y-56939000D01*
X131795638Y-56939000D01*
X131750501Y-56934555D01*
X131713005Y-56923180D01*
X131678446Y-56904708D01*
X131648153Y-56879847D01*
X131623292Y-56849554D01*
X131604820Y-56814995D01*
X131593445Y-56777499D01*
X131589000Y-56732362D01*
X131589000Y-55993638D01*
X131593445Y-55948501D01*
X131604820Y-55911005D01*
X131623292Y-55876446D01*
X131648153Y-55846153D01*
X131678446Y-55821292D01*
X131713005Y-55802820D01*
X131750501Y-55791445D01*
X131795638Y-55787000D01*
X132434362Y-55787000D01*
X132479499Y-55791445D01*
X132479499Y-55791445D01*
G37*
G36*
X134130499Y-55791445D02*
G01*
X134167995Y-55802820D01*
X134202554Y-55821292D01*
X134232847Y-55846153D01*
X134257708Y-55876446D01*
X134276180Y-55911005D01*
X134287555Y-55948501D01*
X134292000Y-55993638D01*
X134292000Y-56732362D01*
X134287555Y-56777499D01*
X134276180Y-56814995D01*
X134257708Y-56849554D01*
X134232847Y-56879847D01*
X134202554Y-56904708D01*
X134167995Y-56923180D01*
X134130499Y-56934555D01*
X134085362Y-56939000D01*
X133446638Y-56939000D01*
X133401501Y-56934555D01*
X133364005Y-56923180D01*
X133329446Y-56904708D01*
X133299153Y-56879847D01*
X133274292Y-56849554D01*
X133255820Y-56814995D01*
X133244445Y-56777499D01*
X133240000Y-56732362D01*
X133240000Y-55993638D01*
X133244445Y-55948501D01*
X133255820Y-55911005D01*
X133274292Y-55876446D01*
X133299153Y-55846153D01*
X133329446Y-55821292D01*
X133364005Y-55802820D01*
X133401501Y-55791445D01*
X133446638Y-55787000D01*
X134085362Y-55787000D01*
X134130499Y-55791445D01*
X134130499Y-55791445D01*
G37*
G36*
X132289499Y-54176445D02*
G01*
X132326995Y-54187820D01*
X132361554Y-54206292D01*
X132391847Y-54231153D01*
X132416708Y-54261446D01*
X132435180Y-54296005D01*
X132446555Y-54333501D01*
X132451000Y-54378638D01*
X132451000Y-55017362D01*
X132446555Y-55062499D01*
X132435180Y-55099995D01*
X132416708Y-55134554D01*
X132391847Y-55164847D01*
X132361554Y-55189708D01*
X132326995Y-55208180D01*
X132289499Y-55219555D01*
X132244362Y-55224000D01*
X131505638Y-55224000D01*
X131460501Y-55219555D01*
X131423005Y-55208180D01*
X131388446Y-55189708D01*
X131358153Y-55164847D01*
X131333292Y-55134554D01*
X131314820Y-55099995D01*
X131303445Y-55062499D01*
X131299000Y-55017362D01*
X131299000Y-54378638D01*
X131303445Y-54333501D01*
X131314820Y-54296005D01*
X131333292Y-54261446D01*
X131358153Y-54231153D01*
X131388446Y-54206292D01*
X131423005Y-54187820D01*
X131460501Y-54176445D01*
X131505638Y-54172000D01*
X132244362Y-54172000D01*
X132289499Y-54176445D01*
X132289499Y-54176445D01*
G37*
G36*
X134039499Y-54176445D02*
G01*
X134076995Y-54187820D01*
X134111554Y-54206292D01*
X134141847Y-54231153D01*
X134166708Y-54261446D01*
X134185180Y-54296005D01*
X134196555Y-54333501D01*
X134201000Y-54378638D01*
X134201000Y-55017362D01*
X134196555Y-55062499D01*
X134185180Y-55099995D01*
X134166708Y-55134554D01*
X134141847Y-55164847D01*
X134111554Y-55189708D01*
X134076995Y-55208180D01*
X134039499Y-55219555D01*
X133994362Y-55224000D01*
X133255638Y-55224000D01*
X133210501Y-55219555D01*
X133173005Y-55208180D01*
X133138446Y-55189708D01*
X133108153Y-55164847D01*
X133083292Y-55134554D01*
X133064820Y-55099995D01*
X133053445Y-55062499D01*
X133049000Y-55017362D01*
X133049000Y-54378638D01*
X133053445Y-54333501D01*
X133064820Y-54296005D01*
X133083292Y-54261446D01*
X133108153Y-54231153D01*
X133138446Y-54206292D01*
X133173005Y-54187820D01*
X133210501Y-54176445D01*
X133255638Y-54172000D01*
X133994362Y-54172000D01*
X134039499Y-54176445D01*
X134039499Y-54176445D01*
G37*
G36*
X132040564Y-50766389D02*
G01*
X132231833Y-50845615D01*
X132231835Y-50845616D01*
X132403973Y-50960635D01*
X132550365Y-51107027D01*
X132665385Y-51279167D01*
X132744611Y-51470436D01*
X132785000Y-51673484D01*
X132785000Y-51880516D01*
X132744611Y-52083564D01*
X132665385Y-52274833D01*
X132665384Y-52274835D01*
X132550365Y-52446973D01*
X132403973Y-52593365D01*
X132231835Y-52708384D01*
X132231834Y-52708385D01*
X132231833Y-52708385D01*
X132040564Y-52787611D01*
X131837516Y-52828000D01*
X131630484Y-52828000D01*
X131427436Y-52787611D01*
X131236167Y-52708385D01*
X131236166Y-52708385D01*
X131236165Y-52708384D01*
X131064027Y-52593365D01*
X130917635Y-52446973D01*
X130802616Y-52274835D01*
X130802615Y-52274833D01*
X130723389Y-52083564D01*
X130683000Y-51880516D01*
X130683000Y-51673484D01*
X130723389Y-51470436D01*
X130802615Y-51279167D01*
X130917635Y-51107027D01*
X131064027Y-50960635D01*
X131236165Y-50845616D01*
X131236167Y-50845615D01*
X131427436Y-50766389D01*
X131630484Y-50726000D01*
X131837516Y-50726000D01*
X132040564Y-50766389D01*
X132040564Y-50766389D01*
G37*
G36*
X148769000Y-50050000D02*
G01*
X140031000Y-50050000D01*
X140031000Y-48424000D01*
X148769000Y-48424000D01*
X148769000Y-50050000D01*
X148769000Y-50050000D01*
G37*
G36*
X132040564Y-46956389D02*
G01*
X132231833Y-47035615D01*
X132231835Y-47035616D01*
X132403973Y-47150635D01*
X132550365Y-47297027D01*
X132665385Y-47469167D01*
X132744611Y-47660436D01*
X132785000Y-47863484D01*
X132785000Y-48070516D01*
X132744611Y-48273564D01*
X132665385Y-48464833D01*
X132665384Y-48464835D01*
X132550365Y-48636973D01*
X132403973Y-48783365D01*
X132231835Y-48898384D01*
X132231834Y-48898385D01*
X132231833Y-48898385D01*
X132040564Y-48977611D01*
X131837516Y-49018000D01*
X131630484Y-49018000D01*
X131427436Y-48977611D01*
X131236167Y-48898385D01*
X131236166Y-48898385D01*
X131236165Y-48898384D01*
X131064027Y-48783365D01*
X130917635Y-48636973D01*
X130802616Y-48464835D01*
X130802615Y-48464833D01*
X130723389Y-48273564D01*
X130683000Y-48070516D01*
X130683000Y-47863484D01*
X130723389Y-47660436D01*
X130802615Y-47469167D01*
X130917635Y-47297027D01*
X131064027Y-47150635D01*
X131236165Y-47035616D01*
X131236167Y-47035615D01*
X131427436Y-46956389D01*
X131630484Y-46916000D01*
X131837516Y-46916000D01*
X132040564Y-46956389D01*
X132040564Y-46956389D01*
G37*
G36*
X117775256Y-39591298D02*
G01*
X117881579Y-39612447D01*
X118182042Y-39736903D01*
X118452451Y-39917585D01*
X118682415Y-40147549D01*
X118863097Y-40417958D01*
X118987553Y-40718421D01*
X119051000Y-41037391D01*
X119051000Y-41362609D01*
X118987553Y-41681579D01*
X118863097Y-41982042D01*
X118682415Y-42252451D01*
X118452451Y-42482415D01*
X118182042Y-42663097D01*
X117881579Y-42787553D01*
X117775256Y-42808702D01*
X117562611Y-42851000D01*
X117237389Y-42851000D01*
X117024744Y-42808702D01*
X116918421Y-42787553D01*
X116617958Y-42663097D01*
X116347549Y-42482415D01*
X116117585Y-42252451D01*
X115936903Y-41982042D01*
X115812447Y-41681579D01*
X115749000Y-41362609D01*
X115749000Y-41037391D01*
X115812447Y-40718421D01*
X115936903Y-40417958D01*
X116117585Y-40147549D01*
X116347549Y-39917585D01*
X116617958Y-39736903D01*
X116918421Y-39612447D01*
X117024744Y-39591298D01*
X117237389Y-39549000D01*
X117562611Y-39549000D01*
X117775256Y-39591298D01*
X117775256Y-39591298D01*
G37*
G36*
X171775256Y-39591298D02*
G01*
X171881579Y-39612447D01*
X172182042Y-39736903D01*
X172452451Y-39917585D01*
X172682415Y-40147549D01*
X172863097Y-40417958D01*
X172987553Y-40718421D01*
X173051000Y-41037391D01*
X173051000Y-41362609D01*
X172987553Y-41681579D01*
X172863097Y-41982042D01*
X172682415Y-42252451D01*
X172452451Y-42482415D01*
X172182042Y-42663097D01*
X171881579Y-42787553D01*
X171775256Y-42808702D01*
X171562611Y-42851000D01*
X171237389Y-42851000D01*
X171024744Y-42808702D01*
X170918421Y-42787553D01*
X170617958Y-42663097D01*
X170347549Y-42482415D01*
X170117585Y-42252451D01*
X169936903Y-41982042D01*
X169812447Y-41681579D01*
X169749000Y-41362609D01*
X169749000Y-41037391D01*
X169812447Y-40718421D01*
X169936903Y-40417958D01*
X170117585Y-40147549D01*
X170347549Y-39917585D01*
X170617958Y-39736903D01*
X170918421Y-39612447D01*
X171024744Y-39591298D01*
X171237389Y-39549000D01*
X171562611Y-39549000D01*
X171775256Y-39591298D01*
X171775256Y-39591298D01*
G37*
G36*
X157941000Y-41551000D02*
G01*
X156489000Y-41551000D01*
X156489000Y-37249000D01*
X157941000Y-37249000D01*
X157941000Y-41551000D01*
X157941000Y-41551000D01*
G37*
G36*
X152291000Y-41551000D02*
G01*
X150839000Y-41551000D01*
X150839000Y-37249000D01*
X152291000Y-37249000D01*
X152291000Y-41551000D01*
X152291000Y-41551000D01*
G37*
G36*
X155076000Y-41051000D02*
G01*
X153704000Y-41051000D01*
X153704000Y-37349000D01*
X155076000Y-37349000D01*
X155076000Y-41051000D01*
X155076000Y-41051000D01*
G37*
M02*
