M48
; DRILL file {KiCad 5.1.4+dfsg1-2} date Thu 05 Dec 2019 06:27:35 PM CET
; FORMAT={3:3/ absolute / metric / suppress leading zeros}
; #@! TF.CreationDate,2019-12-05T18:27:35+01:00
; #@! TF.GenerationSoftware,Kicad,Pcbnew,5.1.4+dfsg1-2
FMAT,2
METRIC,TZ
T1C0.250
T2C0.400
T3C0.500
T4C0.600
T5C1.000
T6C1.016
T7C1.170
T8C3.200
T9C3.300
%
G90
G05
T1
X114400Y-37700
X114400Y-39700
X114400Y-41700
X114400Y-43700
X114400Y-45700
X114400Y-47700
X114400Y-49700
X114400Y-51700
X114400Y-53700
X114400Y-55700
X114400Y-57700
X114400Y-59700
X114400Y-61700
X114400Y-63700
X114400Y-65700
X114400Y-67700
X114400Y-69700
X114400Y-71700
X114400Y-73700
X114400Y-75700
X114400Y-77100
X116400Y-37700
X116400Y-43700
X116400Y-45700
X116400Y-47700
X116400Y-49700
X116400Y-51700
X116400Y-77100
X118400Y-37700
X118400Y-43700
X118400Y-45700
X118400Y-47700
X118400Y-49700
X118400Y-51700
X118400Y-77100
X120400Y-37700
X120400Y-39700
X120400Y-41700
X120400Y-43700
X120400Y-45700
X120400Y-47700
X120400Y-49700
X120400Y-51700
X120400Y-77100
X122400Y-37700
X122400Y-39700
X122400Y-41700
X122400Y-43700
X122400Y-45700
X122400Y-47700
X122400Y-49700
X122400Y-51700
X122400Y-77100
X124400Y-37700
X124400Y-39700
X124400Y-41700
X124400Y-43700
X124400Y-45700
X124400Y-47700
X124400Y-49700
X124400Y-51700
X124400Y-77100
X126400Y-37700
X126400Y-39700
X126400Y-41700
X126400Y-43700
X126400Y-45700
X126400Y-47700
X126400Y-49700
X126400Y-51700
X126400Y-77100
X128400Y-37700
X128400Y-39700
X128400Y-41700
X128400Y-43700
X128400Y-45700
X128400Y-47700
X128400Y-49700
X128400Y-51700
X128400Y-77100
X130400Y-37700
X130400Y-39700
X130400Y-41700
X130400Y-43700
X130400Y-45700
X130400Y-49700
X130400Y-77100
X132400Y-37700
X132400Y-39700
X132400Y-41700
X132400Y-43700
X132400Y-45700
X132400Y-49700
X133200Y-77100
X134400Y-37700
X134400Y-39700
X134400Y-41700
X134400Y-43700
X134400Y-45700
X134400Y-47700
X134400Y-49100
X135200Y-77100
X136400Y-37700
X136400Y-39700
X136400Y-41700
X136400Y-43700
X136400Y-45700
X136400Y-47700
X136400Y-49100
X137200Y-77100
X138400Y-37700
X138400Y-39700
X138400Y-41700
X138400Y-43700
X138400Y-45700
X138400Y-47700
X138400Y-49100
X138400Y-50800
X138400Y-52800
X138400Y-54800
X138400Y-56800
X139200Y-77100
X140400Y-37700
X140400Y-39700
X140400Y-41700
X140400Y-43700
X140400Y-45700
X140600Y-47700
X140600Y-50800
X140600Y-52800
X140600Y-54800
X140600Y-56800
X141300Y-77100
X141900Y-47700
X142400Y-37700
X142400Y-39700
X142400Y-41700
X142400Y-43700
X142400Y-45700
X142600Y-50800
X142600Y-52800
X142600Y-54800
X142600Y-56800
X143300Y-77100
X144400Y-37700
X144400Y-39700
X144400Y-41700
X144400Y-43700
X144400Y-45700
X144400Y-47700
X144600Y-50800
X144600Y-52800
X144600Y-54800
X144600Y-56800
X145300Y-77100
X146400Y-37700
X146400Y-39700
X146400Y-41700
X146400Y-43700
X146600Y-50800
X146600Y-52800
X146600Y-54800
X146600Y-56800
X146900Y-47700
X148200Y-47700
X148400Y-37700
X148400Y-39700
X148400Y-41700
X148400Y-43700
X148600Y-50800
X148600Y-52800
X148600Y-54800
X148600Y-56800
X150400Y-43700
X150600Y-47100
X150600Y-49100
X150600Y-50800
X150600Y-52800
X150600Y-54800
X150600Y-56800
X150600Y-77100
X152400Y-43700
X152600Y-47100
X152600Y-49100
X152600Y-77100
X154600Y-47100
X154600Y-49100
X154600Y-77100
X154800Y-45100
X156600Y-43100
X156600Y-45100
X156600Y-47100
X156600Y-49100
X156600Y-51100
X158600Y-37500
X158600Y-39100
X158600Y-41100
X158600Y-43100
X158600Y-45100
X158600Y-47100
X158600Y-49100
X158600Y-51100
X158600Y-77100
X160600Y-37500
X160600Y-39100
X160600Y-41100
X160600Y-43100
X160600Y-45100
X160600Y-47100
X160600Y-49100
X160600Y-51100
X160600Y-77100
X162600Y-37500
X162600Y-39100
X162600Y-41100
X162600Y-43100
X162600Y-45100
X162600Y-47100
X162600Y-49100
X162600Y-51100
X162600Y-77100
X164600Y-37500
X164600Y-39100
X164600Y-41100
X164600Y-43100
X164600Y-45100
X164600Y-47100
X164600Y-49100
X164600Y-51100
X164600Y-77100
X166600Y-37500
X166600Y-39100
X166600Y-41100
X166600Y-43100
X166600Y-45100
X166600Y-47100
X166600Y-49100
X166600Y-51100
X166600Y-77100
X168600Y-37500
X168600Y-39100
X168600Y-41100
X168600Y-43100
X168600Y-45100
X168600Y-47100
X168600Y-49100
X168600Y-51100
X168600Y-77100
X170600Y-37500
X170600Y-38900
X170600Y-43400
X170600Y-45100
X170600Y-47100
X170600Y-49100
X170600Y-51100
X170600Y-77100
X172600Y-37500
X172600Y-38900
X172600Y-43100
X172600Y-45100
X172600Y-47100
X172600Y-49100
X172600Y-51100
X172600Y-77100
X174600Y-39100
X174600Y-41100
X174600Y-43100
X174600Y-45100
X174600Y-47100
X174600Y-49100
X174600Y-51100
X174600Y-53100
X174600Y-55100
X174600Y-57100
X174600Y-59100
X174600Y-61100
X174600Y-63100
X174600Y-65100
X174600Y-67100
X174600Y-69100
X174600Y-71100
X174600Y-73100
X174600Y-75100
X174600Y-77100
T2
X129575Y-89623
X130591Y-86829
X132623Y-98831
X137576Y-84162
X138973Y-80606
X141259Y-82892
X141767Y-96481
X142402Y-84035
X143208Y-97893
X144434Y-94449
X145006Y-97307
X145331Y-99021
X150784Y-98005
X160945Y-87337
X165897Y-90385
X167989Y-104931
X171993Y-87337
T3
X142310Y-89496
X143481Y-88404
X146466Y-92544
T4
X124600Y-107127
X128432Y-102577
X129294Y-115631
T5
X154000Y-88600
X152562Y-79463
X157134Y-72097
X115600Y-103974
X142783Y-79463
X154086Y-96735
X152800Y-84800
X131734Y-47967
X131734Y-51777
X157134Y-76034
X120200Y-103974
T6
X141957Y-107721
X141957Y-110261
X144498Y-107721
X144498Y-110261
X147038Y-107721
X147038Y-110261
T7
X116815Y-132041
X171985Y-132041
T8
X117400Y-112200
X171400Y-41200
X171400Y-112200
X117400Y-41200
T9
X127130Y-132041
X161670Y-132041
T0
M30
