G04 #@! TF.GenerationSoftware,KiCad,Pcbnew,5.1.4+dfsg1-2*
G04 #@! TF.CreationDate,2019-12-05T18:27:04+01:00*
G04 #@! TF.ProjectId,sensor_pcb,73656e73-6f72-45f7-9063-622e6b696361,1*
G04 #@! TF.SameCoordinates,Original*
G04 #@! TF.FileFunction,Legend,Top*
G04 #@! TF.FilePolarity,Positive*
%FSLAX46Y46*%
G04 Gerber Fmt 4.6, Leading zero omitted, Abs format (unit mm)*
G04 Created by KiCad (PCBNEW 5.1.4+dfsg1-2) date 2019-12-05 18:27:04*
%MOMM*%
%LPD*%
G04 APERTURE LIST*
%ADD10C,0.150000*%
%ADD11C,0.120000*%
%ADD12C,0.200000*%
%ADD13C,0.010000*%
%ADD14C,0.100000*%
%ADD15C,0.450000*%
G04 APERTURE END LIST*
D10*
X195817619Y-88452380D02*
X195817619Y-87880952D01*
X195817619Y-88166666D02*
X196817619Y-88166666D01*
X196674761Y-88071428D01*
X196579523Y-87976190D01*
X196531904Y-87880952D01*
X195817619Y-89404761D02*
X195817619Y-88833333D01*
X195817619Y-89119047D02*
X196817619Y-89119047D01*
X196674761Y-89023809D01*
X196579523Y-88928571D01*
X196531904Y-88833333D01*
X195817619Y-90357142D02*
X195817619Y-89785714D01*
X195817619Y-90071428D02*
X196817619Y-90071428D01*
X196674761Y-89976190D01*
X196579523Y-89880952D01*
X196531904Y-89785714D01*
X195912857Y-90785714D02*
X195865238Y-90833333D01*
X195817619Y-90785714D01*
X195865238Y-90738095D01*
X195912857Y-90785714D01*
X195817619Y-90785714D01*
X196484285Y-91690476D02*
X195817619Y-91690476D01*
X196865238Y-91452380D02*
X196150952Y-91214285D01*
X196150952Y-91833333D01*
X196817619Y-92404761D02*
X196817619Y-92500000D01*
X196770000Y-92595238D01*
X196722380Y-92642857D01*
X196627142Y-92690476D01*
X196436666Y-92738095D01*
X196198571Y-92738095D01*
X196008095Y-92690476D01*
X195912857Y-92642857D01*
X195865238Y-92595238D01*
X195817619Y-92500000D01*
X195817619Y-92404761D01*
X195865238Y-92309523D01*
X195912857Y-92261904D01*
X196008095Y-92214285D01*
X196198571Y-92166666D01*
X196436666Y-92166666D01*
X196627142Y-92214285D01*
X196722380Y-92261904D01*
X196770000Y-92309523D01*
X196817619Y-92404761D01*
X196817619Y-93357142D02*
X196817619Y-93452380D01*
X196770000Y-93547619D01*
X196722380Y-93595238D01*
X196627142Y-93642857D01*
X196436666Y-93690476D01*
X196198571Y-93690476D01*
X196008095Y-93642857D01*
X195912857Y-93595238D01*
X195865238Y-93547619D01*
X195817619Y-93452380D01*
X195817619Y-93357142D01*
X195865238Y-93261904D01*
X195912857Y-93214285D01*
X196008095Y-93166666D01*
X196198571Y-93119047D01*
X196436666Y-93119047D01*
X196627142Y-93166666D01*
X196722380Y-93214285D01*
X196770000Y-93261904D01*
X196817619Y-93357142D01*
X195817619Y-94880952D02*
X196484285Y-94880952D01*
X196389047Y-94880952D02*
X196436666Y-94928571D01*
X196484285Y-95023809D01*
X196484285Y-95166666D01*
X196436666Y-95261904D01*
X196341428Y-95309523D01*
X195817619Y-95309523D01*
X196341428Y-95309523D02*
X196436666Y-95357142D01*
X196484285Y-95452380D01*
X196484285Y-95595238D01*
X196436666Y-95690476D01*
X196341428Y-95738095D01*
X195817619Y-95738095D01*
X195817619Y-96214285D02*
X196484285Y-96214285D01*
X196389047Y-96214285D02*
X196436666Y-96261904D01*
X196484285Y-96357142D01*
X196484285Y-96500000D01*
X196436666Y-96595238D01*
X196341428Y-96642857D01*
X195817619Y-96642857D01*
X196341428Y-96642857D02*
X196436666Y-96690476D01*
X196484285Y-96785714D01*
X196484285Y-96928571D01*
X196436666Y-97023809D01*
X196341428Y-97071428D01*
X195817619Y-97071428D01*
D11*
X195000000Y-36800000D02*
X195000000Y-148200000D01*
X173400000Y-36800000D02*
X195586421Y-36800000D01*
X173400000Y-148200000D02*
X195586421Y-148200000D01*
X195000000Y-148200000D02*
X194413579Y-147073496D01*
X195000000Y-148200000D02*
X195586421Y-147073496D01*
X195000000Y-36800000D02*
X194413579Y-37926504D01*
X195000000Y-36800000D02*
X195586421Y-37926504D01*
D10*
X140733333Y-20182381D02*
X140542857Y-20182381D01*
X140447619Y-20230001D01*
X140400000Y-20277620D01*
X140304761Y-20420477D01*
X140257142Y-20610953D01*
X140257142Y-20991905D01*
X140304761Y-21087143D01*
X140352380Y-21134762D01*
X140447619Y-21182381D01*
X140638095Y-21182381D01*
X140733333Y-21134762D01*
X140780952Y-21087143D01*
X140828571Y-20991905D01*
X140828571Y-20753810D01*
X140780952Y-20658572D01*
X140733333Y-20610953D01*
X140638095Y-20563334D01*
X140447619Y-20563334D01*
X140352380Y-20610953D01*
X140304761Y-20658572D01*
X140257142Y-20753810D01*
X141685714Y-20515715D02*
X141685714Y-21182381D01*
X141447619Y-20134762D02*
X141209523Y-20849048D01*
X141828571Y-20849048D01*
X142209523Y-21087143D02*
X142257142Y-21134762D01*
X142209523Y-21182381D01*
X142161904Y-21134762D01*
X142209523Y-21087143D01*
X142209523Y-21182381D01*
X142876190Y-20182381D02*
X142971428Y-20182381D01*
X143066666Y-20230001D01*
X143114285Y-20277620D01*
X143161904Y-20372858D01*
X143209523Y-20563334D01*
X143209523Y-20801429D01*
X143161904Y-20991905D01*
X143114285Y-21087143D01*
X143066666Y-21134762D01*
X142971428Y-21182381D01*
X142876190Y-21182381D01*
X142780952Y-21134762D01*
X142733333Y-21087143D01*
X142685714Y-20991905D01*
X142638095Y-20801429D01*
X142638095Y-20563334D01*
X142685714Y-20372858D01*
X142733333Y-20277620D01*
X142780952Y-20230001D01*
X142876190Y-20182381D01*
X143828571Y-20182381D02*
X143923809Y-20182381D01*
X144019047Y-20230001D01*
X144066666Y-20277620D01*
X144114285Y-20372858D01*
X144161904Y-20563334D01*
X144161904Y-20801429D01*
X144114285Y-20991905D01*
X144066666Y-21087143D01*
X144019047Y-21134762D01*
X143923809Y-21182381D01*
X143828571Y-21182381D01*
X143733333Y-21134762D01*
X143685714Y-21087143D01*
X143638095Y-20991905D01*
X143590476Y-20801429D01*
X143590476Y-20563334D01*
X143638095Y-20372858D01*
X143685714Y-20277620D01*
X143733333Y-20230001D01*
X143828571Y-20182381D01*
X144780952Y-20182381D02*
X144876190Y-20182381D01*
X144971428Y-20230001D01*
X145019047Y-20277620D01*
X145066666Y-20372858D01*
X145114285Y-20563334D01*
X145114285Y-20801429D01*
X145066666Y-20991905D01*
X145019047Y-21087143D01*
X144971428Y-21134762D01*
X144876190Y-21182381D01*
X144780952Y-21182381D01*
X144685714Y-21134762D01*
X144638095Y-21087143D01*
X144590476Y-20991905D01*
X144542857Y-20801429D01*
X144542857Y-20563334D01*
X144590476Y-20372858D01*
X144638095Y-20277620D01*
X144685714Y-20230001D01*
X144780952Y-20182381D01*
X146304761Y-21182381D02*
X146304761Y-20515715D01*
X146304761Y-20610953D02*
X146352380Y-20563334D01*
X146447619Y-20515715D01*
X146590476Y-20515715D01*
X146685714Y-20563334D01*
X146733333Y-20658572D01*
X146733333Y-21182381D01*
X146733333Y-20658572D02*
X146780952Y-20563334D01*
X146876190Y-20515715D01*
X147019047Y-20515715D01*
X147114285Y-20563334D01*
X147161904Y-20658572D01*
X147161904Y-21182381D01*
X147638095Y-21182381D02*
X147638095Y-20515715D01*
X147638095Y-20610953D02*
X147685714Y-20563334D01*
X147780952Y-20515715D01*
X147923809Y-20515715D01*
X148019047Y-20563334D01*
X148066666Y-20658572D01*
X148066666Y-21182381D01*
X148066666Y-20658572D02*
X148114285Y-20563334D01*
X148209523Y-20515715D01*
X148352380Y-20515715D01*
X148447619Y-20563334D01*
X148495238Y-20658572D01*
X148495238Y-21182381D01*
D11*
X176400000Y-22000001D02*
X112400000Y-22000001D01*
X176400000Y-39800000D02*
X176400000Y-21413580D01*
X112400000Y-39800000D02*
X112400000Y-21413580D01*
X112400000Y-22000001D02*
X113526504Y-21413580D01*
X112400000Y-22000001D02*
X113526504Y-22586422D01*
X176400000Y-22000001D02*
X175273496Y-21413580D01*
X176400000Y-22000001D02*
X175273496Y-22586422D01*
D12*
X120567857Y-96712857D02*
X120567857Y-96212857D01*
X121353571Y-95998571D02*
X121353571Y-96712857D01*
X119853571Y-96712857D01*
X119853571Y-95998571D01*
X121353571Y-95498571D02*
X120353571Y-94712857D01*
X120353571Y-95498571D02*
X121353571Y-94712857D01*
X121353571Y-93498571D02*
X120567857Y-93498571D01*
X120425000Y-93570000D01*
X120353571Y-93712857D01*
X120353571Y-93998571D01*
X120425000Y-94141428D01*
X121282142Y-93498571D02*
X121353571Y-93641428D01*
X121353571Y-93998571D01*
X121282142Y-94141428D01*
X121139285Y-94212857D01*
X120996428Y-94212857D01*
X120853571Y-94141428D01*
X120782142Y-93998571D01*
X120782142Y-93641428D01*
X120710714Y-93498571D01*
X121353571Y-92784285D02*
X120353571Y-92784285D01*
X120496428Y-92784285D02*
X120425000Y-92712857D01*
X120353571Y-92570000D01*
X120353571Y-92355714D01*
X120425000Y-92212857D01*
X120567857Y-92141428D01*
X121353571Y-92141428D01*
X120567857Y-92141428D02*
X120425000Y-92070000D01*
X120353571Y-91927142D01*
X120353571Y-91712857D01*
X120425000Y-91570000D01*
X120567857Y-91498571D01*
X121353571Y-91498571D01*
X121282142Y-90212857D02*
X121353571Y-90355714D01*
X121353571Y-90641428D01*
X121282142Y-90784285D01*
X121139285Y-90855714D01*
X120567857Y-90855714D01*
X120425000Y-90784285D01*
X120353571Y-90641428D01*
X120353571Y-90355714D01*
X120425000Y-90212857D01*
X120567857Y-90141428D01*
X120710714Y-90141428D01*
X120853571Y-90855714D01*
X120353571Y-89498571D02*
X121353571Y-89498571D01*
X120496428Y-89498571D02*
X120425000Y-89427142D01*
X120353571Y-89284285D01*
X120353571Y-89070000D01*
X120425000Y-88927142D01*
X120567857Y-88855714D01*
X121353571Y-88855714D01*
X121282142Y-88212857D02*
X121353571Y-88070000D01*
X121353571Y-87784285D01*
X121282142Y-87641428D01*
X121139285Y-87570000D01*
X121067857Y-87570000D01*
X120925000Y-87641428D01*
X120853571Y-87784285D01*
X120853571Y-87998571D01*
X120782142Y-88141428D01*
X120639285Y-88212857D01*
X120567857Y-88212857D01*
X120425000Y-88141428D01*
X120353571Y-87998571D01*
X120353571Y-87784285D01*
X120425000Y-87641428D01*
X121353571Y-86284285D02*
X120567857Y-86284285D01*
X120425000Y-86355714D01*
X120353571Y-86498571D01*
X120353571Y-86784285D01*
X120425000Y-86927142D01*
X121282142Y-86284285D02*
X121353571Y-86427142D01*
X121353571Y-86784285D01*
X121282142Y-86927142D01*
X121139285Y-86998571D01*
X120996428Y-86998571D01*
X120853571Y-86927142D01*
X120782142Y-86784285D01*
X120782142Y-86427142D01*
X120710714Y-86284285D01*
X121353571Y-85570000D02*
X120353571Y-85570000D01*
X120639285Y-85570000D02*
X120496428Y-85498571D01*
X120425000Y-85427142D01*
X120353571Y-85284285D01*
X120353571Y-85141428D01*
X121353571Y-84641428D02*
X119853571Y-84641428D01*
X120425000Y-84641428D02*
X120353571Y-84498571D01*
X120353571Y-84212857D01*
X120425000Y-84070000D01*
X120496428Y-83998571D01*
X120639285Y-83927142D01*
X121067857Y-83927142D01*
X121210714Y-83998571D01*
X121282142Y-84070000D01*
X121353571Y-84212857D01*
X121353571Y-84498571D01*
X121282142Y-84641428D01*
X121282142Y-82712857D02*
X121353571Y-82855714D01*
X121353571Y-83141428D01*
X121282142Y-83284285D01*
X121139285Y-83355714D01*
X120567857Y-83355714D01*
X120425000Y-83284285D01*
X120353571Y-83141428D01*
X120353571Y-82855714D01*
X120425000Y-82712857D01*
X120567857Y-82641428D01*
X120710714Y-82641428D01*
X120853571Y-83355714D01*
X120353571Y-82212857D02*
X120353571Y-81641428D01*
X119853571Y-81998571D02*
X121139285Y-81998571D01*
X121282142Y-81927142D01*
X121353571Y-81784285D01*
X121353571Y-81641428D01*
X121282142Y-80570000D02*
X121353571Y-80712857D01*
X121353571Y-80998571D01*
X121282142Y-81141428D01*
X121139285Y-81212857D01*
X120567857Y-81212857D01*
X120425000Y-81141428D01*
X120353571Y-80998571D01*
X120353571Y-80712857D01*
X120425000Y-80570000D01*
X120567857Y-80498571D01*
X120710714Y-80498571D01*
X120853571Y-81212857D01*
X121353571Y-78712857D02*
X119853571Y-78712857D01*
X121353571Y-77784285D02*
X121282142Y-77927142D01*
X121210714Y-77998571D01*
X121067857Y-78070000D01*
X120639285Y-78070000D01*
X120496428Y-77998571D01*
X120425000Y-77927142D01*
X120353571Y-77784285D01*
X120353571Y-77570000D01*
X120425000Y-77427142D01*
X120496428Y-77355714D01*
X120639285Y-77284285D01*
X121067857Y-77284285D01*
X121210714Y-77355714D01*
X121282142Y-77427142D01*
X121353571Y-77570000D01*
X121353571Y-77784285D01*
X119853571Y-76855714D02*
X119853571Y-75998571D01*
X121353571Y-76427142D02*
X119853571Y-76427142D01*
X121353571Y-74712857D02*
X121353571Y-75570000D01*
X121353571Y-75141428D02*
X119853571Y-75141428D01*
X120067857Y-75284285D01*
X120210714Y-75427142D01*
X120282142Y-75570000D01*
X120496428Y-73855714D02*
X120425000Y-73998571D01*
X120353571Y-74070000D01*
X120210714Y-74141428D01*
X120139285Y-74141428D01*
X119996428Y-74070000D01*
X119925000Y-73998571D01*
X119853571Y-73855714D01*
X119853571Y-73570000D01*
X119925000Y-73427142D01*
X119996428Y-73355714D01*
X120139285Y-73284285D01*
X120210714Y-73284285D01*
X120353571Y-73355714D01*
X120425000Y-73427142D01*
X120496428Y-73570000D01*
X120496428Y-73855714D01*
X120567857Y-73998571D01*
X120639285Y-74070000D01*
X120782142Y-74141428D01*
X121067857Y-74141428D01*
X121210714Y-74070000D01*
X121282142Y-73998571D01*
X121353571Y-73855714D01*
X121353571Y-73570000D01*
X121282142Y-73427142D01*
X121210714Y-73355714D01*
X121067857Y-73284285D01*
X120782142Y-73284285D01*
X120639285Y-73355714D01*
X120567857Y-73427142D01*
X120496428Y-73570000D01*
X123803571Y-96712857D02*
X122303571Y-96712857D01*
X122303571Y-96355714D01*
X122375000Y-96141428D01*
X122517857Y-95998571D01*
X122660714Y-95927142D01*
X122946428Y-95855714D01*
X123160714Y-95855714D01*
X123446428Y-95927142D01*
X123589285Y-95998571D01*
X123732142Y-96141428D01*
X123803571Y-96355714D01*
X123803571Y-96712857D01*
X123732142Y-94641428D02*
X123803571Y-94784285D01*
X123803571Y-95070000D01*
X123732142Y-95212857D01*
X123589285Y-95284285D01*
X123017857Y-95284285D01*
X122875000Y-95212857D01*
X122803571Y-95070000D01*
X122803571Y-94784285D01*
X122875000Y-94641428D01*
X123017857Y-94570000D01*
X123160714Y-94570000D01*
X123303571Y-95284285D01*
X123732142Y-93284285D02*
X123803571Y-93427142D01*
X123803571Y-93712857D01*
X123732142Y-93855714D01*
X123660714Y-93927142D01*
X123517857Y-93998571D01*
X123089285Y-93998571D01*
X122946428Y-93927142D01*
X122875000Y-93855714D01*
X122803571Y-93712857D01*
X122803571Y-93427142D01*
X122875000Y-93284285D01*
X123732142Y-92070000D02*
X123803571Y-92212857D01*
X123803571Y-92498571D01*
X123732142Y-92641428D01*
X123589285Y-92712857D01*
X123017857Y-92712857D01*
X122875000Y-92641428D01*
X122803571Y-92498571D01*
X122803571Y-92212857D01*
X122875000Y-92070000D01*
X123017857Y-91998571D01*
X123160714Y-91998571D01*
X123303571Y-92712857D01*
X123803571Y-91355714D02*
X122803571Y-91355714D01*
X122946428Y-91355714D02*
X122875000Y-91284285D01*
X122803571Y-91141428D01*
X122803571Y-90927142D01*
X122875000Y-90784285D01*
X123017857Y-90712857D01*
X123803571Y-90712857D01*
X123017857Y-90712857D02*
X122875000Y-90641428D01*
X122803571Y-90498571D01*
X122803571Y-90284285D01*
X122875000Y-90141428D01*
X123017857Y-90070000D01*
X123803571Y-90070000D01*
X123803571Y-89355714D02*
X122303571Y-89355714D01*
X122875000Y-89355714D02*
X122803571Y-89212857D01*
X122803571Y-88927142D01*
X122875000Y-88784285D01*
X122946428Y-88712857D01*
X123089285Y-88641428D01*
X123517857Y-88641428D01*
X123660714Y-88712857D01*
X123732142Y-88784285D01*
X123803571Y-88927142D01*
X123803571Y-89212857D01*
X123732142Y-89355714D01*
X123732142Y-87427142D02*
X123803571Y-87570000D01*
X123803571Y-87855714D01*
X123732142Y-87998571D01*
X123589285Y-88070000D01*
X123017857Y-88070000D01*
X122875000Y-87998571D01*
X122803571Y-87855714D01*
X122803571Y-87570000D01*
X122875000Y-87427142D01*
X123017857Y-87355714D01*
X123160714Y-87355714D01*
X123303571Y-88070000D01*
X123803571Y-86712857D02*
X122803571Y-86712857D01*
X123089285Y-86712857D02*
X122946428Y-86641428D01*
X122875000Y-86570000D01*
X122803571Y-86427142D01*
X122803571Y-86284285D01*
X122446428Y-84712857D02*
X122375000Y-84641428D01*
X122303571Y-84498571D01*
X122303571Y-84141428D01*
X122375000Y-83998571D01*
X122446428Y-83927142D01*
X122589285Y-83855714D01*
X122732142Y-83855714D01*
X122946428Y-83927142D01*
X123803571Y-84784285D01*
X123803571Y-83855714D01*
X122303571Y-82927142D02*
X122303571Y-82784285D01*
X122375000Y-82641428D01*
X122446428Y-82570000D01*
X122589285Y-82498571D01*
X122875000Y-82427142D01*
X123232142Y-82427142D01*
X123517857Y-82498571D01*
X123660714Y-82570000D01*
X123732142Y-82641428D01*
X123803571Y-82784285D01*
X123803571Y-82927142D01*
X123732142Y-83070000D01*
X123660714Y-83141428D01*
X123517857Y-83212857D01*
X123232142Y-83284285D01*
X122875000Y-83284285D01*
X122589285Y-83212857D01*
X122446428Y-83141428D01*
X122375000Y-83070000D01*
X122303571Y-82927142D01*
X123803571Y-80998571D02*
X123803571Y-81855714D01*
X123803571Y-81427142D02*
X122303571Y-81427142D01*
X122517857Y-81570000D01*
X122660714Y-81712857D01*
X122732142Y-81855714D01*
X123803571Y-80284285D02*
X123803571Y-79998571D01*
X123732142Y-79855714D01*
X123660714Y-79784285D01*
X123446428Y-79641428D01*
X123160714Y-79570000D01*
X122589285Y-79570000D01*
X122446428Y-79641428D01*
X122375000Y-79712857D01*
X122303571Y-79855714D01*
X122303571Y-80141428D01*
X122375000Y-80284285D01*
X122446428Y-80355714D01*
X122589285Y-80427142D01*
X122946428Y-80427142D01*
X123089285Y-80355714D01*
X123160714Y-80284285D01*
X123232142Y-80141428D01*
X123232142Y-79855714D01*
X123160714Y-79712857D01*
X123089285Y-79641428D01*
X122946428Y-79570000D01*
X120442857Y-70612857D02*
X120442857Y-70112857D01*
X121228571Y-69898571D02*
X121228571Y-70612857D01*
X119728571Y-70612857D01*
X119728571Y-69898571D01*
X121228571Y-69255714D02*
X120228571Y-69255714D01*
X120371428Y-69255714D02*
X120300000Y-69184285D01*
X120228571Y-69041428D01*
X120228571Y-68827142D01*
X120300000Y-68684285D01*
X120442857Y-68612857D01*
X121228571Y-68612857D01*
X120442857Y-68612857D02*
X120300000Y-68541428D01*
X120228571Y-68398571D01*
X120228571Y-68184285D01*
X120300000Y-68041428D01*
X120442857Y-67970000D01*
X121228571Y-67970000D01*
X121228571Y-67255714D02*
X120228571Y-67255714D01*
X119728571Y-67255714D02*
X119800000Y-67327142D01*
X119871428Y-67255714D01*
X119800000Y-67184285D01*
X119728571Y-67255714D01*
X119871428Y-67255714D01*
X121228571Y-66327142D02*
X121157142Y-66470000D01*
X121014285Y-66541428D01*
X119728571Y-66541428D01*
X119728571Y-64184285D02*
X120800000Y-64184285D01*
X121014285Y-64255714D01*
X121157142Y-64398571D01*
X121228571Y-64612857D01*
X121228571Y-64755714D01*
X121228571Y-62827142D02*
X120442857Y-62827142D01*
X120300000Y-62898571D01*
X120228571Y-63041428D01*
X120228571Y-63327142D01*
X120300000Y-63470000D01*
X121157142Y-62827142D02*
X121228571Y-62970000D01*
X121228571Y-63327142D01*
X121157142Y-63470000D01*
X121014285Y-63541428D01*
X120871428Y-63541428D01*
X120728571Y-63470000D01*
X120657142Y-63327142D01*
X120657142Y-62970000D01*
X120585714Y-62827142D01*
X121228571Y-62112857D02*
X120228571Y-62112857D01*
X120514285Y-62112857D02*
X120371428Y-62041428D01*
X120300000Y-61970000D01*
X120228571Y-61827142D01*
X120228571Y-61684285D01*
X121157142Y-60612857D02*
X121228571Y-60755714D01*
X121228571Y-61041428D01*
X121157142Y-61184285D01*
X121014285Y-61255714D01*
X120442857Y-61255714D01*
X120300000Y-61184285D01*
X120228571Y-61041428D01*
X120228571Y-60755714D01*
X120300000Y-60612857D01*
X120442857Y-60541428D01*
X120585714Y-60541428D01*
X120728571Y-61255714D01*
X120228571Y-59255714D02*
X121442857Y-59255714D01*
X121585714Y-59327142D01*
X121657142Y-59398571D01*
X121728571Y-59541428D01*
X121728571Y-59755714D01*
X121657142Y-59898571D01*
X121157142Y-59255714D02*
X121228571Y-59398571D01*
X121228571Y-59684285D01*
X121157142Y-59827142D01*
X121085714Y-59898571D01*
X120942857Y-59970000D01*
X120514285Y-59970000D01*
X120371428Y-59898571D01*
X120300000Y-59827142D01*
X120228571Y-59684285D01*
X120228571Y-59398571D01*
X120300000Y-59255714D01*
X121228571Y-58541428D02*
X120228571Y-58541428D01*
X120514285Y-58541428D02*
X120371428Y-58470000D01*
X120300000Y-58398571D01*
X120228571Y-58255714D01*
X120228571Y-58112857D01*
X121228571Y-56970000D02*
X120442857Y-56970000D01*
X120300000Y-57041428D01*
X120228571Y-57184285D01*
X120228571Y-57470000D01*
X120300000Y-57612857D01*
X121157142Y-56970000D02*
X121228571Y-57112857D01*
X121228571Y-57470000D01*
X121157142Y-57612857D01*
X121014285Y-57684285D01*
X120871428Y-57684285D01*
X120728571Y-57612857D01*
X120657142Y-57470000D01*
X120657142Y-57112857D01*
X120585714Y-56970000D01*
X120228571Y-56255714D02*
X121228571Y-56255714D01*
X120371428Y-56255714D02*
X120300000Y-56184285D01*
X120228571Y-56041428D01*
X120228571Y-55827142D01*
X120300000Y-55684285D01*
X120442857Y-55612857D01*
X121228571Y-55612857D01*
X123678571Y-70612857D02*
X122178571Y-70612857D01*
X123678571Y-69755714D01*
X122178571Y-69755714D01*
X123678571Y-68398571D02*
X122892857Y-68398571D01*
X122750000Y-68470000D01*
X122678571Y-68612857D01*
X122678571Y-68898571D01*
X122750000Y-69041428D01*
X123607142Y-68398571D02*
X123678571Y-68541428D01*
X123678571Y-68898571D01*
X123607142Y-69041428D01*
X123464285Y-69112857D01*
X123321428Y-69112857D01*
X123178571Y-69041428D01*
X123107142Y-68898571D01*
X123107142Y-68541428D01*
X123035714Y-68398571D01*
X123678571Y-67684285D02*
X122678571Y-67684285D01*
X122178571Y-67684285D02*
X122250000Y-67755714D01*
X122321428Y-67684285D01*
X122250000Y-67612857D01*
X122178571Y-67684285D01*
X122321428Y-67684285D01*
X123678571Y-66970000D02*
X122678571Y-66970000D01*
X122821428Y-66970000D02*
X122750000Y-66898571D01*
X122678571Y-66755714D01*
X122678571Y-66541428D01*
X122750000Y-66398571D01*
X122892857Y-66327142D01*
X123678571Y-66327142D01*
X122892857Y-66327142D02*
X122750000Y-66255714D01*
X122678571Y-66112857D01*
X122678571Y-65898571D01*
X122750000Y-65755714D01*
X122892857Y-65684285D01*
X123678571Y-65684285D01*
X123678571Y-64327142D02*
X122892857Y-64327142D01*
X122750000Y-64398571D01*
X122678571Y-64541428D01*
X122678571Y-64827142D01*
X122750000Y-64970000D01*
X123607142Y-64327142D02*
X123678571Y-64470000D01*
X123678571Y-64827142D01*
X123607142Y-64970000D01*
X123464285Y-65041428D01*
X123321428Y-65041428D01*
X123178571Y-64970000D01*
X123107142Y-64827142D01*
X123107142Y-64470000D01*
X123035714Y-64327142D01*
X123535714Y-61612857D02*
X123607142Y-61684285D01*
X123678571Y-61898571D01*
X123678571Y-62041428D01*
X123607142Y-62255714D01*
X123464285Y-62398571D01*
X123321428Y-62470000D01*
X123035714Y-62541428D01*
X122821428Y-62541428D01*
X122535714Y-62470000D01*
X122392857Y-62398571D01*
X122250000Y-62255714D01*
X122178571Y-62041428D01*
X122178571Y-61898571D01*
X122250000Y-61684285D01*
X122321428Y-61612857D01*
X123678571Y-60755714D02*
X123607142Y-60898571D01*
X123464285Y-60970000D01*
X122178571Y-60970000D01*
X123678571Y-59541428D02*
X122892857Y-59541428D01*
X122750000Y-59612857D01*
X122678571Y-59755714D01*
X122678571Y-60041428D01*
X122750000Y-60184285D01*
X123607142Y-59541428D02*
X123678571Y-59684285D01*
X123678571Y-60041428D01*
X123607142Y-60184285D01*
X123464285Y-60255714D01*
X123321428Y-60255714D01*
X123178571Y-60184285D01*
X123107142Y-60041428D01*
X123107142Y-59684285D01*
X123035714Y-59541428D01*
X123607142Y-58255714D02*
X123678571Y-58398571D01*
X123678571Y-58684285D01*
X123607142Y-58827142D01*
X123464285Y-58898571D01*
X122892857Y-58898571D01*
X122750000Y-58827142D01*
X122678571Y-58684285D01*
X122678571Y-58398571D01*
X122750000Y-58255714D01*
X122892857Y-58184285D01*
X123035714Y-58184285D01*
X123178571Y-58898571D01*
X123607142Y-57612857D02*
X123678571Y-57470000D01*
X123678571Y-57184285D01*
X123607142Y-57041428D01*
X123464285Y-56970000D01*
X123392857Y-56970000D01*
X123250000Y-57041428D01*
X123178571Y-57184285D01*
X123178571Y-57398571D01*
X123107142Y-57541428D01*
X122964285Y-57612857D01*
X122892857Y-57612857D01*
X122750000Y-57541428D01*
X122678571Y-57398571D01*
X122678571Y-57184285D01*
X122750000Y-57041428D01*
X123607142Y-56398571D02*
X123678571Y-56255714D01*
X123678571Y-55970000D01*
X123607142Y-55827142D01*
X123464285Y-55755714D01*
X123392857Y-55755714D01*
X123250000Y-55827142D01*
X123178571Y-55970000D01*
X123178571Y-56184285D01*
X123107142Y-56327142D01*
X122964285Y-56398571D01*
X122892857Y-56398571D01*
X122750000Y-56327142D01*
X122678571Y-56184285D01*
X122678571Y-55970000D01*
X122750000Y-55827142D01*
X123678571Y-54898571D02*
X123607142Y-55041428D01*
X123535714Y-55112857D01*
X123392857Y-55184285D01*
X122964285Y-55184285D01*
X122821428Y-55112857D01*
X122750000Y-55041428D01*
X122678571Y-54898571D01*
X122678571Y-54684285D01*
X122750000Y-54541428D01*
X122821428Y-54470000D01*
X122964285Y-54398571D01*
X123392857Y-54398571D01*
X123535714Y-54470000D01*
X123607142Y-54541428D01*
X123678571Y-54684285D01*
X123678571Y-54898571D01*
X122678571Y-53755714D02*
X123678571Y-53755714D01*
X122821428Y-53755714D02*
X122750000Y-53684285D01*
X122678571Y-53541428D01*
X122678571Y-53327142D01*
X122750000Y-53184285D01*
X122892857Y-53112857D01*
X123678571Y-53112857D01*
X126128571Y-70612857D02*
X124628571Y-70612857D01*
X124628571Y-70041428D01*
X124700000Y-69898571D01*
X124771428Y-69827142D01*
X124914285Y-69755714D01*
X125128571Y-69755714D01*
X125271428Y-69827142D01*
X125342857Y-69898571D01*
X125414285Y-70041428D01*
X125414285Y-70612857D01*
X126057142Y-68541428D02*
X126128571Y-68684285D01*
X126128571Y-68970000D01*
X126057142Y-69112857D01*
X125914285Y-69184285D01*
X125342857Y-69184285D01*
X125200000Y-69112857D01*
X125128571Y-68970000D01*
X125128571Y-68684285D01*
X125200000Y-68541428D01*
X125342857Y-68470000D01*
X125485714Y-68470000D01*
X125628571Y-69184285D01*
X126128571Y-67827142D02*
X125128571Y-67827142D01*
X125414285Y-67827142D02*
X125271428Y-67755714D01*
X125200000Y-67684285D01*
X125128571Y-67541428D01*
X125128571Y-67398571D01*
X125128571Y-66898571D02*
X126128571Y-66898571D01*
X125271428Y-66898571D02*
X125200000Y-66827142D01*
X125128571Y-66684285D01*
X125128571Y-66470000D01*
X125200000Y-66327142D01*
X125342857Y-66255714D01*
X126128571Y-66255714D01*
X126128571Y-65541428D02*
X125128571Y-65541428D01*
X124628571Y-65541428D02*
X124700000Y-65612857D01*
X124771428Y-65541428D01*
X124700000Y-65470000D01*
X124628571Y-65541428D01*
X124771428Y-65541428D01*
X126128571Y-64612857D02*
X126057142Y-64755714D01*
X125914285Y-64827142D01*
X124628571Y-64827142D01*
X126128571Y-63827142D02*
X126057142Y-63970000D01*
X125914285Y-64041428D01*
X124628571Y-64041428D01*
X126128571Y-62612857D02*
X125342857Y-62612857D01*
X125200000Y-62684285D01*
X125128571Y-62827142D01*
X125128571Y-63112857D01*
X125200000Y-63255714D01*
X126057142Y-62612857D02*
X126128571Y-62755714D01*
X126128571Y-63112857D01*
X126057142Y-63255714D01*
X125914285Y-63327142D01*
X125771428Y-63327142D01*
X125628571Y-63255714D01*
X125557142Y-63112857D01*
X125557142Y-62755714D01*
X125485714Y-62612857D01*
X126128571Y-60755714D02*
X124628571Y-60755714D01*
X126128571Y-59898571D02*
X125271428Y-60541428D01*
X124628571Y-59898571D02*
X125485714Y-60755714D01*
X126128571Y-58612857D02*
X125342857Y-58612857D01*
X125200000Y-58684285D01*
X125128571Y-58827142D01*
X125128571Y-59112857D01*
X125200000Y-59255714D01*
X126057142Y-58612857D02*
X126128571Y-58755714D01*
X126128571Y-59112857D01*
X126057142Y-59255714D01*
X125914285Y-59327142D01*
X125771428Y-59327142D01*
X125628571Y-59255714D01*
X125557142Y-59112857D01*
X125557142Y-58755714D01*
X125485714Y-58612857D01*
X126128571Y-57898571D02*
X125128571Y-57898571D01*
X125414285Y-57898571D02*
X125271428Y-57827142D01*
X125200000Y-57755714D01*
X125128571Y-57612857D01*
X125128571Y-57470000D01*
X126128571Y-56970000D02*
X124628571Y-56970000D01*
X126128571Y-56327142D02*
X125342857Y-56327142D01*
X125200000Y-56398571D01*
X125128571Y-56541428D01*
X125128571Y-56755714D01*
X125200000Y-56898571D01*
X125271428Y-56970000D01*
X125128571Y-54970000D02*
X126128571Y-54970000D01*
X125128571Y-55612857D02*
X125914285Y-55612857D01*
X126057142Y-55541428D01*
X126128571Y-55398571D01*
X126128571Y-55184285D01*
X126057142Y-55041428D01*
X125985714Y-54970000D01*
X116578571Y-95992857D02*
X116578571Y-96707142D01*
X115078571Y-96707142D01*
X116578571Y-95278571D02*
X116507142Y-95421428D01*
X116435714Y-95492857D01*
X116292857Y-95564285D01*
X115864285Y-95564285D01*
X115721428Y-95492857D01*
X115650000Y-95421428D01*
X115578571Y-95278571D01*
X115578571Y-95064285D01*
X115650000Y-94921428D01*
X115721428Y-94850000D01*
X115864285Y-94778571D01*
X116292857Y-94778571D01*
X116435714Y-94850000D01*
X116507142Y-94921428D01*
X116578571Y-95064285D01*
X116578571Y-95278571D01*
X116578571Y-93278571D02*
X115864285Y-93778571D01*
X116578571Y-94135714D02*
X115078571Y-94135714D01*
X115078571Y-93564285D01*
X115150000Y-93421428D01*
X115221428Y-93350000D01*
X115364285Y-93278571D01*
X115578571Y-93278571D01*
X115721428Y-93350000D01*
X115792857Y-93421428D01*
X115864285Y-93564285D01*
X115864285Y-94135714D01*
X116578571Y-91992857D02*
X115792857Y-91992857D01*
X115650000Y-92064285D01*
X115578571Y-92207142D01*
X115578571Y-92492857D01*
X115650000Y-92635714D01*
X116507142Y-91992857D02*
X116578571Y-92135714D01*
X116578571Y-92492857D01*
X116507142Y-92635714D01*
X116364285Y-92707142D01*
X116221428Y-92707142D01*
X116078571Y-92635714D01*
X116007142Y-92492857D01*
X116007142Y-92135714D01*
X115935714Y-91992857D01*
X115078571Y-91421428D02*
X116578571Y-91064285D01*
X115507142Y-90778571D01*
X116578571Y-90492857D01*
X115078571Y-90135714D01*
X116150000Y-89635714D02*
X116150000Y-88921428D01*
X116578571Y-89778571D02*
X115078571Y-89278571D01*
X116578571Y-88778571D01*
X116578571Y-88278571D02*
X115078571Y-88278571D01*
X116578571Y-87421428D01*
X115078571Y-87421428D01*
X115078571Y-85778571D02*
X115078571Y-84921428D01*
X116578571Y-85350000D02*
X115078571Y-85350000D01*
X116507142Y-83850000D02*
X116578571Y-83992857D01*
X116578571Y-84278571D01*
X116507142Y-84421428D01*
X116364285Y-84492857D01*
X115792857Y-84492857D01*
X115650000Y-84421428D01*
X115578571Y-84278571D01*
X115578571Y-83992857D01*
X115650000Y-83850000D01*
X115792857Y-83778571D01*
X115935714Y-83778571D01*
X116078571Y-84492857D01*
X116578571Y-83135714D02*
X115578571Y-83135714D01*
X115721428Y-83135714D02*
X115650000Y-83064285D01*
X115578571Y-82921428D01*
X115578571Y-82707142D01*
X115650000Y-82564285D01*
X115792857Y-82492857D01*
X116578571Y-82492857D01*
X115792857Y-82492857D02*
X115650000Y-82421428D01*
X115578571Y-82278571D01*
X115578571Y-82064285D01*
X115650000Y-81921428D01*
X115792857Y-81850000D01*
X116578571Y-81850000D01*
X115578571Y-81135714D02*
X117078571Y-81135714D01*
X115650000Y-81135714D02*
X115578571Y-80992857D01*
X115578571Y-80707142D01*
X115650000Y-80564285D01*
X115721428Y-80492857D01*
X115864285Y-80421428D01*
X116292857Y-80421428D01*
X116435714Y-80492857D01*
X116507142Y-80564285D01*
X116578571Y-80707142D01*
X116578571Y-80992857D01*
X116507142Y-81135714D01*
X116507142Y-79207142D02*
X116578571Y-79350000D01*
X116578571Y-79635714D01*
X116507142Y-79778571D01*
X116364285Y-79850000D01*
X115792857Y-79850000D01*
X115650000Y-79778571D01*
X115578571Y-79635714D01*
X115578571Y-79350000D01*
X115650000Y-79207142D01*
X115792857Y-79135714D01*
X115935714Y-79135714D01*
X116078571Y-79850000D01*
X116578571Y-78492857D02*
X115578571Y-78492857D01*
X115864285Y-78492857D02*
X115721428Y-78421428D01*
X115650000Y-78350000D01*
X115578571Y-78207142D01*
X115578571Y-78064285D01*
X116578571Y-76921428D02*
X115792857Y-76921428D01*
X115650000Y-76992857D01*
X115578571Y-77135714D01*
X115578571Y-77421428D01*
X115650000Y-77564285D01*
X116507142Y-76921428D02*
X116578571Y-77064285D01*
X116578571Y-77421428D01*
X116507142Y-77564285D01*
X116364285Y-77635714D01*
X116221428Y-77635714D01*
X116078571Y-77564285D01*
X116007142Y-77421428D01*
X116007142Y-77064285D01*
X115935714Y-76921428D01*
X115578571Y-76421428D02*
X115578571Y-75850000D01*
X115078571Y-76207142D02*
X116364285Y-76207142D01*
X116507142Y-76135714D01*
X116578571Y-75992857D01*
X116578571Y-75850000D01*
X115578571Y-74707142D02*
X116578571Y-74707142D01*
X115578571Y-75350000D02*
X116364285Y-75350000D01*
X116507142Y-75278571D01*
X116578571Y-75135714D01*
X116578571Y-74921428D01*
X116507142Y-74778571D01*
X116435714Y-74707142D01*
X116578571Y-73992857D02*
X115578571Y-73992857D01*
X115864285Y-73992857D02*
X115721428Y-73921428D01*
X115650000Y-73850000D01*
X115578571Y-73707142D01*
X115578571Y-73564285D01*
X116507142Y-72492857D02*
X116578571Y-72635714D01*
X116578571Y-72921428D01*
X116507142Y-73064285D01*
X116364285Y-73135714D01*
X115792857Y-73135714D01*
X115650000Y-73064285D01*
X115578571Y-72921428D01*
X115578571Y-72635714D01*
X115650000Y-72492857D01*
X115792857Y-72421428D01*
X115935714Y-72421428D01*
X116078571Y-73135714D01*
X115007142Y-70707142D02*
X116935714Y-71992857D01*
X116578571Y-70207142D02*
X115078571Y-70207142D01*
X115792857Y-70207142D02*
X115792857Y-69350000D01*
X116578571Y-69350000D02*
X115078571Y-69350000D01*
X115578571Y-67992857D02*
X116578571Y-67992857D01*
X115578571Y-68635714D02*
X116364285Y-68635714D01*
X116507142Y-68564285D01*
X116578571Y-68421428D01*
X116578571Y-68207142D01*
X116507142Y-68064285D01*
X116435714Y-67992857D01*
X116578571Y-67278571D02*
X115578571Y-67278571D01*
X115721428Y-67278571D02*
X115650000Y-67207142D01*
X115578571Y-67064285D01*
X115578571Y-66850000D01*
X115650000Y-66707142D01*
X115792857Y-66635714D01*
X116578571Y-66635714D01*
X115792857Y-66635714D02*
X115650000Y-66564285D01*
X115578571Y-66421428D01*
X115578571Y-66207142D01*
X115650000Y-66064285D01*
X115792857Y-65992857D01*
X116578571Y-65992857D01*
X116578571Y-65278571D02*
X115578571Y-65278571D01*
X115078571Y-65278571D02*
X115150000Y-65350000D01*
X115221428Y-65278571D01*
X115150000Y-65207142D01*
X115078571Y-65278571D01*
X115221428Y-65278571D01*
X116578571Y-63921428D02*
X115078571Y-63921428D01*
X116507142Y-63921428D02*
X116578571Y-64064285D01*
X116578571Y-64350000D01*
X116507142Y-64492857D01*
X116435714Y-64564285D01*
X116292857Y-64635714D01*
X115864285Y-64635714D01*
X115721428Y-64564285D01*
X115650000Y-64492857D01*
X115578571Y-64350000D01*
X115578571Y-64064285D01*
X115650000Y-63921428D01*
X116578571Y-63207142D02*
X115578571Y-63207142D01*
X115078571Y-63207142D02*
X115150000Y-63278571D01*
X115221428Y-63207142D01*
X115150000Y-63135714D01*
X115078571Y-63207142D01*
X115221428Y-63207142D01*
X115578571Y-62707142D02*
X115578571Y-62135714D01*
X115078571Y-62492857D02*
X116364285Y-62492857D01*
X116507142Y-62421428D01*
X116578571Y-62278571D01*
X116578571Y-62135714D01*
X115578571Y-61778571D02*
X116578571Y-61421428D01*
X115578571Y-61064285D02*
X116578571Y-61421428D01*
X116935714Y-61564285D01*
X117007142Y-61635714D01*
X117078571Y-61778571D01*
X116507142Y-59421428D02*
X116578571Y-59207142D01*
X116578571Y-58850000D01*
X116507142Y-58707142D01*
X116435714Y-58635714D01*
X116292857Y-58564285D01*
X116150000Y-58564285D01*
X116007142Y-58635714D01*
X115935714Y-58707142D01*
X115864285Y-58850000D01*
X115792857Y-59135714D01*
X115721428Y-59278571D01*
X115650000Y-59350000D01*
X115507142Y-59421428D01*
X115364285Y-59421428D01*
X115221428Y-59350000D01*
X115150000Y-59278571D01*
X115078571Y-59135714D01*
X115078571Y-58778571D01*
X115150000Y-58564285D01*
X116507142Y-57350000D02*
X116578571Y-57492857D01*
X116578571Y-57778571D01*
X116507142Y-57921428D01*
X116364285Y-57992857D01*
X115792857Y-57992857D01*
X115650000Y-57921428D01*
X115578571Y-57778571D01*
X115578571Y-57492857D01*
X115650000Y-57350000D01*
X115792857Y-57278571D01*
X115935714Y-57278571D01*
X116078571Y-57992857D01*
X115578571Y-56635714D02*
X116578571Y-56635714D01*
X115721428Y-56635714D02*
X115650000Y-56564285D01*
X115578571Y-56421428D01*
X115578571Y-56207142D01*
X115650000Y-56064285D01*
X115792857Y-55992857D01*
X116578571Y-55992857D01*
X116507142Y-55350000D02*
X116578571Y-55207142D01*
X116578571Y-54921428D01*
X116507142Y-54778571D01*
X116364285Y-54707142D01*
X116292857Y-54707142D01*
X116150000Y-54778571D01*
X116078571Y-54921428D01*
X116078571Y-55135714D01*
X116007142Y-55278571D01*
X115864285Y-55350000D01*
X115792857Y-55350000D01*
X115650000Y-55278571D01*
X115578571Y-55135714D01*
X115578571Y-54921428D01*
X115650000Y-54778571D01*
X116578571Y-53850000D02*
X116507142Y-53992857D01*
X116435714Y-54064285D01*
X116292857Y-54135714D01*
X115864285Y-54135714D01*
X115721428Y-54064285D01*
X115650000Y-53992857D01*
X115578571Y-53850000D01*
X115578571Y-53635714D01*
X115650000Y-53492857D01*
X115721428Y-53421428D01*
X115864285Y-53350000D01*
X116292857Y-53350000D01*
X116435714Y-53421428D01*
X116507142Y-53492857D01*
X116578571Y-53635714D01*
X116578571Y-53850000D01*
X116578571Y-52707142D02*
X115578571Y-52707142D01*
X115864285Y-52707142D02*
X115721428Y-52635714D01*
X115650000Y-52564285D01*
X115578571Y-52421428D01*
X115578571Y-52278571D01*
X153500000Y-111900000D02*
X160900000Y-111900000D01*
X153500000Y-116000000D02*
X160800000Y-116000000D01*
X153400000Y-107500000D02*
X160800000Y-107500000D01*
X153400000Y-107500000D02*
X153500000Y-116000000D01*
X160800000Y-107500000D02*
X160900000Y-116000000D01*
X158600000Y-107500000D02*
X158700000Y-116000000D01*
X156000000Y-107500000D02*
X156100000Y-116000000D01*
D10*
X159300000Y-110761904D02*
X159252380Y-110857142D01*
X159252380Y-111000000D01*
X159300000Y-111142857D01*
X159395238Y-111238095D01*
X159490476Y-111285714D01*
X159680952Y-111333333D01*
X159823809Y-111333333D01*
X160014285Y-111285714D01*
X160109523Y-111238095D01*
X160204761Y-111142857D01*
X160252380Y-111000000D01*
X160252380Y-110904761D01*
X160204761Y-110761904D01*
X160157142Y-110714285D01*
X159823809Y-110714285D01*
X159823809Y-110904761D01*
X160252380Y-110285714D02*
X159252380Y-110285714D01*
X160252380Y-109714285D01*
X159252380Y-109714285D01*
X160252380Y-109238095D02*
X159252380Y-109238095D01*
X159252380Y-109000000D01*
X159300000Y-108857142D01*
X159395238Y-108761904D01*
X159490476Y-108714285D01*
X159680952Y-108666666D01*
X159823809Y-108666666D01*
X160014285Y-108714285D01*
X160109523Y-108761904D01*
X160204761Y-108857142D01*
X160252380Y-109000000D01*
X160252380Y-109238095D01*
X160252380Y-114147619D02*
X159776190Y-114480952D01*
X160252380Y-114719047D02*
X159252380Y-114719047D01*
X159252380Y-114338095D01*
X159300000Y-114242857D01*
X159347619Y-114195238D01*
X159442857Y-114147619D01*
X159585714Y-114147619D01*
X159680952Y-114195238D01*
X159728571Y-114242857D01*
X159776190Y-114338095D01*
X159776190Y-114719047D01*
X160204761Y-113766666D02*
X160252380Y-113623809D01*
X160252380Y-113385714D01*
X160204761Y-113290476D01*
X160157142Y-113242857D01*
X160061904Y-113195238D01*
X159966666Y-113195238D01*
X159871428Y-113242857D01*
X159823809Y-113290476D01*
X159776190Y-113385714D01*
X159728571Y-113576190D01*
X159680952Y-113671428D01*
X159633333Y-113719047D01*
X159538095Y-113766666D01*
X159442857Y-113766666D01*
X159347619Y-113719047D01*
X159300000Y-113671428D01*
X159252380Y-113576190D01*
X159252380Y-113338095D01*
X159300000Y-113195238D01*
X159252380Y-112909523D02*
X159252380Y-112338095D01*
X160252380Y-112623809D02*
X159252380Y-112623809D01*
X157804761Y-114985714D02*
X157852380Y-114842857D01*
X157852380Y-114604761D01*
X157804761Y-114509523D01*
X157757142Y-114461904D01*
X157661904Y-114414285D01*
X157566666Y-114414285D01*
X157471428Y-114461904D01*
X157423809Y-114509523D01*
X157376190Y-114604761D01*
X157328571Y-114795238D01*
X157280952Y-114890476D01*
X157233333Y-114938095D01*
X157138095Y-114985714D01*
X157042857Y-114985714D01*
X156947619Y-114938095D01*
X156900000Y-114890476D01*
X156852380Y-114795238D01*
X156852380Y-114557142D01*
X156900000Y-114414285D01*
X157757142Y-113414285D02*
X157804761Y-113461904D01*
X157852380Y-113604761D01*
X157852380Y-113700000D01*
X157804761Y-113842857D01*
X157709523Y-113938095D01*
X157614285Y-113985714D01*
X157423809Y-114033333D01*
X157280952Y-114033333D01*
X157090476Y-113985714D01*
X156995238Y-113938095D01*
X156900000Y-113842857D01*
X156852380Y-113700000D01*
X156852380Y-113604761D01*
X156900000Y-113461904D01*
X156947619Y-113414285D01*
X157852380Y-112985714D02*
X156852380Y-112985714D01*
X157852380Y-112414285D02*
X157280952Y-112842857D01*
X156852380Y-112414285D02*
X157423809Y-112985714D01*
X157752380Y-111271428D02*
X156752380Y-111271428D01*
X157466666Y-110938095D01*
X156752380Y-110604761D01*
X157752380Y-110604761D01*
X156752380Y-109938095D02*
X156752380Y-109747619D01*
X156800000Y-109652380D01*
X156895238Y-109557142D01*
X157085714Y-109509523D01*
X157419047Y-109509523D01*
X157609523Y-109557142D01*
X157704761Y-109652380D01*
X157752380Y-109747619D01*
X157752380Y-109938095D01*
X157704761Y-110033333D01*
X157609523Y-110128571D01*
X157419047Y-110176190D01*
X157085714Y-110176190D01*
X156895238Y-110128571D01*
X156800000Y-110033333D01*
X156752380Y-109938095D01*
X157704761Y-109128571D02*
X157752380Y-108985714D01*
X157752380Y-108747619D01*
X157704761Y-108652380D01*
X157657142Y-108604761D01*
X157561904Y-108557142D01*
X157466666Y-108557142D01*
X157371428Y-108604761D01*
X157323809Y-108652380D01*
X157276190Y-108747619D01*
X157228571Y-108938095D01*
X157180952Y-109033333D01*
X157133333Y-109080952D01*
X157038095Y-109128571D01*
X156942857Y-109128571D01*
X156847619Y-109080952D01*
X156800000Y-109033333D01*
X156752380Y-108938095D01*
X156752380Y-108700000D01*
X156800000Y-108557142D01*
X157752380Y-108128571D02*
X156752380Y-108128571D01*
X155352380Y-115571428D02*
X154352380Y-115571428D01*
X155066666Y-115238095D01*
X154352380Y-114904761D01*
X155352380Y-114904761D01*
X155352380Y-114428571D02*
X154352380Y-114428571D01*
X155304761Y-114000000D02*
X155352380Y-113857142D01*
X155352380Y-113619047D01*
X155304761Y-113523809D01*
X155257142Y-113476190D01*
X155161904Y-113428571D01*
X155066666Y-113428571D01*
X154971428Y-113476190D01*
X154923809Y-113523809D01*
X154876190Y-113619047D01*
X154828571Y-113809523D01*
X154780952Y-113904761D01*
X154733333Y-113952380D01*
X154638095Y-114000000D01*
X154542857Y-114000000D01*
X154447619Y-113952380D01*
X154400000Y-113904761D01*
X154352380Y-113809523D01*
X154352380Y-113571428D01*
X154400000Y-113428571D01*
X154352380Y-112809523D02*
X154352380Y-112619047D01*
X154400000Y-112523809D01*
X154495238Y-112428571D01*
X154685714Y-112380952D01*
X155019047Y-112380952D01*
X155209523Y-112428571D01*
X155304761Y-112523809D01*
X155352380Y-112619047D01*
X155352380Y-112809523D01*
X155304761Y-112904761D01*
X155209523Y-113000000D01*
X155019047Y-113047619D01*
X154685714Y-113047619D01*
X154495238Y-113000000D01*
X154400000Y-112904761D01*
X154352380Y-112809523D01*
X154871428Y-111561904D02*
X154871428Y-110800000D01*
X155252380Y-111180952D02*
X154490476Y-111180952D01*
X154252380Y-110419047D02*
X154252380Y-109800000D01*
X154633333Y-110133333D01*
X154633333Y-109990476D01*
X154680952Y-109895238D01*
X154728571Y-109847619D01*
X154823809Y-109800000D01*
X155061904Y-109800000D01*
X155157142Y-109847619D01*
X155204761Y-109895238D01*
X155252380Y-109990476D01*
X155252380Y-110276190D01*
X155204761Y-110371428D01*
X155157142Y-110419047D01*
X154252380Y-109514285D02*
X155252380Y-109180952D01*
X154252380Y-108847619D01*
X154252380Y-108609523D02*
X154252380Y-107990476D01*
X154633333Y-108323809D01*
X154633333Y-108180952D01*
X154680952Y-108085714D01*
X154728571Y-108038095D01*
X154823809Y-107990476D01*
X155061904Y-107990476D01*
X155157142Y-108038095D01*
X155204761Y-108085714D01*
X155252380Y-108180952D01*
X155252380Y-108466666D01*
X155204761Y-108561904D01*
X155157142Y-108609523D01*
D12*
X148442857Y-43861904D02*
X148252380Y-43766666D01*
X148157142Y-43671428D01*
X148061904Y-43480952D01*
X148061904Y-43385714D01*
X148157142Y-43195238D01*
X148252380Y-43100000D01*
X148442857Y-43004761D01*
X148823809Y-43004761D01*
X149014285Y-43100000D01*
X149109523Y-43195238D01*
X149204761Y-43385714D01*
X149204761Y-43480952D01*
X149109523Y-43671428D01*
X149014285Y-43766666D01*
X148823809Y-43861904D01*
X148442857Y-43861904D01*
X148252380Y-43957142D01*
X148157142Y-44052380D01*
X148061904Y-44242857D01*
X148061904Y-44623809D01*
X148157142Y-44814285D01*
X148252380Y-44909523D01*
X148442857Y-45004761D01*
X148823809Y-45004761D01*
X149014285Y-44909523D01*
X149109523Y-44814285D01*
X149204761Y-44623809D01*
X149204761Y-44242857D01*
X149109523Y-44052380D01*
X149014285Y-43957142D01*
X148823809Y-43861904D01*
X150919047Y-43004761D02*
X150538095Y-43004761D01*
X150347619Y-43100000D01*
X150252380Y-43195238D01*
X150061904Y-43480952D01*
X149966666Y-43861904D01*
X149966666Y-44623809D01*
X150061904Y-44814285D01*
X150157142Y-44909523D01*
X150347619Y-45004761D01*
X150728571Y-45004761D01*
X150919047Y-44909523D01*
X151014285Y-44814285D01*
X151109523Y-44623809D01*
X151109523Y-44147619D01*
X151014285Y-43957142D01*
X150919047Y-43861904D01*
X150728571Y-43766666D01*
X150347619Y-43766666D01*
X150157142Y-43861904D01*
X150061904Y-43957142D01*
X149966666Y-44147619D01*
X152252380Y-43861904D02*
X152061904Y-43766666D01*
X151966666Y-43671428D01*
X151871428Y-43480952D01*
X151871428Y-43385714D01*
X151966666Y-43195238D01*
X152061904Y-43100000D01*
X152252380Y-43004761D01*
X152633333Y-43004761D01*
X152823809Y-43100000D01*
X152919047Y-43195238D01*
X153014285Y-43385714D01*
X153014285Y-43480952D01*
X152919047Y-43671428D01*
X152823809Y-43766666D01*
X152633333Y-43861904D01*
X152252380Y-43861904D01*
X152061904Y-43957142D01*
X151966666Y-44052380D01*
X151871428Y-44242857D01*
X151871428Y-44623809D01*
X151966666Y-44814285D01*
X152061904Y-44909523D01*
X152252380Y-45004761D01*
X152633333Y-45004761D01*
X152823809Y-44909523D01*
X152919047Y-44814285D01*
X153014285Y-44623809D01*
X153014285Y-44242857D01*
X152919047Y-44052380D01*
X152823809Y-43957142D01*
X152633333Y-43861904D01*
X155395238Y-45004761D02*
X155395238Y-43004761D01*
X156061904Y-44433333D01*
X156728571Y-43004761D01*
X156728571Y-45004761D01*
X157680952Y-45004761D02*
X157680952Y-43004761D01*
X157680952Y-43957142D02*
X158823809Y-43957142D01*
X158823809Y-45004761D02*
X158823809Y-43004761D01*
X159585714Y-43671428D02*
X160633333Y-43671428D01*
X159585714Y-45004761D01*
X160633333Y-45004761D01*
D13*
G36*
X161787281Y-63763366D02*
G01*
X162284617Y-64001993D01*
X162807687Y-64152502D01*
X163405780Y-64225961D01*
X163898667Y-64237442D01*
X164365501Y-64225784D01*
X164719197Y-64192826D01*
X165015425Y-64130558D01*
X165295667Y-64036443D01*
X165577499Y-63921908D01*
X165802115Y-63819123D01*
X165908422Y-63758600D01*
X166081383Y-63712586D01*
X166257436Y-63813489D01*
X166352868Y-63946551D01*
X166391892Y-64052336D01*
X166353859Y-64135770D01*
X166210312Y-64227521D01*
X165998573Y-64328344D01*
X165266909Y-64591132D01*
X164479271Y-64748784D01*
X163686160Y-64796251D01*
X162938077Y-64728482D01*
X162646285Y-64663589D01*
X162278188Y-64550733D01*
X161912652Y-64415514D01*
X161593402Y-64276450D01*
X161364162Y-64152060D01*
X161282628Y-64086062D01*
X161265643Y-63938664D01*
X161348742Y-63792491D01*
X161496228Y-63596965D01*
X161787281Y-63763366D01*
X161787281Y-63763366D01*
G37*
X161787281Y-63763366D02*
X162284617Y-64001993D01*
X162807687Y-64152502D01*
X163405780Y-64225961D01*
X163898667Y-64237442D01*
X164365501Y-64225784D01*
X164719197Y-64192826D01*
X165015425Y-64130558D01*
X165295667Y-64036443D01*
X165577499Y-63921908D01*
X165802115Y-63819123D01*
X165908422Y-63758600D01*
X166081383Y-63712586D01*
X166257436Y-63813489D01*
X166352868Y-63946551D01*
X166391892Y-64052336D01*
X166353859Y-64135770D01*
X166210312Y-64227521D01*
X165998573Y-64328344D01*
X165266909Y-64591132D01*
X164479271Y-64748784D01*
X163686160Y-64796251D01*
X162938077Y-64728482D01*
X162646285Y-64663589D01*
X162278188Y-64550733D01*
X161912652Y-64415514D01*
X161593402Y-64276450D01*
X161364162Y-64152060D01*
X161282628Y-64086062D01*
X161265643Y-63938664D01*
X161348742Y-63792491D01*
X161496228Y-63596965D01*
X161787281Y-63763366D01*
G36*
X162087060Y-62960485D02*
G01*
X162284234Y-63026668D01*
X162557504Y-63130551D01*
X162601571Y-63148138D01*
X163310631Y-63346574D01*
X164037221Y-63388086D01*
X164749050Y-63272513D01*
X165077524Y-63160579D01*
X165366603Y-63047735D01*
X165541634Y-62997296D01*
X165643995Y-63004461D01*
X165715064Y-63064428D01*
X165730998Y-63084742D01*
X165816382Y-63215060D01*
X165812555Y-63306195D01*
X165696697Y-63391591D01*
X165445988Y-63504691D01*
X165443834Y-63505604D01*
X164686398Y-63753782D01*
X163941652Y-63843534D01*
X163174292Y-63778823D01*
X163112243Y-63767356D01*
X162797751Y-63685973D01*
X162435287Y-63562482D01*
X162233998Y-63480547D01*
X161976865Y-63360481D01*
X161850867Y-63275964D01*
X161829517Y-63200659D01*
X161874630Y-63123221D01*
X161972486Y-62993059D01*
X162006113Y-62945651D01*
X162087060Y-62960485D01*
X162087060Y-62960485D01*
G37*
X162087060Y-62960485D02*
X162284234Y-63026668D01*
X162557504Y-63130551D01*
X162601571Y-63148138D01*
X163310631Y-63346574D01*
X164037221Y-63388086D01*
X164749050Y-63272513D01*
X165077524Y-63160579D01*
X165366603Y-63047735D01*
X165541634Y-62997296D01*
X165643995Y-63004461D01*
X165715064Y-63064428D01*
X165730998Y-63084742D01*
X165816382Y-63215060D01*
X165812555Y-63306195D01*
X165696697Y-63391591D01*
X165445988Y-63504691D01*
X165443834Y-63505604D01*
X164686398Y-63753782D01*
X163941652Y-63843534D01*
X163174292Y-63778823D01*
X163112243Y-63767356D01*
X162797751Y-63685973D01*
X162435287Y-63562482D01*
X162233998Y-63480547D01*
X161976865Y-63360481D01*
X161850867Y-63275964D01*
X161829517Y-63200659D01*
X161874630Y-63123221D01*
X161972486Y-62993059D01*
X162006113Y-62945651D01*
X162087060Y-62960485D01*
G36*
X162785933Y-62304337D02*
G01*
X163209925Y-62450900D01*
X163705009Y-62522396D01*
X164211133Y-62517924D01*
X164668243Y-62436586D01*
X164921514Y-62336335D01*
X165078458Y-62281227D01*
X165171883Y-62342890D01*
X165178138Y-62352425D01*
X165243654Y-62483990D01*
X165252037Y-62520228D01*
X165177230Y-62592535D01*
X164979053Y-62679361D01*
X164701330Y-62768370D01*
X164387881Y-62847228D01*
X164082527Y-62903599D01*
X163829091Y-62925147D01*
X163814000Y-62925025D01*
X163611198Y-62901074D01*
X163326350Y-62843754D01*
X163153380Y-62800690D01*
X162777456Y-62690231D01*
X162546884Y-62594757D01*
X162440208Y-62500142D01*
X162435967Y-62392255D01*
X162457867Y-62342740D01*
X162533165Y-62240264D01*
X162636420Y-62237818D01*
X162785933Y-62304337D01*
X162785933Y-62304337D01*
G37*
X162785933Y-62304337D02*
X163209925Y-62450900D01*
X163705009Y-62522396D01*
X164211133Y-62517924D01*
X164668243Y-62436586D01*
X164921514Y-62336335D01*
X165078458Y-62281227D01*
X165171883Y-62342890D01*
X165178138Y-62352425D01*
X165243654Y-62483990D01*
X165252037Y-62520228D01*
X165177230Y-62592535D01*
X164979053Y-62679361D01*
X164701330Y-62768370D01*
X164387881Y-62847228D01*
X164082527Y-62903599D01*
X163829091Y-62925147D01*
X163814000Y-62925025D01*
X163611198Y-62901074D01*
X163326350Y-62843754D01*
X163153380Y-62800690D01*
X162777456Y-62690231D01*
X162546884Y-62594757D01*
X162440208Y-62500142D01*
X162435967Y-62392255D01*
X162457867Y-62342740D01*
X162533165Y-62240264D01*
X162636420Y-62237818D01*
X162785933Y-62304337D01*
G36*
X164391730Y-58833485D02*
G01*
X164863389Y-59022252D01*
X165221730Y-59328593D01*
X165457894Y-59745742D01*
X165544216Y-60089499D01*
X165547862Y-60610390D01*
X165408296Y-61070396D01*
X165145461Y-61453958D01*
X164779299Y-61745517D01*
X164329752Y-61929513D01*
X163816764Y-61990386D01*
X163260277Y-61912577D01*
X163221334Y-61901854D01*
X162758424Y-61693334D01*
X162417331Y-61369390D01*
X162203251Y-60937374D01*
X162121382Y-60404637D01*
X162120732Y-60350334D01*
X163094334Y-60350334D01*
X163112791Y-60657258D01*
X163182173Y-60866167D01*
X163299592Y-61020846D01*
X163568728Y-61194188D01*
X163892736Y-61240750D01*
X164210568Y-61157188D01*
X164333787Y-61077481D01*
X164443520Y-60966529D01*
X164504157Y-60825106D01*
X164529506Y-60602982D01*
X164533667Y-60350334D01*
X164525854Y-60033665D01*
X164493210Y-59835740D01*
X164421929Y-59706327D01*
X164333787Y-59623186D01*
X164038272Y-59480766D01*
X163709472Y-59469953D01*
X163408432Y-59587406D01*
X163299592Y-59679821D01*
X163169143Y-59859324D01*
X163107816Y-60077400D01*
X163094334Y-60350334D01*
X162120732Y-60350334D01*
X162120667Y-60344977D01*
X162190074Y-59814142D01*
X162392933Y-59383805D01*
X162721200Y-59061448D01*
X163166828Y-58854549D01*
X163721774Y-58770588D01*
X163815610Y-58769059D01*
X164391730Y-58833485D01*
X164391730Y-58833485D01*
G37*
X164391730Y-58833485D02*
X164863389Y-59022252D01*
X165221730Y-59328593D01*
X165457894Y-59745742D01*
X165544216Y-60089499D01*
X165547862Y-60610390D01*
X165408296Y-61070396D01*
X165145461Y-61453958D01*
X164779299Y-61745517D01*
X164329752Y-61929513D01*
X163816764Y-61990386D01*
X163260277Y-61912577D01*
X163221334Y-61901854D01*
X162758424Y-61693334D01*
X162417331Y-61369390D01*
X162203251Y-60937374D01*
X162121382Y-60404637D01*
X162120732Y-60350334D01*
X163094334Y-60350334D01*
X163112791Y-60657258D01*
X163182173Y-60866167D01*
X163299592Y-61020846D01*
X163568728Y-61194188D01*
X163892736Y-61240750D01*
X164210568Y-61157188D01*
X164333787Y-61077481D01*
X164443520Y-60966529D01*
X164504157Y-60825106D01*
X164529506Y-60602982D01*
X164533667Y-60350334D01*
X164525854Y-60033665D01*
X164493210Y-59835740D01*
X164421929Y-59706327D01*
X164333787Y-59623186D01*
X164038272Y-59480766D01*
X163709472Y-59469953D01*
X163408432Y-59587406D01*
X163299592Y-59679821D01*
X163169143Y-59859324D01*
X163107816Y-60077400D01*
X163094334Y-60350334D01*
X162120732Y-60350334D01*
X162120667Y-60344977D01*
X162190074Y-59814142D01*
X162392933Y-59383805D01*
X162721200Y-59061448D01*
X163166828Y-58854549D01*
X163721774Y-58770588D01*
X163815610Y-58769059D01*
X164391730Y-58833485D01*
G36*
X172138333Y-58765353D02*
G01*
X172537759Y-58812254D01*
X172847975Y-58904838D01*
X172894949Y-58929381D01*
X173071316Y-59048192D01*
X173199275Y-59186007D01*
X173286436Y-59370766D01*
X173340411Y-59630409D01*
X173368811Y-59992875D01*
X173379249Y-60486106D01*
X173380085Y-60710167D01*
X173381334Y-61916667D01*
X172958000Y-61916667D01*
X172691782Y-61903071D01*
X172561756Y-61855999D01*
X172534667Y-61789667D01*
X172518543Y-61689006D01*
X172443838Y-61676006D01*
X172271056Y-61749276D01*
X172212962Y-61778351D01*
X171743400Y-61931609D01*
X171269304Y-61930074D01*
X171053000Y-61873660D01*
X170690648Y-61681873D01*
X170479761Y-61415877D01*
X170418000Y-61106938D01*
X170443744Y-60918601D01*
X171359388Y-60918601D01*
X171385946Y-61114174D01*
X171497500Y-61232552D01*
X171750896Y-61315390D01*
X171999839Y-61246527D01*
X172132014Y-61156572D01*
X172282090Y-60980487D01*
X172387700Y-60754982D01*
X172422367Y-60548399D01*
X172399985Y-60464904D01*
X172305918Y-60453895D01*
X172111181Y-60491269D01*
X171871527Y-60560559D01*
X171642708Y-60645297D01*
X171480478Y-60729016D01*
X171464391Y-60741245D01*
X171359388Y-60918601D01*
X170443744Y-60918601D01*
X170467693Y-60743408D01*
X170626849Y-60457782D01*
X170910585Y-60237344D01*
X171334018Y-60069383D01*
X171774749Y-59965911D01*
X172111860Y-59896860D01*
X172311230Y-59835116D01*
X172402425Y-59761870D01*
X172415013Y-59658314D01*
X172396284Y-59570543D01*
X172287004Y-59419252D01*
X172092732Y-59338407D01*
X171867161Y-59326737D01*
X171663985Y-59382972D01*
X171536898Y-59505839D01*
X171518667Y-59591312D01*
X171476872Y-59663783D01*
X171331126Y-59702601D01*
X171050888Y-59715224D01*
X171010667Y-59715334D01*
X170742704Y-59708510D01*
X170558625Y-59690775D01*
X170502667Y-59670281D01*
X170563511Y-59447776D01*
X170714818Y-59195374D01*
X170909747Y-58982281D01*
X171019735Y-58906311D01*
X171317825Y-58811625D01*
X171711190Y-58764891D01*
X172138333Y-58765353D01*
X172138333Y-58765353D01*
G37*
X172138333Y-58765353D02*
X172537759Y-58812254D01*
X172847975Y-58904838D01*
X172894949Y-58929381D01*
X173071316Y-59048192D01*
X173199275Y-59186007D01*
X173286436Y-59370766D01*
X173340411Y-59630409D01*
X173368811Y-59992875D01*
X173379249Y-60486106D01*
X173380085Y-60710167D01*
X173381334Y-61916667D01*
X172958000Y-61916667D01*
X172691782Y-61903071D01*
X172561756Y-61855999D01*
X172534667Y-61789667D01*
X172518543Y-61689006D01*
X172443838Y-61676006D01*
X172271056Y-61749276D01*
X172212962Y-61778351D01*
X171743400Y-61931609D01*
X171269304Y-61930074D01*
X171053000Y-61873660D01*
X170690648Y-61681873D01*
X170479761Y-61415877D01*
X170418000Y-61106938D01*
X170443744Y-60918601D01*
X171359388Y-60918601D01*
X171385946Y-61114174D01*
X171497500Y-61232552D01*
X171750896Y-61315390D01*
X171999839Y-61246527D01*
X172132014Y-61156572D01*
X172282090Y-60980487D01*
X172387700Y-60754982D01*
X172422367Y-60548399D01*
X172399985Y-60464904D01*
X172305918Y-60453895D01*
X172111181Y-60491269D01*
X171871527Y-60560559D01*
X171642708Y-60645297D01*
X171480478Y-60729016D01*
X171464391Y-60741245D01*
X171359388Y-60918601D01*
X170443744Y-60918601D01*
X170467693Y-60743408D01*
X170626849Y-60457782D01*
X170910585Y-60237344D01*
X171334018Y-60069383D01*
X171774749Y-59965911D01*
X172111860Y-59896860D01*
X172311230Y-59835116D01*
X172402425Y-59761870D01*
X172415013Y-59658314D01*
X172396284Y-59570543D01*
X172287004Y-59419252D01*
X172092732Y-59338407D01*
X171867161Y-59326737D01*
X171663985Y-59382972D01*
X171536898Y-59505839D01*
X171518667Y-59591312D01*
X171476872Y-59663783D01*
X171331126Y-59702601D01*
X171050888Y-59715224D01*
X171010667Y-59715334D01*
X170742704Y-59708510D01*
X170558625Y-59690775D01*
X170502667Y-59670281D01*
X170563511Y-59447776D01*
X170714818Y-59195374D01*
X170909747Y-58982281D01*
X171019735Y-58906311D01*
X171317825Y-58811625D01*
X171711190Y-58764891D01*
X172138333Y-58765353D01*
G36*
X160069357Y-59394790D02*
G01*
X160092381Y-60979246D01*
X160916024Y-61003457D01*
X161739667Y-61027667D01*
X161739667Y-61874334D01*
X160361984Y-61897606D01*
X159821397Y-61903661D01*
X159429705Y-61899996D01*
X159166686Y-61885381D01*
X159012116Y-61858581D01*
X158945769Y-61818367D01*
X158942179Y-61811107D01*
X158931079Y-61697971D01*
X158923053Y-61440979D01*
X158918341Y-61065582D01*
X158917181Y-60597235D01*
X158919813Y-60061390D01*
X158922861Y-59755835D01*
X158945667Y-57810334D01*
X160046334Y-57810334D01*
X160069357Y-59394790D01*
X160069357Y-59394790D01*
G37*
X160069357Y-59394790D02*
X160092381Y-60979246D01*
X160916024Y-61003457D01*
X161739667Y-61027667D01*
X161739667Y-61874334D01*
X160361984Y-61897606D01*
X159821397Y-61903661D01*
X159429705Y-61899996D01*
X159166686Y-61885381D01*
X159012116Y-61858581D01*
X158945769Y-61818367D01*
X158942179Y-61811107D01*
X158931079Y-61697971D01*
X158923053Y-61440979D01*
X158918341Y-61065582D01*
X158917181Y-60597235D01*
X158919813Y-60061390D01*
X158922861Y-59755835D01*
X158945667Y-57810334D01*
X160046334Y-57810334D01*
X160069357Y-59394790D01*
G36*
X167433500Y-57768472D02*
G01*
X167906915Y-57774939D01*
X168347547Y-57792367D01*
X168714368Y-57818336D01*
X168966353Y-57850426D01*
X169017027Y-57861866D01*
X169407717Y-58042409D01*
X169700108Y-58319398D01*
X169888795Y-58660709D01*
X169968371Y-59034218D01*
X169933429Y-59407801D01*
X169778563Y-59749335D01*
X169498366Y-60026697D01*
X169392190Y-60090919D01*
X169086047Y-60254837D01*
X169540357Y-61004062D01*
X169729643Y-61323696D01*
X169880303Y-61592328D01*
X169973573Y-61775636D01*
X169994667Y-61834977D01*
X169917292Y-61875808D01*
X169714165Y-61905098D01*
X169428783Y-61916658D01*
X169420539Y-61916667D01*
X168846410Y-61916667D01*
X168395296Y-61154667D01*
X168191701Y-60814683D01*
X168046976Y-60594688D01*
X167934377Y-60468572D01*
X167827160Y-60410227D01*
X167698582Y-60393544D01*
X167614758Y-60392667D01*
X167285334Y-60392667D01*
X167285334Y-61916667D01*
X166184667Y-61916667D01*
X166184667Y-59630667D01*
X167285334Y-59630667D01*
X167904151Y-59630667D01*
X168260021Y-59615731D01*
X168531099Y-59575141D01*
X168661517Y-59524834D01*
X168824992Y-59305200D01*
X168852779Y-59036811D01*
X168739065Y-58780756D01*
X168630174Y-58672879D01*
X168488416Y-58606324D01*
X168268084Y-58567725D01*
X167929522Y-58544022D01*
X167285334Y-58511492D01*
X167285334Y-59630667D01*
X166184667Y-59630667D01*
X166184667Y-57768000D01*
X167433500Y-57768472D01*
X167433500Y-57768472D01*
G37*
X167433500Y-57768472D02*
X167906915Y-57774939D01*
X168347547Y-57792367D01*
X168714368Y-57818336D01*
X168966353Y-57850426D01*
X169017027Y-57861866D01*
X169407717Y-58042409D01*
X169700108Y-58319398D01*
X169888795Y-58660709D01*
X169968371Y-59034218D01*
X169933429Y-59407801D01*
X169778563Y-59749335D01*
X169498366Y-60026697D01*
X169392190Y-60090919D01*
X169086047Y-60254837D01*
X169540357Y-61004062D01*
X169729643Y-61323696D01*
X169880303Y-61592328D01*
X169973573Y-61775636D01*
X169994667Y-61834977D01*
X169917292Y-61875808D01*
X169714165Y-61905098D01*
X169428783Y-61916658D01*
X169420539Y-61916667D01*
X168846410Y-61916667D01*
X168395296Y-61154667D01*
X168191701Y-60814683D01*
X168046976Y-60594688D01*
X167934377Y-60468572D01*
X167827160Y-60410227D01*
X167698582Y-60393544D01*
X167614758Y-60392667D01*
X167285334Y-60392667D01*
X167285334Y-61916667D01*
X166184667Y-61916667D01*
X166184667Y-59630667D01*
X167285334Y-59630667D01*
X167904151Y-59630667D01*
X168260021Y-59615731D01*
X168531099Y-59575141D01*
X168661517Y-59524834D01*
X168824992Y-59305200D01*
X168852779Y-59036811D01*
X168739065Y-58780756D01*
X168630174Y-58672879D01*
X168488416Y-58606324D01*
X168268084Y-58567725D01*
X167929522Y-58544022D01*
X167285334Y-58511492D01*
X167285334Y-59630667D01*
X166184667Y-59630667D01*
X166184667Y-57768000D01*
X167433500Y-57768472D01*
G36*
X164227984Y-57878119D02*
G01*
X164581190Y-57933359D01*
X164734424Y-57976043D01*
X165051111Y-58099019D01*
X165211686Y-58210147D01*
X165227887Y-58319965D01*
X165183751Y-58379449D01*
X165053661Y-58414562D01*
X164813297Y-58353906D01*
X164730478Y-58322268D01*
X164342726Y-58221503D01*
X163879636Y-58180579D01*
X163412742Y-58199950D01*
X163013581Y-58280068D01*
X162929821Y-58310863D01*
X162712479Y-58401291D01*
X162599200Y-58433330D01*
X162535649Y-58408466D01*
X162467493Y-58328182D01*
X162463709Y-58323606D01*
X162438460Y-58201633D01*
X162553597Y-58091765D01*
X162780344Y-57998404D01*
X163089930Y-57925954D01*
X163453581Y-57878821D01*
X163842523Y-57861408D01*
X164227984Y-57878119D01*
X164227984Y-57878119D01*
G37*
X164227984Y-57878119D02*
X164581190Y-57933359D01*
X164734424Y-57976043D01*
X165051111Y-58099019D01*
X165211686Y-58210147D01*
X165227887Y-58319965D01*
X165183751Y-58379449D01*
X165053661Y-58414562D01*
X164813297Y-58353906D01*
X164730478Y-58322268D01*
X164342726Y-58221503D01*
X163879636Y-58180579D01*
X163412742Y-58199950D01*
X163013581Y-58280068D01*
X162929821Y-58310863D01*
X162712479Y-58401291D01*
X162599200Y-58433330D01*
X162535649Y-58408466D01*
X162467493Y-58328182D01*
X162463709Y-58323606D01*
X162438460Y-58201633D01*
X162553597Y-58091765D01*
X162780344Y-57998404D01*
X163089930Y-57925954D01*
X163453581Y-57878821D01*
X163842523Y-57861408D01*
X164227984Y-57878119D01*
G36*
X164466211Y-56949124D02*
G01*
X165194700Y-57149952D01*
X165525265Y-57288652D01*
X165714309Y-57398532D01*
X165782688Y-57498809D01*
X165751257Y-57608700D01*
X165728722Y-57642023D01*
X165655738Y-57725493D01*
X165569720Y-57749518D01*
X165424336Y-57710587D01*
X165173255Y-57605185D01*
X165158666Y-57598796D01*
X164799754Y-57473785D01*
X164383394Y-57397788D01*
X163941000Y-57363205D01*
X163410390Y-57361827D01*
X162951606Y-57423336D01*
X162488140Y-57562463D01*
X162120493Y-57713685D01*
X161975244Y-57695521D01*
X161884827Y-57596282D01*
X161836399Y-57493093D01*
X161865459Y-57412958D01*
X161999479Y-57325254D01*
X162223667Y-57218587D01*
X162936746Y-56982927D01*
X163697682Y-56892796D01*
X164466211Y-56949124D01*
X164466211Y-56949124D01*
G37*
X164466211Y-56949124D02*
X165194700Y-57149952D01*
X165525265Y-57288652D01*
X165714309Y-57398532D01*
X165782688Y-57498809D01*
X165751257Y-57608700D01*
X165728722Y-57642023D01*
X165655738Y-57725493D01*
X165569720Y-57749518D01*
X165424336Y-57710587D01*
X165173255Y-57605185D01*
X165158666Y-57598796D01*
X164799754Y-57473785D01*
X164383394Y-57397788D01*
X163941000Y-57363205D01*
X163410390Y-57361827D01*
X162951606Y-57423336D01*
X162488140Y-57562463D01*
X162120493Y-57713685D01*
X161975244Y-57695521D01*
X161884827Y-57596282D01*
X161836399Y-57493093D01*
X161865459Y-57412958D01*
X161999479Y-57325254D01*
X162223667Y-57218587D01*
X162936746Y-56982927D01*
X163697682Y-56892796D01*
X164466211Y-56949124D01*
G36*
X164565042Y-55973589D02*
G01*
X165349516Y-56160239D01*
X165948139Y-56385656D01*
X166249563Y-56537404D01*
X166400577Y-56665059D01*
X166413887Y-56789999D01*
X166302196Y-56933603D01*
X166283833Y-56950545D01*
X166149027Y-57061174D01*
X166050604Y-57067298D01*
X165905829Y-56970522D01*
X165889538Y-56958210D01*
X165663336Y-56837068D01*
X165318921Y-56710824D01*
X164906257Y-56594143D01*
X164475307Y-56501686D01*
X164189259Y-56459204D01*
X163529108Y-56452801D01*
X162807652Y-56569346D01*
X162071425Y-56801231D01*
X162053462Y-56808348D01*
X161748015Y-56920556D01*
X161554645Y-56963199D01*
X161434173Y-56942841D01*
X161397296Y-56918259D01*
X161291832Y-56775162D01*
X161274000Y-56701021D01*
X161352750Y-56574021D01*
X161568059Y-56435439D01*
X161888514Y-56295132D01*
X162282704Y-56162951D01*
X162719214Y-56048754D01*
X163166634Y-55962392D01*
X163593550Y-55913722D01*
X163806377Y-55906585D01*
X164565042Y-55973589D01*
X164565042Y-55973589D01*
G37*
X164565042Y-55973589D02*
X165349516Y-56160239D01*
X165948139Y-56385656D01*
X166249563Y-56537404D01*
X166400577Y-56665059D01*
X166413887Y-56789999D01*
X166302196Y-56933603D01*
X166283833Y-56950545D01*
X166149027Y-57061174D01*
X166050604Y-57067298D01*
X165905829Y-56970522D01*
X165889538Y-56958210D01*
X165663336Y-56837068D01*
X165318921Y-56710824D01*
X164906257Y-56594143D01*
X164475307Y-56501686D01*
X164189259Y-56459204D01*
X163529108Y-56452801D01*
X162807652Y-56569346D01*
X162071425Y-56801231D01*
X162053462Y-56808348D01*
X161748015Y-56920556D01*
X161554645Y-56963199D01*
X161434173Y-56942841D01*
X161397296Y-56918259D01*
X161291832Y-56775162D01*
X161274000Y-56701021D01*
X161352750Y-56574021D01*
X161568059Y-56435439D01*
X161888514Y-56295132D01*
X162282704Y-56162951D01*
X162719214Y-56048754D01*
X163166634Y-55962392D01*
X163593550Y-55913722D01*
X163806377Y-55906585D01*
X164565042Y-55973589D01*
D11*
X153400000Y-75322000D02*
X153400000Y-76012000D01*
X153400000Y-76012000D02*
X135400000Y-76012000D01*
X135400000Y-76012000D02*
X135400000Y-75322000D01*
X153400000Y-49872000D02*
X153400000Y-49132000D01*
X153400000Y-49132000D02*
X148972000Y-49132000D01*
X139828000Y-49132000D02*
X135400000Y-49132000D01*
X135400000Y-49132000D02*
X135400000Y-49872000D01*
X153400000Y-75322000D02*
X154052000Y-75322000D01*
X135051817Y-88977767D02*
X135511437Y-89437386D01*
X136041767Y-87987817D02*
X135051817Y-88977767D01*
X132506233Y-86432183D02*
X133496183Y-85442233D01*
X135900346Y-85017969D02*
X136466031Y-85583654D01*
X132647654Y-89402031D02*
X132081969Y-88836346D01*
X131763771Y-90285914D02*
X132647654Y-89402031D01*
D10*
X144240901Y-86052575D02*
X143233274Y-85044948D01*
X149526524Y-91020000D02*
X149296714Y-90790190D01*
X144400000Y-96146524D02*
X144170190Y-95916714D01*
X139273476Y-91020000D02*
X139503286Y-91249810D01*
X144400000Y-85893476D02*
X144629810Y-86123286D01*
X139273476Y-91020000D02*
X139503286Y-90790190D01*
X144400000Y-96146524D02*
X144629810Y-95916714D01*
X149526524Y-91020000D02*
X149296714Y-91249810D01*
X144400000Y-85893476D02*
X144240901Y-86052575D01*
D14*
X168527500Y-93594500D02*
X168227500Y-93594500D01*
X168527500Y-93294500D02*
X168527500Y-93594500D01*
X164377500Y-93594500D02*
X164377500Y-93269500D01*
X164777500Y-93594500D02*
X164377500Y-93594500D01*
X168527500Y-88444500D02*
X168177500Y-88444500D01*
X168527500Y-88744500D02*
X168527500Y-88444500D01*
X164377500Y-88744500D02*
X163127500Y-88744500D01*
X164652500Y-88444500D02*
X164927500Y-88444500D01*
X164377500Y-88669500D02*
X164652500Y-88444500D01*
X164377500Y-88744500D02*
X164377500Y-88669500D01*
D11*
X125915000Y-105750500D02*
X125915000Y-104290500D01*
X129075000Y-105750500D02*
X129075000Y-103590500D01*
X129075000Y-105750500D02*
X128145000Y-105750500D01*
X125915000Y-105750500D02*
X126845000Y-105750500D01*
X144283000Y-79463000D02*
G75*
G03X144283000Y-79463000I-1500000J0D01*
G01*
X154062000Y-79463000D02*
G75*
G03X154062000Y-79463000I-1500000J0D01*
G01*
X154300000Y-84800000D02*
G75*
G03X154300000Y-84800000I-1500000J0D01*
G01*
X155500000Y-88600000D02*
G75*
G03X155500000Y-88600000I-1500000J0D01*
G01*
X155586000Y-96735000D02*
G75*
G03X155586000Y-96735000I-1500000J0D01*
G01*
X117100000Y-103974000D02*
G75*
G03X117100000Y-103974000I-1500000J0D01*
G01*
X121700000Y-103974000D02*
G75*
G03X121700000Y-103974000I-1500000J0D01*
G01*
X133234000Y-47967000D02*
G75*
G03X133234000Y-47967000I-1500000J0D01*
G01*
X133234000Y-51777000D02*
G75*
G03X133234000Y-51777000I-1500000J0D01*
G01*
X158634000Y-72097000D02*
G75*
G03X158634000Y-72097000I-1500000J0D01*
G01*
X158634000Y-76034000D02*
G75*
G03X158634000Y-76034000I-1500000J0D01*
G01*
X148166020Y-102360229D02*
X148408229Y-102118020D01*
X147444771Y-101638980D02*
X147686980Y-101396771D01*
X132921267Y-54188000D02*
X132578733Y-54188000D01*
X132921267Y-55208000D02*
X132578733Y-55208000D01*
X137434520Y-94676729D02*
X137676729Y-94434520D01*
X136713271Y-93955480D02*
X136955480Y-93713271D01*
X159067267Y-94256000D02*
X158724733Y-94256000D01*
X159067267Y-95276000D02*
X158724733Y-95276000D01*
X162073000Y-90478267D02*
X162073000Y-90135733D01*
X161053000Y-90478267D02*
X161053000Y-90135733D01*
X161053000Y-93642233D02*
X161053000Y-93984767D01*
X162073000Y-93642233D02*
X162073000Y-93984767D01*
X167041000Y-104226767D02*
X167041000Y-103884233D01*
X166021000Y-104226767D02*
X166021000Y-103884233D01*
X164370000Y-103884233D02*
X164370000Y-104226767D01*
X165390000Y-103884233D02*
X165390000Y-104226767D01*
X129804000Y-113450267D02*
X129804000Y-113107733D01*
X128784000Y-113450267D02*
X128784000Y-113107733D01*
X158655000Y-104773233D02*
X158655000Y-105115767D01*
X159675000Y-104773233D02*
X159675000Y-105115767D01*
D14*
X162847500Y-103294500D02*
X162847500Y-103594500D01*
X162472500Y-103294500D02*
X162847500Y-103294500D01*
X162847500Y-106594500D02*
X162397500Y-106594500D01*
X162847500Y-106294500D02*
X162847500Y-106594500D01*
X162847500Y-106369500D02*
X162847500Y-106244500D01*
X161197500Y-106594500D02*
X161197500Y-106244500D01*
X161672500Y-106594500D02*
X161197500Y-106594500D01*
X161197500Y-103619500D02*
X160422500Y-103619500D01*
X161197500Y-103569500D02*
X161197500Y-103619500D01*
X161572500Y-103294500D02*
X161197500Y-103569500D01*
X161847500Y-103294500D02*
X161572500Y-103294500D01*
X125611500Y-113038000D02*
X125611500Y-112738000D01*
X125986500Y-113038000D02*
X125611500Y-113038000D01*
X125611500Y-109738000D02*
X126061500Y-109738000D01*
X125611500Y-110038000D02*
X125611500Y-109738000D01*
X125611500Y-109963000D02*
X125611500Y-110088000D01*
X127261500Y-109738000D02*
X127261500Y-110088000D01*
X126786500Y-109738000D02*
X127261500Y-109738000D01*
X127261500Y-112713000D02*
X128036500Y-112713000D01*
X127261500Y-112763000D02*
X127261500Y-112713000D01*
X126886500Y-113038000D02*
X127261500Y-112763000D01*
X126611500Y-113038000D02*
X126886500Y-113038000D01*
D11*
X148180313Y-99707779D02*
X148549779Y-99338313D01*
X147176221Y-98703687D02*
X147545687Y-98334221D01*
X145212000Y-80736000D02*
X145212000Y-77936000D01*
X145212000Y-77936000D02*
X147212000Y-77936000D01*
X147212000Y-77936000D02*
X147212000Y-80736000D01*
X147212000Y-80736000D02*
X145212000Y-80736000D01*
X148133000Y-80736000D02*
X148133000Y-77936000D01*
X148133000Y-77936000D02*
X150133000Y-77936000D01*
X150133000Y-77936000D02*
X150133000Y-80736000D01*
X150133000Y-80736000D02*
X148133000Y-80736000D01*
X153550000Y-41110000D02*
X152440000Y-41110000D01*
X156340000Y-41110000D02*
X155230000Y-41110000D01*
X153550000Y-37400000D02*
X152440000Y-37400000D01*
X156340000Y-37400000D02*
X155230000Y-37400000D01*
X154390000Y-41660000D02*
X154140000Y-42160000D01*
X154140000Y-42160000D02*
X154640000Y-42160000D01*
X154640000Y-42160000D02*
X154390000Y-41660000D01*
X136357500Y-113915500D02*
X136357500Y-111375500D01*
X136357500Y-113915500D02*
X138897500Y-113915500D01*
X136607500Y-113665500D02*
X136607500Y-104315500D01*
X152387500Y-113665500D02*
X136607500Y-113665500D01*
X152387500Y-104315500D02*
X152387500Y-113665500D01*
X136607500Y-104315500D02*
X152387500Y-104315500D01*
X133828104Y-98983041D02*
X135850429Y-96960716D01*
X132470459Y-97625396D02*
X133828104Y-98983041D01*
X134492784Y-95603071D02*
X132470459Y-97625396D01*
X128659000Y-109483000D02*
X128659000Y-111388000D01*
X128659000Y-111388000D02*
X132405500Y-111388000D01*
X128659000Y-109483000D02*
X132405500Y-109483000D01*
X157517000Y-59949267D02*
X157517000Y-59606733D01*
X156497000Y-59949267D02*
X156497000Y-59606733D01*
X155866000Y-59949267D02*
X155866000Y-59606733D01*
X154846000Y-59949267D02*
X154846000Y-59606733D01*
X134276000Y-57409267D02*
X134276000Y-57066733D01*
X133256000Y-57409267D02*
X133256000Y-57066733D01*
X132625000Y-57409267D02*
X132625000Y-57066733D01*
X131605000Y-57409267D02*
X131605000Y-57066733D01*
X137688520Y-82611729D02*
X137930729Y-82369520D01*
X136967271Y-81890480D02*
X137209480Y-81648271D01*
X131580729Y-90907480D02*
X131338520Y-90665271D01*
X130859480Y-91628729D02*
X130617271Y-91386520D01*
X146607480Y-97142271D02*
X146365271Y-97384480D01*
X147328729Y-97863520D02*
X147086520Y-98105729D01*
X141117520Y-86040729D02*
X141359729Y-85798520D01*
X140396271Y-85319480D02*
X140638480Y-85077271D01*
X163321767Y-86826500D02*
X162979233Y-86826500D01*
X163321767Y-87846500D02*
X162979233Y-87846500D01*
X169646733Y-87846500D02*
X169989267Y-87846500D01*
X169646733Y-86826500D02*
X169989267Y-86826500D01*
X139974520Y-84897729D02*
X140216729Y-84655520D01*
X139253271Y-84176480D02*
X139495480Y-83934271D01*
X148778271Y-96720520D02*
X149020480Y-96962729D01*
X149499520Y-95999271D02*
X149741729Y-96241480D01*
X124090000Y-104691733D02*
X124090000Y-105034267D01*
X125110000Y-104691733D02*
X125110000Y-105034267D01*
X158448267Y-101813000D02*
X158105733Y-101813000D01*
X158448267Y-102833000D02*
X158105733Y-102833000D01*
X130672000Y-105288767D02*
X130672000Y-104946233D01*
X129652000Y-105288767D02*
X129652000Y-104946233D01*
X174435000Y-146076000D02*
X114365000Y-146076000D01*
X174435000Y-118006000D02*
X114365000Y-118006000D01*
X114365000Y-118006000D02*
X114365000Y-146076000D01*
X174435000Y-118006000D02*
X174435000Y-146076000D01*
D10*
X149678666Y-77248380D02*
X149678666Y-76248380D01*
X150012000Y-76962666D01*
X150345333Y-76248380D01*
X150345333Y-77248380D01*
X151012000Y-76248380D02*
X151202476Y-76248380D01*
X151297714Y-76296000D01*
X151392952Y-76391238D01*
X151440571Y-76581714D01*
X151440571Y-76915047D01*
X151392952Y-77105523D01*
X151297714Y-77200761D01*
X151202476Y-77248380D01*
X151012000Y-77248380D01*
X150916761Y-77200761D01*
X150821523Y-77105523D01*
X150773904Y-76915047D01*
X150773904Y-76581714D01*
X150821523Y-76391238D01*
X150916761Y-76296000D01*
X151012000Y-76248380D01*
X151869142Y-77248380D02*
X151869142Y-76248380D01*
X152107238Y-76248380D01*
X152250095Y-76296000D01*
X152345333Y-76391238D01*
X152392952Y-76486476D01*
X152440571Y-76676952D01*
X152440571Y-76819809D01*
X152392952Y-77010285D01*
X152345333Y-77105523D01*
X152250095Y-77200761D01*
X152107238Y-77248380D01*
X151869142Y-77248380D01*
X153392952Y-77248380D02*
X152821523Y-77248380D01*
X153107238Y-77248380D02*
X153107238Y-76248380D01*
X153012000Y-76391238D01*
X152916761Y-76486476D01*
X152821523Y-76534095D01*
X131622349Y-85231784D02*
X131959067Y-85568502D01*
X131016258Y-85097097D02*
X131622349Y-85231784D01*
X131487662Y-84625693D01*
X132800860Y-84726708D02*
X132396799Y-85130769D01*
X132598830Y-84928738D02*
X131891723Y-84221632D01*
X131925395Y-84389990D01*
X131925395Y-84524677D01*
X131891723Y-84625693D01*
X148526473Y-85816030D02*
X147954053Y-86388450D01*
X147920381Y-86489465D01*
X147920381Y-86556809D01*
X147954053Y-86657824D01*
X148088740Y-86792511D01*
X148189755Y-86826183D01*
X148257099Y-86826183D01*
X148358114Y-86792511D01*
X148930534Y-86220091D01*
X149199908Y-86489465D02*
X149637640Y-86927198D01*
X149132564Y-86960870D01*
X149233579Y-87061885D01*
X149267251Y-87162900D01*
X149267251Y-87230244D01*
X149233579Y-87331259D01*
X149065221Y-87499618D01*
X148964205Y-87533290D01*
X148896862Y-87533290D01*
X148795847Y-87499618D01*
X148593816Y-87297587D01*
X148560144Y-87196572D01*
X148560144Y-87129229D01*
X171104880Y-91751404D02*
X171914404Y-91751404D01*
X172009642Y-91703785D01*
X172057261Y-91656166D01*
X172104880Y-91560928D01*
X172104880Y-91370452D01*
X172057261Y-91275214D01*
X172009642Y-91227595D01*
X171914404Y-91179976D01*
X171104880Y-91179976D01*
X171200119Y-90751404D02*
X171152500Y-90703785D01*
X171104880Y-90608547D01*
X171104880Y-90370452D01*
X171152500Y-90275214D01*
X171200119Y-90227595D01*
X171295357Y-90179976D01*
X171390595Y-90179976D01*
X171533452Y-90227595D01*
X172104880Y-90799023D01*
X172104880Y-90179976D01*
X126947380Y-108800404D02*
X127756904Y-108800404D01*
X127852142Y-108752785D01*
X127899761Y-108705166D01*
X127947380Y-108609928D01*
X127947380Y-108419452D01*
X127899761Y-108324214D01*
X127852142Y-108276595D01*
X127756904Y-108228976D01*
X126947380Y-108228976D01*
X127947380Y-107228976D02*
X127947380Y-107800404D01*
X127947380Y-107514690D02*
X126947380Y-107514690D01*
X127090238Y-107609928D01*
X127185476Y-107705166D01*
X127233095Y-107800404D01*
X142021095Y-81582380D02*
X142592523Y-81582380D01*
X142306809Y-82582380D02*
X142306809Y-81582380D01*
X142830619Y-81582380D02*
X143497285Y-82582380D01*
X143497285Y-81582380D02*
X142830619Y-82582380D01*
X152395333Y-82455380D02*
X152062000Y-81979190D01*
X151823904Y-82455380D02*
X151823904Y-81455380D01*
X152204857Y-81455380D01*
X152300095Y-81503000D01*
X152347714Y-81550619D01*
X152395333Y-81645857D01*
X152395333Y-81788714D01*
X152347714Y-81883952D01*
X152300095Y-81931571D01*
X152204857Y-81979190D01*
X151823904Y-81979190D01*
X152728666Y-81455380D02*
X153395333Y-82455380D01*
X153395333Y-81455380D02*
X152728666Y-82455380D01*
X154809523Y-85204761D02*
X154952380Y-85252380D01*
X155190476Y-85252380D01*
X155285714Y-85204761D01*
X155333333Y-85157142D01*
X155380952Y-85061904D01*
X155380952Y-84966666D01*
X155333333Y-84871428D01*
X155285714Y-84823809D01*
X155190476Y-84776190D01*
X155000000Y-84728571D01*
X154904761Y-84680952D01*
X154857142Y-84633333D01*
X154809523Y-84538095D01*
X154809523Y-84442857D01*
X154857142Y-84347619D01*
X154904761Y-84300000D01*
X155000000Y-84252380D01*
X155238095Y-84252380D01*
X155380952Y-84300000D01*
X156380952Y-85157142D02*
X156333333Y-85204761D01*
X156190476Y-85252380D01*
X156095238Y-85252380D01*
X155952380Y-85204761D01*
X155857142Y-85109523D01*
X155809523Y-85014285D01*
X155761904Y-84823809D01*
X155761904Y-84680952D01*
X155809523Y-84490476D01*
X155857142Y-84395238D01*
X155952380Y-84300000D01*
X156095238Y-84252380D01*
X156190476Y-84252380D01*
X156333333Y-84300000D01*
X156380952Y-84347619D01*
X157285714Y-85252380D02*
X156809523Y-85252380D01*
X156809523Y-84252380D01*
X155985714Y-89004761D02*
X156128571Y-89052380D01*
X156366666Y-89052380D01*
X156461904Y-89004761D01*
X156509523Y-88957142D01*
X156557142Y-88861904D01*
X156557142Y-88766666D01*
X156509523Y-88671428D01*
X156461904Y-88623809D01*
X156366666Y-88576190D01*
X156176190Y-88528571D01*
X156080952Y-88480952D01*
X156033333Y-88433333D01*
X155985714Y-88338095D01*
X155985714Y-88242857D01*
X156033333Y-88147619D01*
X156080952Y-88100000D01*
X156176190Y-88052380D01*
X156414285Y-88052380D01*
X156557142Y-88100000D01*
X156985714Y-89052380D02*
X156985714Y-88052380D01*
X157223809Y-88052380D01*
X157366666Y-88100000D01*
X157461904Y-88195238D01*
X157509523Y-88290476D01*
X157557142Y-88480952D01*
X157557142Y-88623809D01*
X157509523Y-88814285D01*
X157461904Y-88909523D01*
X157366666Y-89004761D01*
X157223809Y-89052380D01*
X156985714Y-89052380D01*
X157938095Y-88766666D02*
X158414285Y-88766666D01*
X157842857Y-89052380D02*
X158176190Y-88052380D01*
X158509523Y-89052380D01*
X152443142Y-98787380D02*
X152776476Y-99787380D01*
X153109809Y-98787380D01*
X153776476Y-99263571D02*
X153919333Y-99311190D01*
X153966952Y-99358809D01*
X154014571Y-99454047D01*
X154014571Y-99596904D01*
X153966952Y-99692142D01*
X153919333Y-99739761D01*
X153824095Y-99787380D01*
X153443142Y-99787380D01*
X153443142Y-98787380D01*
X153776476Y-98787380D01*
X153871714Y-98835000D01*
X153919333Y-98882619D01*
X153966952Y-98977857D01*
X153966952Y-99073095D01*
X153919333Y-99168333D01*
X153871714Y-99215952D01*
X153776476Y-99263571D01*
X153443142Y-99263571D01*
X154395523Y-99501666D02*
X154871714Y-99501666D01*
X154300285Y-99787380D02*
X154633619Y-98787380D01*
X154966952Y-99787380D01*
X155157428Y-98787380D02*
X155728857Y-98787380D01*
X155443142Y-99787380D02*
X155443142Y-98787380D01*
X114906595Y-100680000D02*
X114811357Y-100632380D01*
X114668500Y-100632380D01*
X114525642Y-100680000D01*
X114430404Y-100775238D01*
X114382785Y-100870476D01*
X114335166Y-101060952D01*
X114335166Y-101203809D01*
X114382785Y-101394285D01*
X114430404Y-101489523D01*
X114525642Y-101584761D01*
X114668500Y-101632380D01*
X114763738Y-101632380D01*
X114906595Y-101584761D01*
X114954214Y-101537142D01*
X114954214Y-101203809D01*
X114763738Y-101203809D01*
X115382785Y-101632380D02*
X115382785Y-100632380D01*
X115954214Y-101632380D01*
X115954214Y-100632380D01*
X116430404Y-101632380D02*
X116430404Y-100632380D01*
X116668500Y-100632380D01*
X116811357Y-100680000D01*
X116906595Y-100775238D01*
X116954214Y-100870476D01*
X117001833Y-101060952D01*
X117001833Y-101203809D01*
X116954214Y-101394285D01*
X116906595Y-101489523D01*
X116811357Y-101584761D01*
X116668500Y-101632380D01*
X116430404Y-101632380D01*
X118438095Y-101245428D02*
X119200000Y-101245428D01*
X118819047Y-101626380D02*
X118819047Y-100864476D01*
X119580952Y-100626380D02*
X120200000Y-100626380D01*
X119866666Y-101007333D01*
X120009523Y-101007333D01*
X120104761Y-101054952D01*
X120152380Y-101102571D01*
X120200000Y-101197809D01*
X120200000Y-101435904D01*
X120152380Y-101531142D01*
X120104761Y-101578761D01*
X120009523Y-101626380D01*
X119723809Y-101626380D01*
X119628571Y-101578761D01*
X119580952Y-101531142D01*
X120485714Y-100626380D02*
X120819047Y-101626380D01*
X121152380Y-100626380D01*
X121390476Y-100626380D02*
X122009523Y-100626380D01*
X121676190Y-101007333D01*
X121819047Y-101007333D01*
X121914285Y-101054952D01*
X121961904Y-101102571D01*
X122009523Y-101197809D01*
X122009523Y-101435904D01*
X121961904Y-101531142D01*
X121914285Y-101578761D01*
X121819047Y-101626380D01*
X121533333Y-101626380D01*
X121438095Y-101578761D01*
X121390476Y-101531142D01*
X126916095Y-48419380D02*
X126916095Y-47419380D01*
X127297047Y-47419380D01*
X127392285Y-47467000D01*
X127439904Y-47514619D01*
X127487523Y-47609857D01*
X127487523Y-47752714D01*
X127439904Y-47847952D01*
X127392285Y-47895571D01*
X127297047Y-47943190D01*
X126916095Y-47943190D01*
X128439904Y-47467000D02*
X128344666Y-47419380D01*
X128201809Y-47419380D01*
X128058952Y-47467000D01*
X127963714Y-47562238D01*
X127916095Y-47657476D01*
X127868476Y-47847952D01*
X127868476Y-47990809D01*
X127916095Y-48181285D01*
X127963714Y-48276523D01*
X128058952Y-48371761D01*
X128201809Y-48419380D01*
X128297047Y-48419380D01*
X128439904Y-48371761D01*
X128487523Y-48324142D01*
X128487523Y-47990809D01*
X128297047Y-47990809D01*
X129487523Y-48324142D02*
X129439904Y-48371761D01*
X129297047Y-48419380D01*
X129201809Y-48419380D01*
X129058952Y-48371761D01*
X128963714Y-48276523D01*
X128916095Y-48181285D01*
X128868476Y-47990809D01*
X128868476Y-47847952D01*
X128916095Y-47657476D01*
X128963714Y-47562238D01*
X129058952Y-47467000D01*
X129201809Y-47419380D01*
X129297047Y-47419380D01*
X129439904Y-47467000D01*
X129487523Y-47514619D01*
X127043095Y-52229380D02*
X127043095Y-51229380D01*
X127424047Y-51229380D01*
X127519285Y-51277000D01*
X127566904Y-51324619D01*
X127614523Y-51419857D01*
X127614523Y-51562714D01*
X127566904Y-51657952D01*
X127519285Y-51705571D01*
X127424047Y-51753190D01*
X127043095Y-51753190D01*
X128566904Y-51277000D02*
X128471666Y-51229380D01*
X128328809Y-51229380D01*
X128185952Y-51277000D01*
X128090714Y-51372238D01*
X128043095Y-51467476D01*
X127995476Y-51657952D01*
X127995476Y-51800809D01*
X128043095Y-51991285D01*
X128090714Y-52086523D01*
X128185952Y-52181761D01*
X128328809Y-52229380D01*
X128424047Y-52229380D01*
X128566904Y-52181761D01*
X128614523Y-52134142D01*
X128614523Y-51800809D01*
X128424047Y-51800809D01*
X129043095Y-52229380D02*
X129043095Y-51229380D01*
X129281190Y-51229380D01*
X129424047Y-51277000D01*
X129519285Y-51372238D01*
X129566904Y-51467476D01*
X129614523Y-51657952D01*
X129614523Y-51800809D01*
X129566904Y-51991285D01*
X129519285Y-52086523D01*
X129424047Y-52181761D01*
X129281190Y-52229380D01*
X129043095Y-52229380D01*
X160142380Y-72454142D02*
X160094761Y-72501761D01*
X159951904Y-72549380D01*
X159856666Y-72549380D01*
X159713809Y-72501761D01*
X159618571Y-72406523D01*
X159570952Y-72311285D01*
X159523333Y-72120809D01*
X159523333Y-71977952D01*
X159570952Y-71787476D01*
X159618571Y-71692238D01*
X159713809Y-71597000D01*
X159856666Y-71549380D01*
X159951904Y-71549380D01*
X160094761Y-71597000D01*
X160142380Y-71644619D01*
X160428095Y-71549380D02*
X160999523Y-71549380D01*
X160713809Y-72549380D02*
X160713809Y-71549380D01*
X161285238Y-72501761D02*
X161428095Y-72549380D01*
X161666190Y-72549380D01*
X161761428Y-72501761D01*
X161809047Y-72454142D01*
X161856666Y-72358904D01*
X161856666Y-72263666D01*
X161809047Y-72168428D01*
X161761428Y-72120809D01*
X161666190Y-72073190D01*
X161475714Y-72025571D01*
X161380476Y-71977952D01*
X161332857Y-71930333D01*
X161285238Y-71835095D01*
X161285238Y-71739857D01*
X161332857Y-71644619D01*
X161380476Y-71597000D01*
X161475714Y-71549380D01*
X161713809Y-71549380D01*
X161856666Y-71597000D01*
X160142380Y-76486380D02*
X159809047Y-76010190D01*
X159570952Y-76486380D02*
X159570952Y-75486380D01*
X159951904Y-75486380D01*
X160047142Y-75534000D01*
X160094761Y-75581619D01*
X160142380Y-75676857D01*
X160142380Y-75819714D01*
X160094761Y-75914952D01*
X160047142Y-75962571D01*
X159951904Y-76010190D01*
X159570952Y-76010190D01*
X160428095Y-75486380D02*
X160999523Y-75486380D01*
X160713809Y-76486380D02*
X160713809Y-75486380D01*
X161285238Y-76438761D02*
X161428095Y-76486380D01*
X161666190Y-76486380D01*
X161761428Y-76438761D01*
X161809047Y-76391142D01*
X161856666Y-76295904D01*
X161856666Y-76200666D01*
X161809047Y-76105428D01*
X161761428Y-76057809D01*
X161666190Y-76010190D01*
X161475714Y-75962571D01*
X161380476Y-75914952D01*
X161332857Y-75867333D01*
X161285238Y-75772095D01*
X161285238Y-75676857D01*
X161332857Y-75581619D01*
X161380476Y-75534000D01*
X161475714Y-75486380D01*
X161713809Y-75486380D01*
X161856666Y-75534000D01*
X150014312Y-100493950D02*
X149441893Y-100392935D01*
X149610251Y-100898011D02*
X148903145Y-100190904D01*
X149172519Y-99921530D01*
X149273534Y-99887858D01*
X149340877Y-99887858D01*
X149441893Y-99921530D01*
X149542908Y-100022545D01*
X149576580Y-100123561D01*
X149576580Y-100190904D01*
X149542908Y-100291919D01*
X149273534Y-100561293D01*
X150687748Y-99820515D02*
X150283687Y-100224576D01*
X150485717Y-100022545D02*
X149778610Y-99315438D01*
X149812282Y-99483797D01*
X149812282Y-99618484D01*
X149778610Y-99719500D01*
X150418374Y-98675675D02*
X150485717Y-98608332D01*
X150586732Y-98574660D01*
X150654076Y-98574660D01*
X150755091Y-98608332D01*
X150923450Y-98709347D01*
X151091809Y-98877706D01*
X151192824Y-99046064D01*
X151226496Y-99147080D01*
X151226496Y-99214423D01*
X151192824Y-99315438D01*
X151125480Y-99382782D01*
X151024465Y-99416454D01*
X150957122Y-99416454D01*
X150856106Y-99382782D01*
X150687748Y-99281767D01*
X150519389Y-99113408D01*
X150418374Y-98945049D01*
X150384702Y-98844034D01*
X150384702Y-98776690D01*
X150418374Y-98675675D01*
X129775333Y-55150380D02*
X129442000Y-54674190D01*
X129203904Y-55150380D02*
X129203904Y-54150380D01*
X129584857Y-54150380D01*
X129680095Y-54198000D01*
X129727714Y-54245619D01*
X129775333Y-54340857D01*
X129775333Y-54483714D01*
X129727714Y-54578952D01*
X129680095Y-54626571D01*
X129584857Y-54674190D01*
X129203904Y-54674190D01*
X130251523Y-55150380D02*
X130442000Y-55150380D01*
X130537238Y-55102761D01*
X130584857Y-55055142D01*
X130680095Y-54912285D01*
X130727714Y-54721809D01*
X130727714Y-54340857D01*
X130680095Y-54245619D01*
X130632476Y-54198000D01*
X130537238Y-54150380D01*
X130346761Y-54150380D01*
X130251523Y-54198000D01*
X130203904Y-54245619D01*
X130156285Y-54340857D01*
X130156285Y-54578952D01*
X130203904Y-54674190D01*
X130251523Y-54721809D01*
X130346761Y-54769428D01*
X130537238Y-54769428D01*
X130632476Y-54721809D01*
X130680095Y-54674190D01*
X130727714Y-54578952D01*
X136385867Y-93621569D02*
X135813447Y-93520554D01*
X135981806Y-94025630D02*
X135274699Y-93318524D01*
X135544073Y-93049149D01*
X135645088Y-93015478D01*
X135712432Y-93015478D01*
X135813447Y-93049149D01*
X135914462Y-93150165D01*
X135948134Y-93251180D01*
X135948134Y-93318524D01*
X135914462Y-93419539D01*
X135645088Y-93688913D01*
X136385867Y-92813447D02*
X136284852Y-92847119D01*
X136217508Y-92847119D01*
X136116493Y-92813447D01*
X136082821Y-92779775D01*
X136049149Y-92678760D01*
X136049149Y-92611417D01*
X136082821Y-92510401D01*
X136217508Y-92375714D01*
X136318524Y-92342043D01*
X136385867Y-92342043D01*
X136486882Y-92375714D01*
X136520554Y-92409386D01*
X136554226Y-92510401D01*
X136554226Y-92577745D01*
X136520554Y-92678760D01*
X136385867Y-92813447D01*
X136352195Y-92914462D01*
X136352195Y-92981806D01*
X136385867Y-93082821D01*
X136520554Y-93217508D01*
X136621569Y-93251180D01*
X136688913Y-93251180D01*
X136789928Y-93217508D01*
X136924615Y-93082821D01*
X136958287Y-92981806D01*
X136958287Y-92914462D01*
X136924615Y-92813447D01*
X136789928Y-92678760D01*
X136688913Y-92645088D01*
X136621569Y-92645088D01*
X136520554Y-92678760D01*
X158729333Y-96648380D02*
X158396000Y-96172190D01*
X158157904Y-96648380D02*
X158157904Y-95648380D01*
X158538857Y-95648380D01*
X158634095Y-95696000D01*
X158681714Y-95743619D01*
X158729333Y-95838857D01*
X158729333Y-95981714D01*
X158681714Y-96076952D01*
X158634095Y-96124571D01*
X158538857Y-96172190D01*
X158157904Y-96172190D01*
X159062666Y-95648380D02*
X159729333Y-95648380D01*
X159300761Y-96648380D01*
X160585380Y-90473666D02*
X160109190Y-90807000D01*
X160585380Y-91045095D02*
X159585380Y-91045095D01*
X159585380Y-90664142D01*
X159633000Y-90568904D01*
X159680619Y-90521285D01*
X159775857Y-90473666D01*
X159918714Y-90473666D01*
X160013952Y-90521285D01*
X160061571Y-90568904D01*
X160109190Y-90664142D01*
X160109190Y-91045095D01*
X159585380Y-89616523D02*
X159585380Y-89807000D01*
X159633000Y-89902238D01*
X159680619Y-89949857D01*
X159823476Y-90045095D01*
X160013952Y-90092714D01*
X160394904Y-90092714D01*
X160490142Y-90045095D01*
X160537761Y-89997476D01*
X160585380Y-89902238D01*
X160585380Y-89711761D01*
X160537761Y-89616523D01*
X160490142Y-89568904D01*
X160394904Y-89521285D01*
X160156809Y-89521285D01*
X160061571Y-89568904D01*
X160013952Y-89616523D01*
X159966333Y-89711761D01*
X159966333Y-89902238D01*
X160013952Y-89997476D01*
X160061571Y-90045095D01*
X160156809Y-90092714D01*
X162031380Y-96711166D02*
X161555190Y-97044500D01*
X162031380Y-97282595D02*
X161031380Y-97282595D01*
X161031380Y-96901642D01*
X161079000Y-96806404D01*
X161126619Y-96758785D01*
X161221857Y-96711166D01*
X161364714Y-96711166D01*
X161459952Y-96758785D01*
X161507571Y-96806404D01*
X161555190Y-96901642D01*
X161555190Y-97282595D01*
X161031380Y-95806404D02*
X161031380Y-96282595D01*
X161507571Y-96330214D01*
X161459952Y-96282595D01*
X161412333Y-96187357D01*
X161412333Y-95949261D01*
X161459952Y-95854023D01*
X161507571Y-95806404D01*
X161602809Y-95758785D01*
X161840904Y-95758785D01*
X161936142Y-95806404D01*
X161983761Y-95854023D01*
X162031380Y-95949261D01*
X162031380Y-96187357D01*
X161983761Y-96282595D01*
X161936142Y-96330214D01*
X167046880Y-107016166D02*
X166570690Y-107349500D01*
X167046880Y-107587595D02*
X166046880Y-107587595D01*
X166046880Y-107206642D01*
X166094500Y-107111404D01*
X166142119Y-107063785D01*
X166237357Y-107016166D01*
X166380214Y-107016166D01*
X166475452Y-107063785D01*
X166523071Y-107111404D01*
X166570690Y-107206642D01*
X166570690Y-107587595D01*
X166380214Y-106159023D02*
X167046880Y-106159023D01*
X165999261Y-106397119D02*
X166713547Y-106635214D01*
X166713547Y-106016166D01*
X165332380Y-106952666D02*
X164856190Y-107286000D01*
X165332380Y-107524095D02*
X164332380Y-107524095D01*
X164332380Y-107143142D01*
X164380000Y-107047904D01*
X164427619Y-107000285D01*
X164522857Y-106952666D01*
X164665714Y-106952666D01*
X164760952Y-107000285D01*
X164808571Y-107047904D01*
X164856190Y-107143142D01*
X164856190Y-107524095D01*
X164332380Y-106619333D02*
X164332380Y-106000285D01*
X164713333Y-106333619D01*
X164713333Y-106190761D01*
X164760952Y-106095523D01*
X164808571Y-106047904D01*
X164903809Y-106000285D01*
X165141904Y-106000285D01*
X165237142Y-106047904D01*
X165284761Y-106095523D01*
X165332380Y-106190761D01*
X165332380Y-106476476D01*
X165284761Y-106571714D01*
X165237142Y-106619333D01*
X131206880Y-113459666D02*
X130730690Y-113793000D01*
X131206880Y-114031095D02*
X130206880Y-114031095D01*
X130206880Y-113650142D01*
X130254500Y-113554904D01*
X130302119Y-113507285D01*
X130397357Y-113459666D01*
X130540214Y-113459666D01*
X130635452Y-113507285D01*
X130683071Y-113554904D01*
X130730690Y-113650142D01*
X130730690Y-114031095D01*
X130302119Y-113078714D02*
X130254500Y-113031095D01*
X130206880Y-112935857D01*
X130206880Y-112697761D01*
X130254500Y-112602523D01*
X130302119Y-112554904D01*
X130397357Y-112507285D01*
X130492595Y-112507285D01*
X130635452Y-112554904D01*
X131206880Y-113126333D01*
X131206880Y-112507285D01*
X158156880Y-104984166D02*
X157680690Y-105317500D01*
X158156880Y-105555595D02*
X157156880Y-105555595D01*
X157156880Y-105174642D01*
X157204500Y-105079404D01*
X157252119Y-105031785D01*
X157347357Y-104984166D01*
X157490214Y-104984166D01*
X157585452Y-105031785D01*
X157633071Y-105079404D01*
X157680690Y-105174642D01*
X157680690Y-105555595D01*
X158156880Y-104031785D02*
X158156880Y-104603214D01*
X158156880Y-104317500D02*
X157156880Y-104317500D01*
X157299738Y-104412738D01*
X157394976Y-104507976D01*
X157442595Y-104603214D01*
X161927261Y-102698119D02*
X161832023Y-102650500D01*
X161736785Y-102555261D01*
X161593928Y-102412404D01*
X161498690Y-102364785D01*
X161403452Y-102364785D01*
X161451071Y-102602880D02*
X161355833Y-102555261D01*
X161260595Y-102460023D01*
X161212976Y-102269547D01*
X161212976Y-101936214D01*
X161260595Y-101745738D01*
X161355833Y-101650500D01*
X161451071Y-101602880D01*
X161641547Y-101602880D01*
X161736785Y-101650500D01*
X161832023Y-101745738D01*
X161879642Y-101936214D01*
X161879642Y-102269547D01*
X161832023Y-102460023D01*
X161736785Y-102555261D01*
X161641547Y-102602880D01*
X161451071Y-102602880D01*
X162260595Y-101698119D02*
X162308214Y-101650500D01*
X162403452Y-101602880D01*
X162641547Y-101602880D01*
X162736785Y-101650500D01*
X162784404Y-101698119D01*
X162832023Y-101793357D01*
X162832023Y-101888595D01*
X162784404Y-102031452D01*
X162212976Y-102602880D01*
X162832023Y-102602880D01*
X126316261Y-115310619D02*
X126221023Y-115263000D01*
X126125785Y-115167761D01*
X125982928Y-115024904D01*
X125887690Y-114977285D01*
X125792452Y-114977285D01*
X125840071Y-115215380D02*
X125744833Y-115167761D01*
X125649595Y-115072523D01*
X125601976Y-114882047D01*
X125601976Y-114548714D01*
X125649595Y-114358238D01*
X125744833Y-114263000D01*
X125840071Y-114215380D01*
X126030547Y-114215380D01*
X126125785Y-114263000D01*
X126221023Y-114358238D01*
X126268642Y-114548714D01*
X126268642Y-114882047D01*
X126221023Y-115072523D01*
X126125785Y-115167761D01*
X126030547Y-115215380D01*
X125840071Y-115215380D01*
X127221023Y-115215380D02*
X126649595Y-115215380D01*
X126935309Y-115215380D02*
X126935309Y-114215380D01*
X126840071Y-114358238D01*
X126744833Y-114453476D01*
X126649595Y-114501095D01*
X145969530Y-101490732D02*
X145632812Y-101827450D01*
X144925706Y-101120343D01*
X146575622Y-100884641D02*
X146171561Y-101288702D01*
X146373591Y-101086671D02*
X145666484Y-100379564D01*
X145700156Y-100547923D01*
X145700156Y-100682610D01*
X145666484Y-100783625D01*
X145537380Y-83344333D02*
X146251666Y-83344333D01*
X146394523Y-83391952D01*
X146489761Y-83487190D01*
X146537380Y-83630047D01*
X146537380Y-83725285D01*
X146537380Y-82868142D02*
X145537380Y-82868142D01*
X145537380Y-82487190D01*
X145585000Y-82391952D01*
X145632619Y-82344333D01*
X145727857Y-82296714D01*
X145870714Y-82296714D01*
X145965952Y-82344333D01*
X146013571Y-82391952D01*
X146061190Y-82487190D01*
X146061190Y-82868142D01*
X145632619Y-81915761D02*
X145585000Y-81868142D01*
X145537380Y-81772904D01*
X145537380Y-81534809D01*
X145585000Y-81439571D01*
X145632619Y-81391952D01*
X145727857Y-81344333D01*
X145823095Y-81344333D01*
X145965952Y-81391952D01*
X146537380Y-81963380D01*
X146537380Y-81344333D01*
X148585380Y-83344333D02*
X149299666Y-83344333D01*
X149442523Y-83391952D01*
X149537761Y-83487190D01*
X149585380Y-83630047D01*
X149585380Y-83725285D01*
X149585380Y-82868142D02*
X148585380Y-82868142D01*
X148585380Y-82487190D01*
X148633000Y-82391952D01*
X148680619Y-82344333D01*
X148775857Y-82296714D01*
X148918714Y-82296714D01*
X149013952Y-82344333D01*
X149061571Y-82391952D01*
X149109190Y-82487190D01*
X149109190Y-82868142D01*
X149585380Y-81344333D02*
X149585380Y-81915761D01*
X149585380Y-81630047D02*
X148585380Y-81630047D01*
X148728238Y-81725285D01*
X148823476Y-81820523D01*
X148871095Y-81915761D01*
X147659142Y-39493666D02*
X148135333Y-39493666D01*
X147563904Y-39779380D02*
X147897238Y-38779380D01*
X148230571Y-39779380D01*
X148563904Y-39779380D02*
X148563904Y-38779380D01*
X149135333Y-39779380D01*
X149135333Y-38779380D01*
X149468666Y-38779380D02*
X150040095Y-38779380D01*
X149754380Y-39779380D02*
X149754380Y-38779380D01*
X134805880Y-109323833D02*
X135520166Y-109323833D01*
X135663023Y-109371452D01*
X135758261Y-109466690D01*
X135805880Y-109609547D01*
X135805880Y-109704785D01*
X135805880Y-108323833D02*
X135805880Y-108895261D01*
X135805880Y-108609547D02*
X134805880Y-108609547D01*
X134948738Y-108704785D01*
X135043976Y-108800023D01*
X135091595Y-108895261D01*
X133095743Y-96664067D02*
X132388636Y-95956961D01*
X132556995Y-95788602D01*
X132691682Y-95721258D01*
X132826369Y-95721258D01*
X132927384Y-95754930D01*
X133095743Y-95855945D01*
X133196758Y-95956961D01*
X133297774Y-96125319D01*
X133331445Y-96226335D01*
X133331445Y-96361022D01*
X133264102Y-96495709D01*
X133095743Y-96664067D01*
X133129415Y-95350869D02*
X133129415Y-95283525D01*
X133163086Y-95182510D01*
X133331445Y-95014151D01*
X133432461Y-94980480D01*
X133499804Y-94980480D01*
X133600819Y-95014151D01*
X133668163Y-95081495D01*
X133735506Y-95216182D01*
X133735506Y-96024304D01*
X134173239Y-95586571D01*
X130270404Y-109046380D02*
X130270404Y-108046380D01*
X130508500Y-108046380D01*
X130651357Y-108094000D01*
X130746595Y-108189238D01*
X130794214Y-108284476D01*
X130841833Y-108474952D01*
X130841833Y-108617809D01*
X130794214Y-108808285D01*
X130746595Y-108903523D01*
X130651357Y-108998761D01*
X130508500Y-109046380D01*
X130270404Y-109046380D01*
X131794214Y-109046380D02*
X131222785Y-109046380D01*
X131508500Y-109046380D02*
X131508500Y-108046380D01*
X131413261Y-108189238D01*
X131318023Y-108284476D01*
X131222785Y-108332095D01*
X157364142Y-63595857D02*
X157411761Y-63643476D01*
X157459380Y-63786333D01*
X157459380Y-63881571D01*
X157411761Y-64024428D01*
X157316523Y-64119666D01*
X157221285Y-64167285D01*
X157030809Y-64214904D01*
X156887952Y-64214904D01*
X156697476Y-64167285D01*
X156602238Y-64119666D01*
X156507000Y-64024428D01*
X156459380Y-63881571D01*
X156459380Y-63786333D01*
X156507000Y-63643476D01*
X156554619Y-63595857D01*
X157459380Y-62643476D02*
X157459380Y-63214904D01*
X157459380Y-62929190D02*
X156459380Y-62929190D01*
X156602238Y-63024428D01*
X156697476Y-63119666D01*
X156745095Y-63214904D01*
X156459380Y-61738714D02*
X156459380Y-62214904D01*
X156935571Y-62262523D01*
X156887952Y-62214904D01*
X156840333Y-62119666D01*
X156840333Y-61881571D01*
X156887952Y-61786333D01*
X156935571Y-61738714D01*
X157030809Y-61691095D01*
X157268904Y-61691095D01*
X157364142Y-61738714D01*
X157411761Y-61786333D01*
X157459380Y-61881571D01*
X157459380Y-62119666D01*
X157411761Y-62214904D01*
X157364142Y-62262523D01*
X155713142Y-63595857D02*
X155760761Y-63643476D01*
X155808380Y-63786333D01*
X155808380Y-63881571D01*
X155760761Y-64024428D01*
X155665523Y-64119666D01*
X155570285Y-64167285D01*
X155379809Y-64214904D01*
X155236952Y-64214904D01*
X155046476Y-64167285D01*
X154951238Y-64119666D01*
X154856000Y-64024428D01*
X154808380Y-63881571D01*
X154808380Y-63786333D01*
X154856000Y-63643476D01*
X154903619Y-63595857D01*
X155808380Y-62643476D02*
X155808380Y-63214904D01*
X155808380Y-62929190D02*
X154808380Y-62929190D01*
X154951238Y-63024428D01*
X155046476Y-63119666D01*
X155094095Y-63214904D01*
X155141714Y-61786333D02*
X155808380Y-61786333D01*
X154760761Y-62024428D02*
X155475047Y-62262523D01*
X155475047Y-61643476D01*
X134123142Y-61182857D02*
X134170761Y-61230476D01*
X134218380Y-61373333D01*
X134218380Y-61468571D01*
X134170761Y-61611428D01*
X134075523Y-61706666D01*
X133980285Y-61754285D01*
X133789809Y-61801904D01*
X133646952Y-61801904D01*
X133456476Y-61754285D01*
X133361238Y-61706666D01*
X133266000Y-61611428D01*
X133218380Y-61468571D01*
X133218380Y-61373333D01*
X133266000Y-61230476D01*
X133313619Y-61182857D01*
X134218380Y-60230476D02*
X134218380Y-60801904D01*
X134218380Y-60516190D02*
X133218380Y-60516190D01*
X133361238Y-60611428D01*
X133456476Y-60706666D01*
X133504095Y-60801904D01*
X133218380Y-59897142D02*
X133218380Y-59278095D01*
X133599333Y-59611428D01*
X133599333Y-59468571D01*
X133646952Y-59373333D01*
X133694571Y-59325714D01*
X133789809Y-59278095D01*
X134027904Y-59278095D01*
X134123142Y-59325714D01*
X134170761Y-59373333D01*
X134218380Y-59468571D01*
X134218380Y-59754285D01*
X134170761Y-59849523D01*
X134123142Y-59897142D01*
X132472142Y-61182857D02*
X132519761Y-61230476D01*
X132567380Y-61373333D01*
X132567380Y-61468571D01*
X132519761Y-61611428D01*
X132424523Y-61706666D01*
X132329285Y-61754285D01*
X132138809Y-61801904D01*
X131995952Y-61801904D01*
X131805476Y-61754285D01*
X131710238Y-61706666D01*
X131615000Y-61611428D01*
X131567380Y-61468571D01*
X131567380Y-61373333D01*
X131615000Y-61230476D01*
X131662619Y-61182857D01*
X132567380Y-60230476D02*
X132567380Y-60801904D01*
X132567380Y-60516190D02*
X131567380Y-60516190D01*
X131710238Y-60611428D01*
X131805476Y-60706666D01*
X131853095Y-60801904D01*
X131662619Y-59849523D02*
X131615000Y-59801904D01*
X131567380Y-59706666D01*
X131567380Y-59468571D01*
X131615000Y-59373333D01*
X131662619Y-59325714D01*
X131757857Y-59278095D01*
X131853095Y-59278095D01*
X131995952Y-59325714D01*
X132567380Y-59897142D01*
X132567380Y-59278095D01*
X136103969Y-81694106D02*
X136103969Y-81761450D01*
X136036625Y-81896137D01*
X135969282Y-81963480D01*
X135834595Y-82030824D01*
X135699908Y-82030824D01*
X135598893Y-81997152D01*
X135430534Y-81896137D01*
X135329519Y-81795122D01*
X135228503Y-81626763D01*
X135194832Y-81525748D01*
X135194832Y-81391061D01*
X135262175Y-81256374D01*
X135329519Y-81189030D01*
X135464206Y-81121687D01*
X135531549Y-81121687D01*
X136844748Y-81088015D02*
X136440687Y-81492076D01*
X136642717Y-81290045D02*
X135935610Y-80582938D01*
X135969282Y-80751297D01*
X135969282Y-80885984D01*
X135935610Y-80987000D01*
X137518183Y-80414580D02*
X137114122Y-80818641D01*
X137316152Y-80616610D02*
X136609045Y-79909503D01*
X136642717Y-80077862D01*
X136642717Y-80212549D01*
X136609045Y-80313564D01*
X129380730Y-91956132D02*
X129313386Y-91956132D01*
X129178699Y-91888788D01*
X129111356Y-91821445D01*
X129044012Y-91686758D01*
X129044012Y-91552071D01*
X129077684Y-91451056D01*
X129178699Y-91282697D01*
X129279714Y-91181682D01*
X129448073Y-91080666D01*
X129549088Y-91046995D01*
X129683775Y-91046995D01*
X129818462Y-91114338D01*
X129885806Y-91181682D01*
X129953149Y-91316369D01*
X129953149Y-91383712D01*
X129986821Y-92696911D02*
X129582760Y-92292850D01*
X129784791Y-92494880D02*
X130491898Y-91787773D01*
X130323539Y-91821445D01*
X130188852Y-91821445D01*
X130087837Y-91787773D01*
X131131661Y-92427537D02*
X131199004Y-92494880D01*
X131232676Y-92595895D01*
X131232676Y-92663239D01*
X131199004Y-92764254D01*
X131097989Y-92932613D01*
X130929630Y-93100972D01*
X130761272Y-93201987D01*
X130660256Y-93235659D01*
X130592913Y-93235659D01*
X130491898Y-93201987D01*
X130424554Y-93134643D01*
X130390882Y-93033628D01*
X130390882Y-92966285D01*
X130424554Y-92865269D01*
X130525569Y-92696911D01*
X130693928Y-92528552D01*
X130862287Y-92427537D01*
X130963302Y-92393865D01*
X131030646Y-92393865D01*
X131131661Y-92427537D01*
X144441687Y-100407389D02*
X144441687Y-100474732D01*
X144374343Y-100609419D01*
X144307000Y-100676763D01*
X144172312Y-100744106D01*
X144037625Y-100744106D01*
X143936610Y-100710435D01*
X143768251Y-100609419D01*
X143667236Y-100508404D01*
X143566221Y-100340045D01*
X143532549Y-100239030D01*
X143532549Y-100104343D01*
X143599893Y-99969656D01*
X143667236Y-99902312D01*
X143801923Y-99834969D01*
X143869267Y-99834969D01*
X144845748Y-100138015D02*
X144980435Y-100003328D01*
X145014106Y-99902312D01*
X145014106Y-99834969D01*
X144980435Y-99666610D01*
X144879419Y-99498251D01*
X144610045Y-99228877D01*
X144509030Y-99195206D01*
X144441687Y-99195206D01*
X144340671Y-99228877D01*
X144205984Y-99363564D01*
X144172312Y-99464580D01*
X144172312Y-99531923D01*
X144205984Y-99632938D01*
X144374343Y-99801297D01*
X144475358Y-99834969D01*
X144542702Y-99834969D01*
X144643717Y-99801297D01*
X144778404Y-99666610D01*
X144812076Y-99565595D01*
X144812076Y-99498251D01*
X144778404Y-99397236D01*
X139107688Y-87961389D02*
X139107688Y-88028732D01*
X139040344Y-88163419D01*
X138973001Y-88230763D01*
X138838313Y-88298106D01*
X138703626Y-88298106D01*
X138602611Y-88264435D01*
X138434252Y-88163419D01*
X138333237Y-88062404D01*
X138232222Y-87894045D01*
X138198550Y-87793030D01*
X138198550Y-87658343D01*
X138265894Y-87523656D01*
X138333237Y-87456312D01*
X138467924Y-87388969D01*
X138535268Y-87388969D01*
X139175031Y-87220610D02*
X139074016Y-87254282D01*
X139006672Y-87254282D01*
X138905657Y-87220610D01*
X138871985Y-87186938D01*
X138838313Y-87085923D01*
X138838313Y-87018580D01*
X138871985Y-86917564D01*
X139006672Y-86782877D01*
X139107688Y-86749206D01*
X139175031Y-86749206D01*
X139276046Y-86782877D01*
X139309718Y-86816549D01*
X139343390Y-86917564D01*
X139343390Y-86984908D01*
X139309718Y-87085923D01*
X139175031Y-87220610D01*
X139141359Y-87321625D01*
X139141359Y-87388969D01*
X139175031Y-87489984D01*
X139309718Y-87624671D01*
X139410733Y-87658343D01*
X139478077Y-87658343D01*
X139579092Y-87624671D01*
X139713779Y-87489984D01*
X139747451Y-87388969D01*
X139747451Y-87321625D01*
X139713779Y-87220610D01*
X139579092Y-87085923D01*
X139478077Y-87052251D01*
X139410733Y-87052251D01*
X139309718Y-87085923D01*
X162983833Y-86233142D02*
X162936214Y-86280761D01*
X162793357Y-86328380D01*
X162698119Y-86328380D01*
X162555261Y-86280761D01*
X162460023Y-86185523D01*
X162412404Y-86090285D01*
X162364785Y-85899809D01*
X162364785Y-85756952D01*
X162412404Y-85566476D01*
X162460023Y-85471238D01*
X162555261Y-85376000D01*
X162698119Y-85328380D01*
X162793357Y-85328380D01*
X162936214Y-85376000D01*
X162983833Y-85423619D01*
X163317166Y-85328380D02*
X163983833Y-85328380D01*
X163555261Y-86328380D01*
X169651333Y-86263642D02*
X169603714Y-86311261D01*
X169460857Y-86358880D01*
X169365619Y-86358880D01*
X169222761Y-86311261D01*
X169127523Y-86216023D01*
X169079904Y-86120785D01*
X169032285Y-85930309D01*
X169032285Y-85787452D01*
X169079904Y-85596976D01*
X169127523Y-85501738D01*
X169222761Y-85406500D01*
X169365619Y-85358880D01*
X169460857Y-85358880D01*
X169603714Y-85406500D01*
X169651333Y-85454119D01*
X170508476Y-85358880D02*
X170318000Y-85358880D01*
X170222761Y-85406500D01*
X170175142Y-85454119D01*
X170079904Y-85596976D01*
X170032285Y-85787452D01*
X170032285Y-86168404D01*
X170079904Y-86263642D01*
X170127523Y-86311261D01*
X170222761Y-86358880D01*
X170413238Y-86358880D01*
X170508476Y-86311261D01*
X170556095Y-86263642D01*
X170603714Y-86168404D01*
X170603714Y-85930309D01*
X170556095Y-85835071D01*
X170508476Y-85787452D01*
X170413238Y-85739833D01*
X170222761Y-85739833D01*
X170127523Y-85787452D01*
X170079904Y-85835071D01*
X170032285Y-85930309D01*
X138858524Y-83775226D02*
X138858524Y-83842569D01*
X138791180Y-83977256D01*
X138723837Y-84044600D01*
X138589149Y-84111943D01*
X138454462Y-84111943D01*
X138353447Y-84078272D01*
X138185088Y-83977256D01*
X138084073Y-83876241D01*
X137983058Y-83707882D01*
X137949386Y-83606867D01*
X137949386Y-83472180D01*
X138016730Y-83337493D01*
X138084073Y-83270149D01*
X138218760Y-83202806D01*
X138286104Y-83202806D01*
X138858524Y-82495699D02*
X138521806Y-82832417D01*
X138824852Y-83202806D01*
X138824852Y-83135462D01*
X138858524Y-83034447D01*
X139026882Y-82866088D01*
X139127898Y-82832417D01*
X139195241Y-82832417D01*
X139296256Y-82866088D01*
X139464615Y-83034447D01*
X139498287Y-83135462D01*
X139498287Y-83202806D01*
X139464615Y-83303821D01*
X139296256Y-83472180D01*
X139195241Y-83505852D01*
X139127898Y-83505852D01*
X149952828Y-95646905D02*
X149885485Y-95646905D01*
X149750798Y-95579561D01*
X149683454Y-95512218D01*
X149616111Y-95377530D01*
X149616111Y-95242843D01*
X149649782Y-95141828D01*
X149750798Y-94973469D01*
X149851813Y-94872454D01*
X150020172Y-94771439D01*
X150121187Y-94737767D01*
X150255874Y-94737767D01*
X150390561Y-94805111D01*
X150457905Y-94872454D01*
X150525248Y-95007141D01*
X150525248Y-95074485D01*
X150962981Y-95848935D02*
X150491576Y-96320340D01*
X151063996Y-95411202D02*
X150390561Y-95747920D01*
X150828294Y-96185653D01*
X123357142Y-105029666D02*
X123404761Y-105077285D01*
X123452380Y-105220142D01*
X123452380Y-105315380D01*
X123404761Y-105458238D01*
X123309523Y-105553476D01*
X123214285Y-105601095D01*
X123023809Y-105648714D01*
X122880952Y-105648714D01*
X122690476Y-105601095D01*
X122595238Y-105553476D01*
X122500000Y-105458238D01*
X122452380Y-105315380D01*
X122452380Y-105220142D01*
X122500000Y-105077285D01*
X122547619Y-105029666D01*
X122452380Y-104696333D02*
X122452380Y-104077285D01*
X122833333Y-104410619D01*
X122833333Y-104267761D01*
X122880952Y-104172523D01*
X122928571Y-104124904D01*
X123023809Y-104077285D01*
X123261904Y-104077285D01*
X123357142Y-104124904D01*
X123404761Y-104172523D01*
X123452380Y-104267761D01*
X123452380Y-104553476D01*
X123404761Y-104648714D01*
X123357142Y-104696333D01*
X158110333Y-101156142D02*
X158062714Y-101203761D01*
X157919857Y-101251380D01*
X157824619Y-101251380D01*
X157681761Y-101203761D01*
X157586523Y-101108523D01*
X157538904Y-101013285D01*
X157491285Y-100822809D01*
X157491285Y-100679952D01*
X157538904Y-100489476D01*
X157586523Y-100394238D01*
X157681761Y-100299000D01*
X157824619Y-100251380D01*
X157919857Y-100251380D01*
X158062714Y-100299000D01*
X158110333Y-100346619D01*
X158491285Y-100346619D02*
X158538904Y-100299000D01*
X158634142Y-100251380D01*
X158872238Y-100251380D01*
X158967476Y-100299000D01*
X159015095Y-100346619D01*
X159062714Y-100441857D01*
X159062714Y-100537095D01*
X159015095Y-100679952D01*
X158443666Y-101251380D01*
X159062714Y-101251380D01*
X132106642Y-105220666D02*
X132154261Y-105268285D01*
X132201880Y-105411142D01*
X132201880Y-105506380D01*
X132154261Y-105649238D01*
X132059023Y-105744476D01*
X131963785Y-105792095D01*
X131773309Y-105839714D01*
X131630452Y-105839714D01*
X131439976Y-105792095D01*
X131344738Y-105744476D01*
X131249500Y-105649238D01*
X131201880Y-105506380D01*
X131201880Y-105411142D01*
X131249500Y-105268285D01*
X131297119Y-105220666D01*
X132201880Y-104268285D02*
X132201880Y-104839714D01*
X132201880Y-104554000D02*
X131201880Y-104554000D01*
X131344738Y-104649238D01*
X131439976Y-104744476D01*
X131487595Y-104839714D01*
X137328571Y-115967571D02*
X137471428Y-116015190D01*
X137519047Y-116062809D01*
X137566666Y-116158047D01*
X137566666Y-116300904D01*
X137519047Y-116396142D01*
X137471428Y-116443761D01*
X137376190Y-116491380D01*
X136995238Y-116491380D01*
X136995238Y-115491380D01*
X137328571Y-115491380D01*
X137423809Y-115539000D01*
X137471428Y-115586619D01*
X137519047Y-115681857D01*
X137519047Y-115777095D01*
X137471428Y-115872333D01*
X137423809Y-115919952D01*
X137328571Y-115967571D01*
X136995238Y-115967571D01*
X138423809Y-116491380D02*
X138423809Y-115967571D01*
X138376190Y-115872333D01*
X138280952Y-115824714D01*
X138090476Y-115824714D01*
X137995238Y-115872333D01*
X138423809Y-116443761D02*
X138328571Y-116491380D01*
X138090476Y-116491380D01*
X137995238Y-116443761D01*
X137947619Y-116348523D01*
X137947619Y-116253285D01*
X137995238Y-116158047D01*
X138090476Y-116110428D01*
X138328571Y-116110428D01*
X138423809Y-116062809D01*
X138757142Y-115824714D02*
X139138095Y-115824714D01*
X138900000Y-115491380D02*
X138900000Y-116348523D01*
X138947619Y-116443761D01*
X139042857Y-116491380D01*
X139138095Y-116491380D01*
X139328571Y-115824714D02*
X139709523Y-115824714D01*
X139471428Y-115491380D02*
X139471428Y-116348523D01*
X139519047Y-116443761D01*
X139614285Y-116491380D01*
X139709523Y-116491380D01*
X140423809Y-116443761D02*
X140328571Y-116491380D01*
X140138095Y-116491380D01*
X140042857Y-116443761D01*
X139995238Y-116348523D01*
X139995238Y-115967571D01*
X140042857Y-115872333D01*
X140138095Y-115824714D01*
X140328571Y-115824714D01*
X140423809Y-115872333D01*
X140471428Y-115967571D01*
X140471428Y-116062809D01*
X139995238Y-116158047D01*
X140900000Y-116491380D02*
X140900000Y-115824714D01*
X140900000Y-116015190D02*
X140947619Y-115919952D01*
X140995238Y-115872333D01*
X141090476Y-115824714D01*
X141185714Y-115824714D01*
X141423809Y-115824714D02*
X141661904Y-116491380D01*
X141900000Y-115824714D02*
X141661904Y-116491380D01*
X141566666Y-116729476D01*
X141519047Y-116777095D01*
X141423809Y-116824714D01*
X142280952Y-116396142D02*
X142328571Y-116443761D01*
X142280952Y-116491380D01*
X142233333Y-116443761D01*
X142280952Y-116396142D01*
X142280952Y-116491380D01*
X142280952Y-115872333D02*
X142328571Y-115919952D01*
X142280952Y-115967571D01*
X142233333Y-115919952D01*
X142280952Y-115872333D01*
X142280952Y-115967571D01*
X143471428Y-115586619D02*
X143519047Y-115539000D01*
X143614285Y-115491380D01*
X143852380Y-115491380D01*
X143947619Y-115539000D01*
X143995238Y-115586619D01*
X144042857Y-115681857D01*
X144042857Y-115777095D01*
X143995238Y-115919952D01*
X143423809Y-116491380D01*
X144042857Y-116491380D01*
X144900000Y-115491380D02*
X144709523Y-115491380D01*
X144614285Y-115539000D01*
X144566666Y-115586619D01*
X144471428Y-115729476D01*
X144423809Y-115919952D01*
X144423809Y-116300904D01*
X144471428Y-116396142D01*
X144519047Y-116443761D01*
X144614285Y-116491380D01*
X144804761Y-116491380D01*
X144900000Y-116443761D01*
X144947619Y-116396142D01*
X144995238Y-116300904D01*
X144995238Y-116062809D01*
X144947619Y-115967571D01*
X144900000Y-115919952D01*
X144804761Y-115872333D01*
X144614285Y-115872333D01*
X144519047Y-115919952D01*
X144471428Y-115967571D01*
X144423809Y-116062809D01*
X145900000Y-115491380D02*
X145423809Y-115491380D01*
X145376190Y-115967571D01*
X145423809Y-115919952D01*
X145519047Y-115872333D01*
X145757142Y-115872333D01*
X145852380Y-115919952D01*
X145900000Y-115967571D01*
X145947619Y-116062809D01*
X145947619Y-116300904D01*
X145900000Y-116396142D01*
X145852380Y-116443761D01*
X145757142Y-116491380D01*
X145519047Y-116491380D01*
X145423809Y-116443761D01*
X145376190Y-116396142D01*
X146566666Y-115491380D02*
X146661904Y-115491380D01*
X146757142Y-115539000D01*
X146804761Y-115586619D01*
X146852380Y-115681857D01*
X146900000Y-115872333D01*
X146900000Y-116110428D01*
X146852380Y-116300904D01*
X146804761Y-116396142D01*
X146757142Y-116443761D01*
X146661904Y-116491380D01*
X146566666Y-116491380D01*
X146471428Y-116443761D01*
X146423809Y-116396142D01*
X146376190Y-116300904D01*
X146328571Y-116110428D01*
X146328571Y-115872333D01*
X146376190Y-115681857D01*
X146423809Y-115586619D01*
X146471428Y-115539000D01*
X146566666Y-115491380D01*
X147519047Y-115491380D02*
X147614285Y-115491380D01*
X147709523Y-115539000D01*
X147757142Y-115586619D01*
X147804761Y-115681857D01*
X147852380Y-115872333D01*
X147852380Y-116110428D01*
X147804761Y-116300904D01*
X147757142Y-116396142D01*
X147709523Y-116443761D01*
X147614285Y-116491380D01*
X147519047Y-116491380D01*
X147423809Y-116443761D01*
X147376190Y-116396142D01*
X147328571Y-116300904D01*
X147280952Y-116110428D01*
X147280952Y-115872333D01*
X147328571Y-115681857D01*
X147376190Y-115586619D01*
X147423809Y-115539000D01*
X147519047Y-115491380D01*
X148947619Y-115491380D02*
X149566666Y-115491380D01*
X149233333Y-115872333D01*
X149376190Y-115872333D01*
X149471428Y-115919952D01*
X149519047Y-115967571D01*
X149566666Y-116062809D01*
X149566666Y-116300904D01*
X149519047Y-116396142D01*
X149471428Y-116443761D01*
X149376190Y-116491380D01*
X149090476Y-116491380D01*
X148995238Y-116443761D01*
X148947619Y-116396142D01*
X149995238Y-116396142D02*
X150042857Y-116443761D01*
X149995238Y-116491380D01*
X149947619Y-116443761D01*
X149995238Y-116396142D01*
X149995238Y-116491380D01*
X150900000Y-115491380D02*
X150709523Y-115491380D01*
X150614285Y-115539000D01*
X150566666Y-115586619D01*
X150471428Y-115729476D01*
X150423809Y-115919952D01*
X150423809Y-116300904D01*
X150471428Y-116396142D01*
X150519047Y-116443761D01*
X150614285Y-116491380D01*
X150804761Y-116491380D01*
X150900000Y-116443761D01*
X150947619Y-116396142D01*
X150995238Y-116300904D01*
X150995238Y-116062809D01*
X150947619Y-115967571D01*
X150900000Y-115919952D01*
X150804761Y-115872333D01*
X150614285Y-115872333D01*
X150519047Y-115919952D01*
X150471428Y-115967571D01*
X150423809Y-116062809D01*
X151280952Y-115491380D02*
X151614285Y-116491380D01*
X151947619Y-115491380D01*
D15*
X164357142Y-114914285D02*
X166642857Y-114914285D01*
X121657142Y-114914285D02*
X123942857Y-114914285D01*
X122800000Y-116057142D02*
X122800000Y-113771428D01*
M02*
